%TF.GenerationSoftware,KiCad,Pcbnew,7.0.7*%
%TF.CreationDate,2025-04-13T10:38:35+09:30*%
%TF.ProjectId,MCP3909_Breakout,4d435033-3930-4395-9f42-7265616b6f75,rev?*%
%TF.SameCoordinates,Original*%
%TF.FileFunction,Legend,Bot*%
%TF.FilePolarity,Positive*%
%FSLAX46Y46*%
G04 Gerber Fmt 4.6, Leading zero omitted, Abs format (unit mm)*
G04 Created by KiCad (PCBNEW 7.0.7) date 2025-04-13 10:38:35*
%MOMM*%
%LPD*%
G01*
G04 APERTURE LIST*
%ADD10C,0.200000*%
%ADD11C,0.120000*%
%ADD12C,0.010000*%
G04 APERTURE END LIST*
D10*
X133749790Y-99293101D02*
X133711695Y-99216911D01*
X133711695Y-99216911D02*
X133711695Y-99102625D01*
X133711695Y-99102625D02*
X133749790Y-98988339D01*
X133749790Y-98988339D02*
X133825980Y-98912149D01*
X133825980Y-98912149D02*
X133902171Y-98874054D01*
X133902171Y-98874054D02*
X134054552Y-98835958D01*
X134054552Y-98835958D02*
X134168838Y-98835958D01*
X134168838Y-98835958D02*
X134321219Y-98874054D01*
X134321219Y-98874054D02*
X134397409Y-98912149D01*
X134397409Y-98912149D02*
X134473600Y-98988339D01*
X134473600Y-98988339D02*
X134511695Y-99102625D01*
X134511695Y-99102625D02*
X134511695Y-99178816D01*
X134511695Y-99178816D02*
X134473600Y-99293101D01*
X134473600Y-99293101D02*
X134435504Y-99331197D01*
X134435504Y-99331197D02*
X134168838Y-99331197D01*
X134168838Y-99331197D02*
X134168838Y-99178816D01*
X134511695Y-100093101D02*
X134511695Y-99635958D01*
X134511695Y-99864530D02*
X133711695Y-99864530D01*
X133711695Y-99864530D02*
X133825980Y-99788339D01*
X133825980Y-99788339D02*
X133902171Y-99712149D01*
X133902171Y-99712149D02*
X133940266Y-99635958D01*
X140099695Y-108018054D02*
X139299695Y-108018054D01*
X139299695Y-108018054D02*
X139871123Y-108284720D01*
X139871123Y-108284720D02*
X139299695Y-108551387D01*
X139299695Y-108551387D02*
X140099695Y-108551387D01*
X139299695Y-109084721D02*
X139299695Y-109237102D01*
X139299695Y-109237102D02*
X139337790Y-109313292D01*
X139337790Y-109313292D02*
X139413980Y-109389483D01*
X139413980Y-109389483D02*
X139566361Y-109427578D01*
X139566361Y-109427578D02*
X139833028Y-109427578D01*
X139833028Y-109427578D02*
X139985409Y-109389483D01*
X139985409Y-109389483D02*
X140061600Y-109313292D01*
X140061600Y-109313292D02*
X140099695Y-109237102D01*
X140099695Y-109237102D02*
X140099695Y-109084721D01*
X140099695Y-109084721D02*
X140061600Y-109008530D01*
X140061600Y-109008530D02*
X139985409Y-108932340D01*
X139985409Y-108932340D02*
X139833028Y-108894244D01*
X139833028Y-108894244D02*
X139566361Y-108894244D01*
X139566361Y-108894244D02*
X139413980Y-108932340D01*
X139413980Y-108932340D02*
X139337790Y-109008530D01*
X139337790Y-109008530D02*
X139299695Y-109084721D01*
X140061600Y-109732339D02*
X140099695Y-109846625D01*
X140099695Y-109846625D02*
X140099695Y-110037101D01*
X140099695Y-110037101D02*
X140061600Y-110113292D01*
X140061600Y-110113292D02*
X140023504Y-110151387D01*
X140023504Y-110151387D02*
X139947314Y-110189482D01*
X139947314Y-110189482D02*
X139871123Y-110189482D01*
X139871123Y-110189482D02*
X139794933Y-110151387D01*
X139794933Y-110151387D02*
X139756838Y-110113292D01*
X139756838Y-110113292D02*
X139718742Y-110037101D01*
X139718742Y-110037101D02*
X139680647Y-109884720D01*
X139680647Y-109884720D02*
X139642552Y-109808530D01*
X139642552Y-109808530D02*
X139604457Y-109770435D01*
X139604457Y-109770435D02*
X139528266Y-109732339D01*
X139528266Y-109732339D02*
X139452076Y-109732339D01*
X139452076Y-109732339D02*
X139375885Y-109770435D01*
X139375885Y-109770435D02*
X139337790Y-109808530D01*
X139337790Y-109808530D02*
X139299695Y-109884720D01*
X139299695Y-109884720D02*
X139299695Y-110075197D01*
X139299695Y-110075197D02*
X139337790Y-110189482D01*
X140099695Y-110532340D02*
X139299695Y-110532340D01*
X133749790Y-93959101D02*
X133711695Y-93882911D01*
X133711695Y-93882911D02*
X133711695Y-93768625D01*
X133711695Y-93768625D02*
X133749790Y-93654339D01*
X133749790Y-93654339D02*
X133825980Y-93578149D01*
X133825980Y-93578149D02*
X133902171Y-93540054D01*
X133902171Y-93540054D02*
X134054552Y-93501958D01*
X134054552Y-93501958D02*
X134168838Y-93501958D01*
X134168838Y-93501958D02*
X134321219Y-93540054D01*
X134321219Y-93540054D02*
X134397409Y-93578149D01*
X134397409Y-93578149D02*
X134473600Y-93654339D01*
X134473600Y-93654339D02*
X134511695Y-93768625D01*
X134511695Y-93768625D02*
X134511695Y-93844816D01*
X134511695Y-93844816D02*
X134473600Y-93959101D01*
X134473600Y-93959101D02*
X134435504Y-93997197D01*
X134435504Y-93997197D02*
X134168838Y-93997197D01*
X134168838Y-93997197D02*
X134168838Y-93844816D01*
X133711695Y-94492435D02*
X133711695Y-94568625D01*
X133711695Y-94568625D02*
X133749790Y-94644816D01*
X133749790Y-94644816D02*
X133787885Y-94682911D01*
X133787885Y-94682911D02*
X133864076Y-94721006D01*
X133864076Y-94721006D02*
X134016457Y-94759101D01*
X134016457Y-94759101D02*
X134206933Y-94759101D01*
X134206933Y-94759101D02*
X134359314Y-94721006D01*
X134359314Y-94721006D02*
X134435504Y-94682911D01*
X134435504Y-94682911D02*
X134473600Y-94644816D01*
X134473600Y-94644816D02*
X134511695Y-94568625D01*
X134511695Y-94568625D02*
X134511695Y-94492435D01*
X134511695Y-94492435D02*
X134473600Y-94416244D01*
X134473600Y-94416244D02*
X134435504Y-94378149D01*
X134435504Y-94378149D02*
X134359314Y-94340054D01*
X134359314Y-94340054D02*
X134206933Y-94301958D01*
X134206933Y-94301958D02*
X134016457Y-94301958D01*
X134016457Y-94301958D02*
X133864076Y-94340054D01*
X133864076Y-94340054D02*
X133787885Y-94378149D01*
X133787885Y-94378149D02*
X133749790Y-94416244D01*
X133749790Y-94416244D02*
X133711695Y-94492435D01*
X144379695Y-109288054D02*
X145027314Y-109288054D01*
X145027314Y-109288054D02*
X145103504Y-109326149D01*
X145103504Y-109326149D02*
X145141600Y-109364244D01*
X145141600Y-109364244D02*
X145179695Y-109440435D01*
X145179695Y-109440435D02*
X145179695Y-109592816D01*
X145179695Y-109592816D02*
X145141600Y-109669006D01*
X145141600Y-109669006D02*
X145103504Y-109707101D01*
X145103504Y-109707101D02*
X145027314Y-109745197D01*
X145027314Y-109745197D02*
X144379695Y-109745197D01*
X145179695Y-110126149D02*
X144379695Y-110126149D01*
X144379695Y-110126149D02*
X144379695Y-110430911D01*
X144379695Y-110430911D02*
X144417790Y-110507101D01*
X144417790Y-110507101D02*
X144455885Y-110545196D01*
X144455885Y-110545196D02*
X144532076Y-110583292D01*
X144532076Y-110583292D02*
X144646361Y-110583292D01*
X144646361Y-110583292D02*
X144722552Y-110545196D01*
X144722552Y-110545196D02*
X144760647Y-110507101D01*
X144760647Y-110507101D02*
X144798742Y-110430911D01*
X144798742Y-110430911D02*
X144798742Y-110126149D01*
X129471945Y-103523695D02*
X129471945Y-102723695D01*
X129471945Y-102723695D02*
X129205279Y-103295123D01*
X129205279Y-103295123D02*
X128938612Y-102723695D01*
X128938612Y-102723695D02*
X128938612Y-103523695D01*
X128100516Y-103447504D02*
X128138612Y-103485600D01*
X128138612Y-103485600D02*
X128252897Y-103523695D01*
X128252897Y-103523695D02*
X128329088Y-103523695D01*
X128329088Y-103523695D02*
X128443374Y-103485600D01*
X128443374Y-103485600D02*
X128519564Y-103409409D01*
X128519564Y-103409409D02*
X128557659Y-103333219D01*
X128557659Y-103333219D02*
X128595755Y-103180838D01*
X128595755Y-103180838D02*
X128595755Y-103066552D01*
X128595755Y-103066552D02*
X128557659Y-102914171D01*
X128557659Y-102914171D02*
X128519564Y-102837980D01*
X128519564Y-102837980D02*
X128443374Y-102761790D01*
X128443374Y-102761790D02*
X128329088Y-102723695D01*
X128329088Y-102723695D02*
X128252897Y-102723695D01*
X128252897Y-102723695D02*
X128138612Y-102761790D01*
X128138612Y-102761790D02*
X128100516Y-102799885D01*
X127376707Y-103523695D02*
X127757659Y-103523695D01*
X127757659Y-103523695D02*
X127757659Y-102723695D01*
X126652897Y-103523695D02*
X126919564Y-103142742D01*
X127110040Y-103523695D02*
X127110040Y-102723695D01*
X127110040Y-102723695D02*
X126805278Y-102723695D01*
X126805278Y-102723695D02*
X126729088Y-102761790D01*
X126729088Y-102761790D02*
X126690993Y-102799885D01*
X126690993Y-102799885D02*
X126652897Y-102876076D01*
X126652897Y-102876076D02*
X126652897Y-102990361D01*
X126652897Y-102990361D02*
X126690993Y-103066552D01*
X126690993Y-103066552D02*
X126729088Y-103104647D01*
X126729088Y-103104647D02*
X126805278Y-103142742D01*
X126805278Y-103142742D02*
X127110040Y-103142742D01*
X129582422Y-102501600D02*
X126580517Y-102501600D01*
X149537945Y-89009695D02*
X149537945Y-88209695D01*
X149537945Y-88514457D02*
X149461755Y-88476361D01*
X149461755Y-88476361D02*
X149309374Y-88476361D01*
X149309374Y-88476361D02*
X149233183Y-88514457D01*
X149233183Y-88514457D02*
X149195088Y-88552552D01*
X149195088Y-88552552D02*
X149156993Y-88628742D01*
X149156993Y-88628742D02*
X149156993Y-88857314D01*
X149156993Y-88857314D02*
X149195088Y-88933504D01*
X149195088Y-88933504D02*
X149233183Y-88971600D01*
X149233183Y-88971600D02*
X149309374Y-89009695D01*
X149309374Y-89009695D02*
X149461755Y-89009695D01*
X149461755Y-89009695D02*
X149537945Y-88971600D01*
X148890326Y-88476361D02*
X148699850Y-89009695D01*
X148509373Y-88476361D02*
X148699850Y-89009695D01*
X148699850Y-89009695D02*
X148776040Y-89200171D01*
X148776040Y-89200171D02*
X148814135Y-89238266D01*
X148814135Y-89238266D02*
X148890326Y-89276361D01*
X147709373Y-88209695D02*
X147252230Y-88209695D01*
X147480802Y-89009695D02*
X147480802Y-88209695D01*
X146985563Y-89009695D02*
X146985563Y-88476361D01*
X146985563Y-88209695D02*
X147023659Y-88247790D01*
X147023659Y-88247790D02*
X146985563Y-88285885D01*
X146985563Y-88285885D02*
X146947468Y-88247790D01*
X146947468Y-88247790D02*
X146985563Y-88209695D01*
X146985563Y-88209695D02*
X146985563Y-88285885D01*
X146642707Y-88971600D02*
X146566516Y-89009695D01*
X146566516Y-89009695D02*
X146414135Y-89009695D01*
X146414135Y-89009695D02*
X146337945Y-88971600D01*
X146337945Y-88971600D02*
X146299849Y-88895409D01*
X146299849Y-88895409D02*
X146299849Y-88857314D01*
X146299849Y-88857314D02*
X146337945Y-88781123D01*
X146337945Y-88781123D02*
X146414135Y-88743028D01*
X146414135Y-88743028D02*
X146528421Y-88743028D01*
X146528421Y-88743028D02*
X146604611Y-88704933D01*
X146604611Y-88704933D02*
X146642707Y-88628742D01*
X146642707Y-88628742D02*
X146642707Y-88590647D01*
X146642707Y-88590647D02*
X146604611Y-88514457D01*
X146604611Y-88514457D02*
X146528421Y-88476361D01*
X146528421Y-88476361D02*
X146414135Y-88476361D01*
X146414135Y-88476361D02*
X146337945Y-88514457D01*
X145956992Y-89009695D02*
X145956992Y-88209695D01*
X145614135Y-89009695D02*
X145614135Y-88590647D01*
X145614135Y-88590647D02*
X145652230Y-88514457D01*
X145652230Y-88514457D02*
X145728421Y-88476361D01*
X145728421Y-88476361D02*
X145842707Y-88476361D01*
X145842707Y-88476361D02*
X145918897Y-88514457D01*
X145918897Y-88514457D02*
X145956992Y-88552552D01*
X144890325Y-89009695D02*
X144890325Y-88590647D01*
X144890325Y-88590647D02*
X144928420Y-88514457D01*
X144928420Y-88514457D02*
X145004611Y-88476361D01*
X145004611Y-88476361D02*
X145156992Y-88476361D01*
X145156992Y-88476361D02*
X145233182Y-88514457D01*
X144890325Y-88971600D02*
X144966516Y-89009695D01*
X144966516Y-89009695D02*
X145156992Y-89009695D01*
X145156992Y-89009695D02*
X145233182Y-88971600D01*
X145233182Y-88971600D02*
X145271278Y-88895409D01*
X145271278Y-88895409D02*
X145271278Y-88819219D01*
X145271278Y-88819219D02*
X145233182Y-88743028D01*
X145233182Y-88743028D02*
X145156992Y-88704933D01*
X145156992Y-88704933D02*
X144966516Y-88704933D01*
X144966516Y-88704933D02*
X144890325Y-88666838D01*
X144509372Y-89009695D02*
X144509372Y-88476361D01*
X144509372Y-88552552D02*
X144471277Y-88514457D01*
X144471277Y-88514457D02*
X144395087Y-88476361D01*
X144395087Y-88476361D02*
X144280801Y-88476361D01*
X144280801Y-88476361D02*
X144204610Y-88514457D01*
X144204610Y-88514457D02*
X144166515Y-88590647D01*
X144166515Y-88590647D02*
X144166515Y-89009695D01*
X144166515Y-88590647D02*
X144128420Y-88514457D01*
X144128420Y-88514457D02*
X144052229Y-88476361D01*
X144052229Y-88476361D02*
X143937944Y-88476361D01*
X143937944Y-88476361D02*
X143861753Y-88514457D01*
X143861753Y-88514457D02*
X143823658Y-88590647D01*
X143823658Y-88590647D02*
X143823658Y-89009695D01*
X142833181Y-89009695D02*
X142833181Y-88209695D01*
X142833181Y-88209695D02*
X142642705Y-88209695D01*
X142642705Y-88209695D02*
X142528419Y-88247790D01*
X142528419Y-88247790D02*
X142452229Y-88323980D01*
X142452229Y-88323980D02*
X142414134Y-88400171D01*
X142414134Y-88400171D02*
X142376038Y-88552552D01*
X142376038Y-88552552D02*
X142376038Y-88666838D01*
X142376038Y-88666838D02*
X142414134Y-88819219D01*
X142414134Y-88819219D02*
X142452229Y-88895409D01*
X142452229Y-88895409D02*
X142528419Y-88971600D01*
X142528419Y-88971600D02*
X142642705Y-89009695D01*
X142642705Y-89009695D02*
X142833181Y-89009695D01*
X142033181Y-89009695D02*
X142033181Y-88209695D01*
X141690324Y-89009695D02*
X141690324Y-88590647D01*
X141690324Y-88590647D02*
X141728419Y-88514457D01*
X141728419Y-88514457D02*
X141804610Y-88476361D01*
X141804610Y-88476361D02*
X141918896Y-88476361D01*
X141918896Y-88476361D02*
X141995086Y-88514457D01*
X141995086Y-88514457D02*
X142033181Y-88552552D01*
X140966514Y-89009695D02*
X140966514Y-88590647D01*
X140966514Y-88590647D02*
X141004609Y-88514457D01*
X141004609Y-88514457D02*
X141080800Y-88476361D01*
X141080800Y-88476361D02*
X141233181Y-88476361D01*
X141233181Y-88476361D02*
X141309371Y-88514457D01*
X140966514Y-88971600D02*
X141042705Y-89009695D01*
X141042705Y-89009695D02*
X141233181Y-89009695D01*
X141233181Y-89009695D02*
X141309371Y-88971600D01*
X141309371Y-88971600D02*
X141347467Y-88895409D01*
X141347467Y-88895409D02*
X141347467Y-88819219D01*
X141347467Y-88819219D02*
X141309371Y-88743028D01*
X141309371Y-88743028D02*
X141233181Y-88704933D01*
X141233181Y-88704933D02*
X141042705Y-88704933D01*
X141042705Y-88704933D02*
X140966514Y-88666838D01*
X140585561Y-89009695D02*
X140585561Y-88476361D01*
X140585561Y-88628742D02*
X140547466Y-88552552D01*
X140547466Y-88552552D02*
X140509371Y-88514457D01*
X140509371Y-88514457D02*
X140433180Y-88476361D01*
X140433180Y-88476361D02*
X140356990Y-88476361D01*
X149537945Y-90297695D02*
X149537945Y-89497695D01*
X149195088Y-90297695D02*
X149195088Y-89878647D01*
X149195088Y-89878647D02*
X149233183Y-89802457D01*
X149233183Y-89802457D02*
X149309374Y-89764361D01*
X149309374Y-89764361D02*
X149423660Y-89764361D01*
X149423660Y-89764361D02*
X149499850Y-89802457D01*
X149499850Y-89802457D02*
X149537945Y-89840552D01*
X148928421Y-89764361D02*
X148623659Y-89764361D01*
X148814135Y-89497695D02*
X148814135Y-90183409D01*
X148814135Y-90183409D02*
X148776040Y-90259600D01*
X148776040Y-90259600D02*
X148699850Y-90297695D01*
X148699850Y-90297695D02*
X148623659Y-90297695D01*
X148471278Y-89764361D02*
X148166516Y-89764361D01*
X148356992Y-89497695D02*
X148356992Y-90183409D01*
X148356992Y-90183409D02*
X148318897Y-90259600D01*
X148318897Y-90259600D02*
X148242707Y-90297695D01*
X148242707Y-90297695D02*
X148166516Y-90297695D01*
X147899849Y-89764361D02*
X147899849Y-90564361D01*
X147899849Y-89802457D02*
X147823659Y-89764361D01*
X147823659Y-89764361D02*
X147671278Y-89764361D01*
X147671278Y-89764361D02*
X147595087Y-89802457D01*
X147595087Y-89802457D02*
X147556992Y-89840552D01*
X147556992Y-89840552D02*
X147518897Y-89916742D01*
X147518897Y-89916742D02*
X147518897Y-90145314D01*
X147518897Y-90145314D02*
X147556992Y-90221504D01*
X147556992Y-90221504D02*
X147595087Y-90259600D01*
X147595087Y-90259600D02*
X147671278Y-90297695D01*
X147671278Y-90297695D02*
X147823659Y-90297695D01*
X147823659Y-90297695D02*
X147899849Y-90259600D01*
X147214135Y-90259600D02*
X147137944Y-90297695D01*
X147137944Y-90297695D02*
X146985563Y-90297695D01*
X146985563Y-90297695D02*
X146909373Y-90259600D01*
X146909373Y-90259600D02*
X146871277Y-90183409D01*
X146871277Y-90183409D02*
X146871277Y-90145314D01*
X146871277Y-90145314D02*
X146909373Y-90069123D01*
X146909373Y-90069123D02*
X146985563Y-90031028D01*
X146985563Y-90031028D02*
X147099849Y-90031028D01*
X147099849Y-90031028D02*
X147176039Y-89992933D01*
X147176039Y-89992933D02*
X147214135Y-89916742D01*
X147214135Y-89916742D02*
X147214135Y-89878647D01*
X147214135Y-89878647D02*
X147176039Y-89802457D01*
X147176039Y-89802457D02*
X147099849Y-89764361D01*
X147099849Y-89764361D02*
X146985563Y-89764361D01*
X146985563Y-89764361D02*
X146909373Y-89802457D01*
X146528420Y-90221504D02*
X146490325Y-90259600D01*
X146490325Y-90259600D02*
X146528420Y-90297695D01*
X146528420Y-90297695D02*
X146566516Y-90259600D01*
X146566516Y-90259600D02*
X146528420Y-90221504D01*
X146528420Y-90221504D02*
X146528420Y-90297695D01*
X146528420Y-89802457D02*
X146490325Y-89840552D01*
X146490325Y-89840552D02*
X146528420Y-89878647D01*
X146528420Y-89878647D02*
X146566516Y-89840552D01*
X146566516Y-89840552D02*
X146528420Y-89802457D01*
X146528420Y-89802457D02*
X146528420Y-89878647D01*
X145576040Y-89459600D02*
X146261754Y-90488171D01*
X144737945Y-89459600D02*
X145423659Y-90488171D01*
X144547469Y-89764361D02*
X144395088Y-90297695D01*
X144395088Y-90297695D02*
X144242707Y-89916742D01*
X144242707Y-89916742D02*
X144090326Y-90297695D01*
X144090326Y-90297695D02*
X143937945Y-89764361D01*
X143633183Y-90297695D02*
X143633183Y-89497695D01*
X143290326Y-90297695D02*
X143290326Y-89878647D01*
X143290326Y-89878647D02*
X143328421Y-89802457D01*
X143328421Y-89802457D02*
X143404612Y-89764361D01*
X143404612Y-89764361D02*
X143518898Y-89764361D01*
X143518898Y-89764361D02*
X143595088Y-89802457D01*
X143595088Y-89802457D02*
X143633183Y-89840552D01*
X142566516Y-90297695D02*
X142566516Y-89878647D01*
X142566516Y-89878647D02*
X142604611Y-89802457D01*
X142604611Y-89802457D02*
X142680802Y-89764361D01*
X142680802Y-89764361D02*
X142833183Y-89764361D01*
X142833183Y-89764361D02*
X142909373Y-89802457D01*
X142566516Y-90259600D02*
X142642707Y-90297695D01*
X142642707Y-90297695D02*
X142833183Y-90297695D01*
X142833183Y-90297695D02*
X142909373Y-90259600D01*
X142909373Y-90259600D02*
X142947469Y-90183409D01*
X142947469Y-90183409D02*
X142947469Y-90107219D01*
X142947469Y-90107219D02*
X142909373Y-90031028D01*
X142909373Y-90031028D02*
X142833183Y-89992933D01*
X142833183Y-89992933D02*
X142642707Y-89992933D01*
X142642707Y-89992933D02*
X142566516Y-89954838D01*
X142299849Y-89764361D02*
X141995087Y-89764361D01*
X142185563Y-89497695D02*
X142185563Y-90183409D01*
X142185563Y-90183409D02*
X142147468Y-90259600D01*
X142147468Y-90259600D02*
X142071278Y-90297695D01*
X142071278Y-90297695D02*
X141995087Y-90297695D01*
X141728420Y-89764361D02*
X141728420Y-90297695D01*
X141728420Y-89840552D02*
X141690325Y-89802457D01*
X141690325Y-89802457D02*
X141614135Y-89764361D01*
X141614135Y-89764361D02*
X141499849Y-89764361D01*
X141499849Y-89764361D02*
X141423658Y-89802457D01*
X141423658Y-89802457D02*
X141385563Y-89878647D01*
X141385563Y-89878647D02*
X141385563Y-90297695D01*
X141004610Y-90297695D02*
X141004610Y-89764361D01*
X141004610Y-89497695D02*
X141042706Y-89535790D01*
X141042706Y-89535790D02*
X141004610Y-89573885D01*
X141004610Y-89573885D02*
X140966515Y-89535790D01*
X140966515Y-89535790D02*
X141004610Y-89497695D01*
X141004610Y-89497695D02*
X141004610Y-89573885D01*
X140280801Y-90259600D02*
X140356992Y-90297695D01*
X140356992Y-90297695D02*
X140509373Y-90297695D01*
X140509373Y-90297695D02*
X140585563Y-90259600D01*
X140585563Y-90259600D02*
X140623658Y-90221504D01*
X140623658Y-90221504D02*
X140661754Y-90145314D01*
X140661754Y-90145314D02*
X140661754Y-89916742D01*
X140661754Y-89916742D02*
X140623658Y-89840552D01*
X140623658Y-89840552D02*
X140585563Y-89802457D01*
X140585563Y-89802457D02*
X140509373Y-89764361D01*
X140509373Y-89764361D02*
X140356992Y-89764361D01*
X140356992Y-89764361D02*
X140280801Y-89802457D01*
X139937944Y-90297695D02*
X139937944Y-89497695D01*
X139861754Y-89992933D02*
X139633182Y-90297695D01*
X139633182Y-89764361D02*
X139937944Y-90069123D01*
X139290325Y-90221504D02*
X139252230Y-90259600D01*
X139252230Y-90259600D02*
X139290325Y-90297695D01*
X139290325Y-90297695D02*
X139328421Y-90259600D01*
X139328421Y-90259600D02*
X139290325Y-90221504D01*
X139290325Y-90221504D02*
X139290325Y-90297695D01*
X138566516Y-90259600D02*
X138642707Y-90297695D01*
X138642707Y-90297695D02*
X138795088Y-90297695D01*
X138795088Y-90297695D02*
X138871278Y-90259600D01*
X138871278Y-90259600D02*
X138909373Y-90221504D01*
X138909373Y-90221504D02*
X138947469Y-90145314D01*
X138947469Y-90145314D02*
X138947469Y-89916742D01*
X138947469Y-89916742D02*
X138909373Y-89840552D01*
X138909373Y-89840552D02*
X138871278Y-89802457D01*
X138871278Y-89802457D02*
X138795088Y-89764361D01*
X138795088Y-89764361D02*
X138642707Y-89764361D01*
X138642707Y-89764361D02*
X138566516Y-89802457D01*
X138109374Y-90297695D02*
X138185564Y-90259600D01*
X138185564Y-90259600D02*
X138223659Y-90221504D01*
X138223659Y-90221504D02*
X138261755Y-90145314D01*
X138261755Y-90145314D02*
X138261755Y-89916742D01*
X138261755Y-89916742D02*
X138223659Y-89840552D01*
X138223659Y-89840552D02*
X138185564Y-89802457D01*
X138185564Y-89802457D02*
X138109374Y-89764361D01*
X138109374Y-89764361D02*
X137995088Y-89764361D01*
X137995088Y-89764361D02*
X137918897Y-89802457D01*
X137918897Y-89802457D02*
X137880802Y-89840552D01*
X137880802Y-89840552D02*
X137842707Y-89916742D01*
X137842707Y-89916742D02*
X137842707Y-90145314D01*
X137842707Y-90145314D02*
X137880802Y-90221504D01*
X137880802Y-90221504D02*
X137918897Y-90259600D01*
X137918897Y-90259600D02*
X137995088Y-90297695D01*
X137995088Y-90297695D02*
X138109374Y-90297695D01*
X137499849Y-90297695D02*
X137499849Y-89764361D01*
X137499849Y-89840552D02*
X137461754Y-89802457D01*
X137461754Y-89802457D02*
X137385564Y-89764361D01*
X137385564Y-89764361D02*
X137271278Y-89764361D01*
X137271278Y-89764361D02*
X137195087Y-89802457D01*
X137195087Y-89802457D02*
X137156992Y-89878647D01*
X137156992Y-89878647D02*
X137156992Y-90297695D01*
X137156992Y-89878647D02*
X137118897Y-89802457D01*
X137118897Y-89802457D02*
X137042706Y-89764361D01*
X137042706Y-89764361D02*
X136928421Y-89764361D01*
X136928421Y-89764361D02*
X136852230Y-89802457D01*
X136852230Y-89802457D02*
X136814135Y-89878647D01*
X136814135Y-89878647D02*
X136814135Y-90297695D01*
X149614136Y-91052361D02*
X149423660Y-91585695D01*
X149423660Y-91585695D02*
X149233183Y-91052361D01*
X148776040Y-90785695D02*
X148699850Y-90785695D01*
X148699850Y-90785695D02*
X148623659Y-90823790D01*
X148623659Y-90823790D02*
X148585564Y-90861885D01*
X148585564Y-90861885D02*
X148547469Y-90938076D01*
X148547469Y-90938076D02*
X148509374Y-91090457D01*
X148509374Y-91090457D02*
X148509374Y-91280933D01*
X148509374Y-91280933D02*
X148547469Y-91433314D01*
X148547469Y-91433314D02*
X148585564Y-91509504D01*
X148585564Y-91509504D02*
X148623659Y-91547600D01*
X148623659Y-91547600D02*
X148699850Y-91585695D01*
X148699850Y-91585695D02*
X148776040Y-91585695D01*
X148776040Y-91585695D02*
X148852231Y-91547600D01*
X148852231Y-91547600D02*
X148890326Y-91509504D01*
X148890326Y-91509504D02*
X148928421Y-91433314D01*
X148928421Y-91433314D02*
X148966517Y-91280933D01*
X148966517Y-91280933D02*
X148966517Y-91090457D01*
X148966517Y-91090457D02*
X148928421Y-90938076D01*
X148928421Y-90938076D02*
X148890326Y-90861885D01*
X148890326Y-90861885D02*
X148852231Y-90823790D01*
X148852231Y-90823790D02*
X148776040Y-90785695D01*
X148166516Y-91509504D02*
X148128421Y-91547600D01*
X148128421Y-91547600D02*
X148166516Y-91585695D01*
X148166516Y-91585695D02*
X148204612Y-91547600D01*
X148204612Y-91547600D02*
X148166516Y-91509504D01*
X148166516Y-91509504D02*
X148166516Y-91585695D01*
X147366517Y-91585695D02*
X147823660Y-91585695D01*
X147595088Y-91585695D02*
X147595088Y-90785695D01*
X147595088Y-90785695D02*
X147671279Y-90899980D01*
X147671279Y-90899980D02*
X147747469Y-90976171D01*
X147747469Y-90976171D02*
X147823660Y-91014266D01*
X146452231Y-90861885D02*
X146414135Y-90823790D01*
X146414135Y-90823790D02*
X146337945Y-90785695D01*
X146337945Y-90785695D02*
X146147469Y-90785695D01*
X146147469Y-90785695D02*
X146071278Y-90823790D01*
X146071278Y-90823790D02*
X146033183Y-90861885D01*
X146033183Y-90861885D02*
X145995088Y-90938076D01*
X145995088Y-90938076D02*
X145995088Y-91014266D01*
X145995088Y-91014266D02*
X146033183Y-91128552D01*
X146033183Y-91128552D02*
X146490326Y-91585695D01*
X146490326Y-91585695D02*
X145995088Y-91585695D01*
X145614135Y-91585695D02*
X145461754Y-91585695D01*
X145461754Y-91585695D02*
X145385564Y-91547600D01*
X145385564Y-91547600D02*
X145347468Y-91509504D01*
X145347468Y-91509504D02*
X145271278Y-91395219D01*
X145271278Y-91395219D02*
X145233183Y-91242838D01*
X145233183Y-91242838D02*
X145233183Y-90938076D01*
X145233183Y-90938076D02*
X145271278Y-90861885D01*
X145271278Y-90861885D02*
X145309373Y-90823790D01*
X145309373Y-90823790D02*
X145385564Y-90785695D01*
X145385564Y-90785695D02*
X145537945Y-90785695D01*
X145537945Y-90785695D02*
X145614135Y-90823790D01*
X145614135Y-90823790D02*
X145652230Y-90861885D01*
X145652230Y-90861885D02*
X145690326Y-90938076D01*
X145690326Y-90938076D02*
X145690326Y-91128552D01*
X145690326Y-91128552D02*
X145652230Y-91204742D01*
X145652230Y-91204742D02*
X145614135Y-91242838D01*
X145614135Y-91242838D02*
X145537945Y-91280933D01*
X145537945Y-91280933D02*
X145385564Y-91280933D01*
X145385564Y-91280933D02*
X145309373Y-91242838D01*
X145309373Y-91242838D02*
X145271278Y-91204742D01*
X145271278Y-91204742D02*
X145233183Y-91128552D01*
X144318897Y-90747600D02*
X145004611Y-91776171D01*
X143899849Y-90785695D02*
X143823659Y-90785695D01*
X143823659Y-90785695D02*
X143747468Y-90823790D01*
X143747468Y-90823790D02*
X143709373Y-90861885D01*
X143709373Y-90861885D02*
X143671278Y-90938076D01*
X143671278Y-90938076D02*
X143633183Y-91090457D01*
X143633183Y-91090457D02*
X143633183Y-91280933D01*
X143633183Y-91280933D02*
X143671278Y-91433314D01*
X143671278Y-91433314D02*
X143709373Y-91509504D01*
X143709373Y-91509504D02*
X143747468Y-91547600D01*
X143747468Y-91547600D02*
X143823659Y-91585695D01*
X143823659Y-91585695D02*
X143899849Y-91585695D01*
X143899849Y-91585695D02*
X143976040Y-91547600D01*
X143976040Y-91547600D02*
X144014135Y-91509504D01*
X144014135Y-91509504D02*
X144052230Y-91433314D01*
X144052230Y-91433314D02*
X144090326Y-91280933D01*
X144090326Y-91280933D02*
X144090326Y-91090457D01*
X144090326Y-91090457D02*
X144052230Y-90938076D01*
X144052230Y-90938076D02*
X144014135Y-90861885D01*
X144014135Y-90861885D02*
X143976040Y-90823790D01*
X143976040Y-90823790D02*
X143899849Y-90785695D01*
X143366516Y-90785695D02*
X142871278Y-90785695D01*
X142871278Y-90785695D02*
X143137944Y-91090457D01*
X143137944Y-91090457D02*
X143023659Y-91090457D01*
X143023659Y-91090457D02*
X142947468Y-91128552D01*
X142947468Y-91128552D02*
X142909373Y-91166647D01*
X142909373Y-91166647D02*
X142871278Y-91242838D01*
X142871278Y-91242838D02*
X142871278Y-91433314D01*
X142871278Y-91433314D02*
X142909373Y-91509504D01*
X142909373Y-91509504D02*
X142947468Y-91547600D01*
X142947468Y-91547600D02*
X143023659Y-91585695D01*
X143023659Y-91585695D02*
X143252230Y-91585695D01*
X143252230Y-91585695D02*
X143328421Y-91547600D01*
X143328421Y-91547600D02*
X143366516Y-91509504D01*
X141956992Y-90747600D02*
X142642706Y-91776171D01*
X141728421Y-90861885D02*
X141690325Y-90823790D01*
X141690325Y-90823790D02*
X141614135Y-90785695D01*
X141614135Y-90785695D02*
X141423659Y-90785695D01*
X141423659Y-90785695D02*
X141347468Y-90823790D01*
X141347468Y-90823790D02*
X141309373Y-90861885D01*
X141309373Y-90861885D02*
X141271278Y-90938076D01*
X141271278Y-90938076D02*
X141271278Y-91014266D01*
X141271278Y-91014266D02*
X141309373Y-91128552D01*
X141309373Y-91128552D02*
X141766516Y-91585695D01*
X141766516Y-91585695D02*
X141271278Y-91585695D01*
X140776039Y-90785695D02*
X140699849Y-90785695D01*
X140699849Y-90785695D02*
X140623658Y-90823790D01*
X140623658Y-90823790D02*
X140585563Y-90861885D01*
X140585563Y-90861885D02*
X140547468Y-90938076D01*
X140547468Y-90938076D02*
X140509373Y-91090457D01*
X140509373Y-91090457D02*
X140509373Y-91280933D01*
X140509373Y-91280933D02*
X140547468Y-91433314D01*
X140547468Y-91433314D02*
X140585563Y-91509504D01*
X140585563Y-91509504D02*
X140623658Y-91547600D01*
X140623658Y-91547600D02*
X140699849Y-91585695D01*
X140699849Y-91585695D02*
X140776039Y-91585695D01*
X140776039Y-91585695D02*
X140852230Y-91547600D01*
X140852230Y-91547600D02*
X140890325Y-91509504D01*
X140890325Y-91509504D02*
X140928420Y-91433314D01*
X140928420Y-91433314D02*
X140966516Y-91280933D01*
X140966516Y-91280933D02*
X140966516Y-91090457D01*
X140966516Y-91090457D02*
X140928420Y-90938076D01*
X140928420Y-90938076D02*
X140890325Y-90861885D01*
X140890325Y-90861885D02*
X140852230Y-90823790D01*
X140852230Y-90823790D02*
X140776039Y-90785695D01*
X140204611Y-90861885D02*
X140166515Y-90823790D01*
X140166515Y-90823790D02*
X140090325Y-90785695D01*
X140090325Y-90785695D02*
X139899849Y-90785695D01*
X139899849Y-90785695D02*
X139823658Y-90823790D01*
X139823658Y-90823790D02*
X139785563Y-90861885D01*
X139785563Y-90861885D02*
X139747468Y-90938076D01*
X139747468Y-90938076D02*
X139747468Y-91014266D01*
X139747468Y-91014266D02*
X139785563Y-91128552D01*
X139785563Y-91128552D02*
X140242706Y-91585695D01*
X140242706Y-91585695D02*
X139747468Y-91585695D01*
X139023658Y-90785695D02*
X139404610Y-90785695D01*
X139404610Y-90785695D02*
X139442706Y-91166647D01*
X139442706Y-91166647D02*
X139404610Y-91128552D01*
X139404610Y-91128552D02*
X139328420Y-91090457D01*
X139328420Y-91090457D02*
X139137944Y-91090457D01*
X139137944Y-91090457D02*
X139061753Y-91128552D01*
X139061753Y-91128552D02*
X139023658Y-91166647D01*
X139023658Y-91166647D02*
X138985563Y-91242838D01*
X138985563Y-91242838D02*
X138985563Y-91433314D01*
X138985563Y-91433314D02*
X139023658Y-91509504D01*
X139023658Y-91509504D02*
X139061753Y-91547600D01*
X139061753Y-91547600D02*
X139137944Y-91585695D01*
X139137944Y-91585695D02*
X139328420Y-91585695D01*
X139328420Y-91585695D02*
X139404610Y-91547600D01*
X139404610Y-91547600D02*
X139442706Y-91509504D01*
X137521600Y-108487958D02*
X137559695Y-108602244D01*
X137559695Y-108602244D02*
X137559695Y-108792720D01*
X137559695Y-108792720D02*
X137521600Y-108868911D01*
X137521600Y-108868911D02*
X137483504Y-108907006D01*
X137483504Y-108907006D02*
X137407314Y-108945101D01*
X137407314Y-108945101D02*
X137331123Y-108945101D01*
X137331123Y-108945101D02*
X137254933Y-108907006D01*
X137254933Y-108907006D02*
X137216838Y-108868911D01*
X137216838Y-108868911D02*
X137178742Y-108792720D01*
X137178742Y-108792720D02*
X137140647Y-108640339D01*
X137140647Y-108640339D02*
X137102552Y-108564149D01*
X137102552Y-108564149D02*
X137064457Y-108526054D01*
X137064457Y-108526054D02*
X136988266Y-108487958D01*
X136988266Y-108487958D02*
X136912076Y-108487958D01*
X136912076Y-108487958D02*
X136835885Y-108526054D01*
X136835885Y-108526054D02*
X136797790Y-108564149D01*
X136797790Y-108564149D02*
X136759695Y-108640339D01*
X136759695Y-108640339D02*
X136759695Y-108830816D01*
X136759695Y-108830816D02*
X136797790Y-108945101D01*
X137483504Y-109745102D02*
X137521600Y-109707006D01*
X137521600Y-109707006D02*
X137559695Y-109592721D01*
X137559695Y-109592721D02*
X137559695Y-109516530D01*
X137559695Y-109516530D02*
X137521600Y-109402244D01*
X137521600Y-109402244D02*
X137445409Y-109326054D01*
X137445409Y-109326054D02*
X137369219Y-109287959D01*
X137369219Y-109287959D02*
X137216838Y-109249863D01*
X137216838Y-109249863D02*
X137102552Y-109249863D01*
X137102552Y-109249863D02*
X136950171Y-109287959D01*
X136950171Y-109287959D02*
X136873980Y-109326054D01*
X136873980Y-109326054D02*
X136797790Y-109402244D01*
X136797790Y-109402244D02*
X136759695Y-109516530D01*
X136759695Y-109516530D02*
X136759695Y-109592721D01*
X136759695Y-109592721D02*
X136797790Y-109707006D01*
X136797790Y-109707006D02*
X136835885Y-109745102D01*
X137559695Y-110087959D02*
X136759695Y-110087959D01*
X137559695Y-110545102D02*
X137102552Y-110202244D01*
X136759695Y-110545102D02*
X137216838Y-110087959D01*
X142639695Y-108018054D02*
X141839695Y-108018054D01*
X141839695Y-108018054D02*
X142411123Y-108284720D01*
X142411123Y-108284720D02*
X141839695Y-108551387D01*
X141839695Y-108551387D02*
X142639695Y-108551387D01*
X142639695Y-108932340D02*
X141839695Y-108932340D01*
X142601600Y-109275196D02*
X142639695Y-109389482D01*
X142639695Y-109389482D02*
X142639695Y-109579958D01*
X142639695Y-109579958D02*
X142601600Y-109656149D01*
X142601600Y-109656149D02*
X142563504Y-109694244D01*
X142563504Y-109694244D02*
X142487314Y-109732339D01*
X142487314Y-109732339D02*
X142411123Y-109732339D01*
X142411123Y-109732339D02*
X142334933Y-109694244D01*
X142334933Y-109694244D02*
X142296838Y-109656149D01*
X142296838Y-109656149D02*
X142258742Y-109579958D01*
X142258742Y-109579958D02*
X142220647Y-109427577D01*
X142220647Y-109427577D02*
X142182552Y-109351387D01*
X142182552Y-109351387D02*
X142144457Y-109313292D01*
X142144457Y-109313292D02*
X142068266Y-109275196D01*
X142068266Y-109275196D02*
X141992076Y-109275196D01*
X141992076Y-109275196D02*
X141915885Y-109313292D01*
X141915885Y-109313292D02*
X141877790Y-109351387D01*
X141877790Y-109351387D02*
X141839695Y-109427577D01*
X141839695Y-109427577D02*
X141839695Y-109618054D01*
X141839695Y-109618054D02*
X141877790Y-109732339D01*
X141839695Y-110227578D02*
X141839695Y-110379959D01*
X141839695Y-110379959D02*
X141877790Y-110456149D01*
X141877790Y-110456149D02*
X141953980Y-110532340D01*
X141953980Y-110532340D02*
X142106361Y-110570435D01*
X142106361Y-110570435D02*
X142373028Y-110570435D01*
X142373028Y-110570435D02*
X142525409Y-110532340D01*
X142525409Y-110532340D02*
X142601600Y-110456149D01*
X142601600Y-110456149D02*
X142639695Y-110379959D01*
X142639695Y-110379959D02*
X142639695Y-110227578D01*
X142639695Y-110227578D02*
X142601600Y-110151387D01*
X142601600Y-110151387D02*
X142525409Y-110075197D01*
X142525409Y-110075197D02*
X142373028Y-110037101D01*
X142373028Y-110037101D02*
X142106361Y-110037101D01*
X142106361Y-110037101D02*
X141953980Y-110075197D01*
X141953980Y-110075197D02*
X141877790Y-110151387D01*
X141877790Y-110151387D02*
X141839695Y-110227578D01*
X129459279Y-95738647D02*
X129725945Y-95738647D01*
X129725945Y-96157695D02*
X129725945Y-95357695D01*
X129725945Y-95357695D02*
X129344993Y-95357695D01*
X128887850Y-95357695D02*
X128735469Y-95357695D01*
X128735469Y-95357695D02*
X128659279Y-95395790D01*
X128659279Y-95395790D02*
X128583088Y-95471980D01*
X128583088Y-95471980D02*
X128544993Y-95624361D01*
X128544993Y-95624361D02*
X128544993Y-95891028D01*
X128544993Y-95891028D02*
X128583088Y-96043409D01*
X128583088Y-96043409D02*
X128659279Y-96119600D01*
X128659279Y-96119600D02*
X128735469Y-96157695D01*
X128735469Y-96157695D02*
X128887850Y-96157695D01*
X128887850Y-96157695D02*
X128964041Y-96119600D01*
X128964041Y-96119600D02*
X129040231Y-96043409D01*
X129040231Y-96043409D02*
X129078327Y-95891028D01*
X129078327Y-95891028D02*
X129078327Y-95624361D01*
X129078327Y-95624361D02*
X129040231Y-95471980D01*
X129040231Y-95471980D02*
X128964041Y-95395790D01*
X128964041Y-95395790D02*
X128887850Y-95357695D01*
X128202136Y-95357695D02*
X128202136Y-96005314D01*
X128202136Y-96005314D02*
X128164041Y-96081504D01*
X128164041Y-96081504D02*
X128125946Y-96119600D01*
X128125946Y-96119600D02*
X128049755Y-96157695D01*
X128049755Y-96157695D02*
X127897374Y-96157695D01*
X127897374Y-96157695D02*
X127821184Y-96119600D01*
X127821184Y-96119600D02*
X127783089Y-96081504D01*
X127783089Y-96081504D02*
X127744993Y-96005314D01*
X127744993Y-96005314D02*
X127744993Y-95357695D01*
X127478327Y-95357695D02*
X127021184Y-95357695D01*
X127249756Y-96157695D02*
X127249756Y-95357695D01*
X126335470Y-96157695D02*
X126792613Y-96157695D01*
X126564041Y-96157695D02*
X126564041Y-95357695D01*
X126564041Y-95357695D02*
X126640232Y-95471980D01*
X126640232Y-95471980D02*
X126716422Y-95548171D01*
X126716422Y-95548171D02*
X126792613Y-95586266D01*
X150259695Y-109034054D02*
X149459695Y-109034054D01*
X150031123Y-109376910D02*
X150031123Y-109757863D01*
X150259695Y-109300720D02*
X149459695Y-109567387D01*
X149459695Y-109567387D02*
X150259695Y-109834053D01*
X150259695Y-110100720D02*
X149459695Y-110100720D01*
X149459695Y-110100720D02*
X150259695Y-110557863D01*
X150259695Y-110557863D02*
X149459695Y-110557863D01*
X154577790Y-108945101D02*
X154539695Y-108868911D01*
X154539695Y-108868911D02*
X154539695Y-108754625D01*
X154539695Y-108754625D02*
X154577790Y-108640339D01*
X154577790Y-108640339D02*
X154653980Y-108564149D01*
X154653980Y-108564149D02*
X154730171Y-108526054D01*
X154730171Y-108526054D02*
X154882552Y-108487958D01*
X154882552Y-108487958D02*
X154996838Y-108487958D01*
X154996838Y-108487958D02*
X155149219Y-108526054D01*
X155149219Y-108526054D02*
X155225409Y-108564149D01*
X155225409Y-108564149D02*
X155301600Y-108640339D01*
X155301600Y-108640339D02*
X155339695Y-108754625D01*
X155339695Y-108754625D02*
X155339695Y-108830816D01*
X155339695Y-108830816D02*
X155301600Y-108945101D01*
X155301600Y-108945101D02*
X155263504Y-108983197D01*
X155263504Y-108983197D02*
X154996838Y-108983197D01*
X154996838Y-108983197D02*
X154996838Y-108830816D01*
X155339695Y-109326054D02*
X154539695Y-109326054D01*
X154539695Y-109326054D02*
X155339695Y-109783197D01*
X155339695Y-109783197D02*
X154539695Y-109783197D01*
X155339695Y-110164149D02*
X154539695Y-110164149D01*
X154539695Y-110164149D02*
X154539695Y-110354625D01*
X154539695Y-110354625D02*
X154577790Y-110468911D01*
X154577790Y-110468911D02*
X154653980Y-110545101D01*
X154653980Y-110545101D02*
X154730171Y-110583196D01*
X154730171Y-110583196D02*
X154882552Y-110621292D01*
X154882552Y-110621292D02*
X154996838Y-110621292D01*
X154996838Y-110621292D02*
X155149219Y-110583196D01*
X155149219Y-110583196D02*
X155225409Y-110545101D01*
X155225409Y-110545101D02*
X155301600Y-110468911D01*
X155301600Y-110468911D02*
X155339695Y-110354625D01*
X155339695Y-110354625D02*
X155339695Y-110164149D01*
X131679695Y-108665768D02*
X132479695Y-108932435D01*
X132479695Y-108932435D02*
X131679695Y-109199101D01*
X132479695Y-109465768D02*
X131679695Y-109465768D01*
X132479695Y-109846720D02*
X131679695Y-109846720D01*
X131679695Y-109846720D02*
X132479695Y-110303863D01*
X132479695Y-110303863D02*
X131679695Y-110303863D01*
X134943504Y-109237197D02*
X134981600Y-109199101D01*
X134981600Y-109199101D02*
X135019695Y-109084816D01*
X135019695Y-109084816D02*
X135019695Y-109008625D01*
X135019695Y-109008625D02*
X134981600Y-108894339D01*
X134981600Y-108894339D02*
X134905409Y-108818149D01*
X134905409Y-108818149D02*
X134829219Y-108780054D01*
X134829219Y-108780054D02*
X134676838Y-108741958D01*
X134676838Y-108741958D02*
X134562552Y-108741958D01*
X134562552Y-108741958D02*
X134410171Y-108780054D01*
X134410171Y-108780054D02*
X134333980Y-108818149D01*
X134333980Y-108818149D02*
X134257790Y-108894339D01*
X134257790Y-108894339D02*
X134219695Y-109008625D01*
X134219695Y-109008625D02*
X134219695Y-109084816D01*
X134219695Y-109084816D02*
X134257790Y-109199101D01*
X134257790Y-109199101D02*
X134295885Y-109237197D01*
X134981600Y-109541958D02*
X135019695Y-109656244D01*
X135019695Y-109656244D02*
X135019695Y-109846720D01*
X135019695Y-109846720D02*
X134981600Y-109922911D01*
X134981600Y-109922911D02*
X134943504Y-109961006D01*
X134943504Y-109961006D02*
X134867314Y-109999101D01*
X134867314Y-109999101D02*
X134791123Y-109999101D01*
X134791123Y-109999101D02*
X134714933Y-109961006D01*
X134714933Y-109961006D02*
X134676838Y-109922911D01*
X134676838Y-109922911D02*
X134638742Y-109846720D01*
X134638742Y-109846720D02*
X134600647Y-109694339D01*
X134600647Y-109694339D02*
X134562552Y-109618149D01*
X134562552Y-109618149D02*
X134524457Y-109580054D01*
X134524457Y-109580054D02*
X134448266Y-109541958D01*
X134448266Y-109541958D02*
X134372076Y-109541958D01*
X134372076Y-109541958D02*
X134295885Y-109580054D01*
X134295885Y-109580054D02*
X134257790Y-109618149D01*
X134257790Y-109618149D02*
X134219695Y-109694339D01*
X134219695Y-109694339D02*
X134219695Y-109884816D01*
X134219695Y-109884816D02*
X134257790Y-109999101D01*
X133997600Y-108669578D02*
X133997600Y-110071483D01*
X129459279Y-91928647D02*
X129725945Y-91928647D01*
X129725945Y-92347695D02*
X129725945Y-91547695D01*
X129725945Y-91547695D02*
X129344993Y-91547695D01*
X128887850Y-91547695D02*
X128735469Y-91547695D01*
X128735469Y-91547695D02*
X128659279Y-91585790D01*
X128659279Y-91585790D02*
X128583088Y-91661980D01*
X128583088Y-91661980D02*
X128544993Y-91814361D01*
X128544993Y-91814361D02*
X128544993Y-92081028D01*
X128544993Y-92081028D02*
X128583088Y-92233409D01*
X128583088Y-92233409D02*
X128659279Y-92309600D01*
X128659279Y-92309600D02*
X128735469Y-92347695D01*
X128735469Y-92347695D02*
X128887850Y-92347695D01*
X128887850Y-92347695D02*
X128964041Y-92309600D01*
X128964041Y-92309600D02*
X129040231Y-92233409D01*
X129040231Y-92233409D02*
X129078327Y-92081028D01*
X129078327Y-92081028D02*
X129078327Y-91814361D01*
X129078327Y-91814361D02*
X129040231Y-91661980D01*
X129040231Y-91661980D02*
X128964041Y-91585790D01*
X128964041Y-91585790D02*
X128887850Y-91547695D01*
X128202136Y-91547695D02*
X128202136Y-92195314D01*
X128202136Y-92195314D02*
X128164041Y-92271504D01*
X128164041Y-92271504D02*
X128125946Y-92309600D01*
X128125946Y-92309600D02*
X128049755Y-92347695D01*
X128049755Y-92347695D02*
X127897374Y-92347695D01*
X127897374Y-92347695D02*
X127821184Y-92309600D01*
X127821184Y-92309600D02*
X127783089Y-92271504D01*
X127783089Y-92271504D02*
X127744993Y-92195314D01*
X127744993Y-92195314D02*
X127744993Y-91547695D01*
X127478327Y-91547695D02*
X127021184Y-91547695D01*
X127249756Y-92347695D02*
X127249756Y-91547695D01*
X126602136Y-91547695D02*
X126525946Y-91547695D01*
X126525946Y-91547695D02*
X126449755Y-91585790D01*
X126449755Y-91585790D02*
X126411660Y-91623885D01*
X126411660Y-91623885D02*
X126373565Y-91700076D01*
X126373565Y-91700076D02*
X126335470Y-91852457D01*
X126335470Y-91852457D02*
X126335470Y-92042933D01*
X126335470Y-92042933D02*
X126373565Y-92195314D01*
X126373565Y-92195314D02*
X126411660Y-92271504D01*
X126411660Y-92271504D02*
X126449755Y-92309600D01*
X126449755Y-92309600D02*
X126525946Y-92347695D01*
X126525946Y-92347695D02*
X126602136Y-92347695D01*
X126602136Y-92347695D02*
X126678327Y-92309600D01*
X126678327Y-92309600D02*
X126716422Y-92271504D01*
X126716422Y-92271504D02*
X126754517Y-92195314D01*
X126754517Y-92195314D02*
X126792613Y-92042933D01*
X126792613Y-92042933D02*
X126792613Y-91852457D01*
X126792613Y-91852457D02*
X126754517Y-91700076D01*
X126754517Y-91700076D02*
X126716422Y-91623885D01*
X126716422Y-91623885D02*
X126678327Y-91585790D01*
X126678327Y-91585790D02*
X126602136Y-91547695D01*
X146919695Y-109288054D02*
X147567314Y-109288054D01*
X147567314Y-109288054D02*
X147643504Y-109326149D01*
X147643504Y-109326149D02*
X147681600Y-109364244D01*
X147681600Y-109364244D02*
X147719695Y-109440435D01*
X147719695Y-109440435D02*
X147719695Y-109592816D01*
X147719695Y-109592816D02*
X147681600Y-109669006D01*
X147681600Y-109669006D02*
X147643504Y-109707101D01*
X147643504Y-109707101D02*
X147567314Y-109745197D01*
X147567314Y-109745197D02*
X146919695Y-109745197D01*
X147719695Y-110126149D02*
X146919695Y-110126149D01*
X146919695Y-110126149D02*
X147719695Y-110583292D01*
X147719695Y-110583292D02*
X146919695Y-110583292D01*
X129725945Y-99713695D02*
X129725945Y-98913695D01*
X129725945Y-99294647D02*
X129268802Y-99294647D01*
X129268802Y-99713695D02*
X129268802Y-98913695D01*
X128621184Y-99294647D02*
X128887850Y-99294647D01*
X128887850Y-99713695D02*
X128887850Y-98913695D01*
X128887850Y-98913695D02*
X128506898Y-98913695D01*
X128049755Y-98913695D02*
X127897374Y-98913695D01*
X127897374Y-98913695D02*
X127821184Y-98951790D01*
X127821184Y-98951790D02*
X127744993Y-99027980D01*
X127744993Y-99027980D02*
X127706898Y-99180361D01*
X127706898Y-99180361D02*
X127706898Y-99447028D01*
X127706898Y-99447028D02*
X127744993Y-99599409D01*
X127744993Y-99599409D02*
X127821184Y-99675600D01*
X127821184Y-99675600D02*
X127897374Y-99713695D01*
X127897374Y-99713695D02*
X128049755Y-99713695D01*
X128049755Y-99713695D02*
X128125946Y-99675600D01*
X128125946Y-99675600D02*
X128202136Y-99599409D01*
X128202136Y-99599409D02*
X128240232Y-99447028D01*
X128240232Y-99447028D02*
X128240232Y-99180361D01*
X128240232Y-99180361D02*
X128202136Y-99027980D01*
X128202136Y-99027980D02*
X128125946Y-98951790D01*
X128125946Y-98951790D02*
X128049755Y-98913695D01*
X127364041Y-98913695D02*
X127364041Y-99561314D01*
X127364041Y-99561314D02*
X127325946Y-99637504D01*
X127325946Y-99637504D02*
X127287851Y-99675600D01*
X127287851Y-99675600D02*
X127211660Y-99713695D01*
X127211660Y-99713695D02*
X127059279Y-99713695D01*
X127059279Y-99713695D02*
X126983089Y-99675600D01*
X126983089Y-99675600D02*
X126944994Y-99637504D01*
X126944994Y-99637504D02*
X126906898Y-99561314D01*
X126906898Y-99561314D02*
X126906898Y-98913695D01*
X126640232Y-98913695D02*
X126183089Y-98913695D01*
X126411661Y-99713695D02*
X126411661Y-98913695D01*
X152799695Y-109034054D02*
X151999695Y-109034054D01*
X152571123Y-109376910D02*
X152571123Y-109757863D01*
X152799695Y-109300720D02*
X151999695Y-109567387D01*
X151999695Y-109567387D02*
X152799695Y-109834053D01*
X152799695Y-110100720D02*
X151999695Y-110100720D01*
X151999695Y-110100720D02*
X151999695Y-110405482D01*
X151999695Y-110405482D02*
X152037790Y-110481672D01*
X152037790Y-110481672D02*
X152075885Y-110519767D01*
X152075885Y-110519767D02*
X152152076Y-110557863D01*
X152152076Y-110557863D02*
X152266361Y-110557863D01*
X152266361Y-110557863D02*
X152342552Y-110519767D01*
X152342552Y-110519767D02*
X152380647Y-110481672D01*
X152380647Y-110481672D02*
X152418742Y-110405482D01*
X152418742Y-110405482D02*
X152418742Y-110100720D01*
D11*
%TO.C,TP4*%
X129018700Y-105586000D02*
X129018700Y-103686000D01*
X129018700Y-103686000D02*
X127118700Y-103686000D01*
X127118700Y-105586000D02*
X129018700Y-105586000D01*
X127118700Y-103686000D02*
X127118700Y-105586000D01*
%TO.C,TP1*%
X129018700Y-94936000D02*
X129018700Y-93036000D01*
X129018700Y-93036000D02*
X127118700Y-93036000D01*
X127118700Y-94936000D02*
X129018700Y-94936000D01*
X127118700Y-93036000D02*
X127118700Y-94936000D01*
%TO.C,JP1*%
X132634000Y-91930000D02*
X132034000Y-91930000D01*
X133834000Y-92480000D02*
X133834000Y-93080000D01*
X131334000Y-92580000D02*
X131334000Y-95380000D01*
X133534000Y-92780000D02*
X133834000Y-92480000D01*
X133534000Y-92780000D02*
X133834000Y-93080000D01*
X133334000Y-95380000D02*
X133334000Y-92580000D01*
X132034000Y-96030000D02*
X132634000Y-96030000D01*
X133334000Y-92630000D02*
G75*
G03*
X132634000Y-91930000I-699999J1D01*
G01*
X132034000Y-91930000D02*
G75*
G03*
X131334000Y-92630000I-1J-699999D01*
G01*
X132634000Y-96030000D02*
G75*
G03*
X133334000Y-95330000I0J700000D01*
G01*
X131334000Y-95330000D02*
G75*
G03*
X132034000Y-96030000I700000J0D01*
G01*
%TO.C,SYM1*%
D12*
X141391501Y-102956476D02*
X141472167Y-102986440D01*
X141505714Y-103008954D01*
X141539687Y-103041212D01*
X141563919Y-103082246D01*
X141580001Y-103138108D01*
X141589521Y-103214851D01*
X141594068Y-103318525D01*
X141595231Y-103455184D01*
X141595003Y-103525805D01*
X141593860Y-103622308D01*
X141591919Y-103699323D01*
X141589365Y-103750319D01*
X141586381Y-103768769D01*
X141566962Y-103762667D01*
X141527766Y-103746095D01*
X141526589Y-103745558D01*
X141506235Y-103734903D01*
X141492546Y-103720282D01*
X141484199Y-103694673D01*
X141479874Y-103651054D01*
X141478248Y-103582403D01*
X141478000Y-103481698D01*
X141477500Y-103417813D01*
X141472164Y-103297751D01*
X141459945Y-103209809D01*
X141439552Y-103149375D01*
X141409695Y-103111836D01*
X141369082Y-103092581D01*
X141363448Y-103091239D01*
X141287378Y-103090191D01*
X141228052Y-103124271D01*
X141187077Y-103192598D01*
X141179770Y-103212351D01*
X141163114Y-103256066D01*
X141154679Y-103276155D01*
X141137356Y-103273387D01*
X141099525Y-103258365D01*
X141064240Y-103233556D01*
X141048154Y-103186670D01*
X141052952Y-103153087D01*
X141082431Y-103084967D01*
X141130098Y-103021134D01*
X141185839Y-102976988D01*
X141209193Y-102966782D01*
X141297619Y-102949718D01*
X141391501Y-102956476D01*
G36*
X141391501Y-102956476D02*
G01*
X141472167Y-102986440D01*
X141505714Y-103008954D01*
X141539687Y-103041212D01*
X141563919Y-103082246D01*
X141580001Y-103138108D01*
X141589521Y-103214851D01*
X141594068Y-103318525D01*
X141595231Y-103455184D01*
X141595003Y-103525805D01*
X141593860Y-103622308D01*
X141591919Y-103699323D01*
X141589365Y-103750319D01*
X141586381Y-103768769D01*
X141566962Y-103762667D01*
X141527766Y-103746095D01*
X141526589Y-103745558D01*
X141506235Y-103734903D01*
X141492546Y-103720282D01*
X141484199Y-103694673D01*
X141479874Y-103651054D01*
X141478248Y-103582403D01*
X141478000Y-103481698D01*
X141477500Y-103417813D01*
X141472164Y-103297751D01*
X141459945Y-103209809D01*
X141439552Y-103149375D01*
X141409695Y-103111836D01*
X141369082Y-103092581D01*
X141363448Y-103091239D01*
X141287378Y-103090191D01*
X141228052Y-103124271D01*
X141187077Y-103192598D01*
X141179770Y-103212351D01*
X141163114Y-103256066D01*
X141154679Y-103276155D01*
X141137356Y-103273387D01*
X141099525Y-103258365D01*
X141064240Y-103233556D01*
X141048154Y-103186670D01*
X141052952Y-103153087D01*
X141082431Y-103084967D01*
X141130098Y-103021134D01*
X141185839Y-102976988D01*
X141209193Y-102966782D01*
X141297619Y-102949718D01*
X141391501Y-102956476D01*
G37*
X146706372Y-102911684D02*
X146797629Y-102954569D01*
X146872416Y-103028729D01*
X146887917Y-103051944D01*
X146900774Y-103078256D01*
X146909893Y-103111420D01*
X146916102Y-103157881D01*
X146920233Y-103224082D01*
X146923116Y-103316468D01*
X146925579Y-103441485D01*
X146931697Y-103788278D01*
X146880303Y-103768738D01*
X146833246Y-103750787D01*
X146798015Y-103733511D01*
X146775017Y-103711242D01*
X146761655Y-103677165D01*
X146755328Y-103624463D01*
X146753437Y-103546323D01*
X146753385Y-103435928D01*
X146753117Y-103347935D01*
X146751521Y-103263502D01*
X146747712Y-103205834D01*
X146740820Y-103167988D01*
X146729975Y-103143024D01*
X146714308Y-103124000D01*
X146675792Y-103097153D01*
X146611091Y-103087034D01*
X146547081Y-103112606D01*
X146542856Y-103115880D01*
X146529689Y-103131007D01*
X146519975Y-103155268D01*
X146512903Y-103194650D01*
X146507656Y-103255141D01*
X146503421Y-103342729D01*
X146499385Y-103463402D01*
X146489615Y-103786515D01*
X146323539Y-103712065D01*
X146323539Y-103417062D01*
X146323883Y-103336919D01*
X146326847Y-103225431D01*
X146334351Y-103142421D01*
X146348190Y-103081199D01*
X146370155Y-103035075D01*
X146402039Y-102997358D01*
X146445633Y-102961358D01*
X146508336Y-102925089D01*
X146607117Y-102901412D01*
X146706372Y-102911684D01*
G36*
X146706372Y-102911684D02*
G01*
X146797629Y-102954569D01*
X146872416Y-103028729D01*
X146887917Y-103051944D01*
X146900774Y-103078256D01*
X146909893Y-103111420D01*
X146916102Y-103157881D01*
X146920233Y-103224082D01*
X146923116Y-103316468D01*
X146925579Y-103441485D01*
X146931697Y-103788278D01*
X146880303Y-103768738D01*
X146833246Y-103750787D01*
X146798015Y-103733511D01*
X146775017Y-103711242D01*
X146761655Y-103677165D01*
X146755328Y-103624463D01*
X146753437Y-103546323D01*
X146753385Y-103435928D01*
X146753117Y-103347935D01*
X146751521Y-103263502D01*
X146747712Y-103205834D01*
X146740820Y-103167988D01*
X146729975Y-103143024D01*
X146714308Y-103124000D01*
X146675792Y-103097153D01*
X146611091Y-103087034D01*
X146547081Y-103112606D01*
X146542856Y-103115880D01*
X146529689Y-103131007D01*
X146519975Y-103155268D01*
X146512903Y-103194650D01*
X146507656Y-103255141D01*
X146503421Y-103342729D01*
X146499385Y-103463402D01*
X146489615Y-103786515D01*
X146323539Y-103712065D01*
X146323539Y-103417062D01*
X146323883Y-103336919D01*
X146326847Y-103225431D01*
X146334351Y-103142421D01*
X146348190Y-103081199D01*
X146370155Y-103035075D01*
X146402039Y-102997358D01*
X146445633Y-102961358D01*
X146508336Y-102925089D01*
X146607117Y-102901412D01*
X146706372Y-102911684D01*
G37*
X144251892Y-102977167D02*
X144258060Y-102980581D01*
X144308447Y-103019692D01*
X144353498Y-103069975D01*
X144361355Y-103081339D01*
X144376376Y-103107860D01*
X144387107Y-103139336D01*
X144394486Y-103182591D01*
X144399452Y-103244449D01*
X144402942Y-103331733D01*
X144405893Y-103451269D01*
X144406311Y-103471478D01*
X144407654Y-103602499D01*
X144405761Y-103695296D01*
X144400605Y-103750507D01*
X144392158Y-103768769D01*
X144366594Y-103763301D01*
X144323166Y-103746733D01*
X144312940Y-103741888D01*
X144296967Y-103730920D01*
X144285954Y-103712890D01*
X144278750Y-103681396D01*
X144274208Y-103630036D01*
X144271180Y-103552410D01*
X144268516Y-103442115D01*
X144267785Y-103409875D01*
X144264965Y-103308050D01*
X144261304Y-103236788D01*
X144255694Y-103189332D01*
X144247029Y-103158925D01*
X144234202Y-103138810D01*
X144216105Y-103122229D01*
X144162525Y-103093161D01*
X144096612Y-103087564D01*
X144037635Y-103109807D01*
X143995203Y-103155859D01*
X143978923Y-103221692D01*
X143978470Y-103239587D01*
X143969578Y-103271982D01*
X143943325Y-103276925D01*
X143891919Y-103257633D01*
X143880013Y-103251446D01*
X143847835Y-103215058D01*
X143847198Y-103160954D01*
X143877856Y-103086128D01*
X143905978Y-103045350D01*
X143977883Y-102987421D01*
X144066638Y-102954670D01*
X144161542Y-102950212D01*
X144251892Y-102977167D01*
G36*
X144251892Y-102977167D02*
G01*
X144258060Y-102980581D01*
X144308447Y-103019692D01*
X144353498Y-103069975D01*
X144361355Y-103081339D01*
X144376376Y-103107860D01*
X144387107Y-103139336D01*
X144394486Y-103182591D01*
X144399452Y-103244449D01*
X144402942Y-103331733D01*
X144405893Y-103451269D01*
X144406311Y-103471478D01*
X144407654Y-103602499D01*
X144405761Y-103695296D01*
X144400605Y-103750507D01*
X144392158Y-103768769D01*
X144366594Y-103763301D01*
X144323166Y-103746733D01*
X144312940Y-103741888D01*
X144296967Y-103730920D01*
X144285954Y-103712890D01*
X144278750Y-103681396D01*
X144274208Y-103630036D01*
X144271180Y-103552410D01*
X144268516Y-103442115D01*
X144267785Y-103409875D01*
X144264965Y-103308050D01*
X144261304Y-103236788D01*
X144255694Y-103189332D01*
X144247029Y-103158925D01*
X144234202Y-103138810D01*
X144216105Y-103122229D01*
X144162525Y-103093161D01*
X144096612Y-103087564D01*
X144037635Y-103109807D01*
X143995203Y-103155859D01*
X143978923Y-103221692D01*
X143978470Y-103239587D01*
X143969578Y-103271982D01*
X143943325Y-103276925D01*
X143891919Y-103257633D01*
X143880013Y-103251446D01*
X143847835Y-103215058D01*
X143847198Y-103160954D01*
X143877856Y-103086128D01*
X143905978Y-103045350D01*
X143977883Y-102987421D01*
X144066638Y-102954670D01*
X144161542Y-102950212D01*
X144251892Y-102977167D01*
G37*
X145756923Y-102711806D02*
X145756923Y-103246455D01*
X145756660Y-103385094D01*
X145755958Y-103509805D01*
X145754883Y-103615557D01*
X145753500Y-103697322D01*
X145751874Y-103750069D01*
X145750070Y-103768769D01*
X145749364Y-103768706D01*
X145725387Y-103761912D01*
X145681685Y-103747320D01*
X145620154Y-103725870D01*
X145620154Y-103450617D01*
X145619763Y-103342466D01*
X145617946Y-103264026D01*
X145613767Y-103210647D01*
X145606286Y-103175256D01*
X145594567Y-103150779D01*
X145577671Y-103130144D01*
X145566152Y-103119170D01*
X145503864Y-103088775D01*
X145435211Y-103091466D01*
X145372298Y-103127406D01*
X145363139Y-103136325D01*
X145348471Y-103154844D01*
X145338433Y-103179326D01*
X145332151Y-103216393D01*
X145328748Y-103272667D01*
X145327349Y-103354771D01*
X145327077Y-103469329D01*
X145326947Y-103527430D01*
X145326099Y-103622993D01*
X145324594Y-103699526D01*
X145322585Y-103750345D01*
X145320223Y-103768769D01*
X145319518Y-103768706D01*
X145295541Y-103761912D01*
X145251839Y-103747320D01*
X145190308Y-103725870D01*
X145190338Y-103449358D01*
X145190384Y-103424742D01*
X145192970Y-103296419D01*
X145200913Y-103199384D01*
X145216155Y-103127057D01*
X145240636Y-103072855D01*
X145276298Y-103030198D01*
X145325082Y-102992505D01*
X145372661Y-102968910D01*
X145448732Y-102950672D01*
X145523556Y-102949636D01*
X145581077Y-102967378D01*
X145585402Y-102969829D01*
X145598738Y-102969566D01*
X145607851Y-102949039D01*
X145614428Y-102901980D01*
X145620154Y-102822120D01*
X145629923Y-102658236D01*
X145756923Y-102711806D01*
G36*
X145756923Y-102711806D02*
G01*
X145756923Y-103246455D01*
X145756660Y-103385094D01*
X145755958Y-103509805D01*
X145754883Y-103615557D01*
X145753500Y-103697322D01*
X145751874Y-103750069D01*
X145750070Y-103768769D01*
X145749364Y-103768706D01*
X145725387Y-103761912D01*
X145681685Y-103747320D01*
X145620154Y-103725870D01*
X145620154Y-103450617D01*
X145619763Y-103342466D01*
X145617946Y-103264026D01*
X145613767Y-103210647D01*
X145606286Y-103175256D01*
X145594567Y-103150779D01*
X145577671Y-103130144D01*
X145566152Y-103119170D01*
X145503864Y-103088775D01*
X145435211Y-103091466D01*
X145372298Y-103127406D01*
X145363139Y-103136325D01*
X145348471Y-103154844D01*
X145338433Y-103179326D01*
X145332151Y-103216393D01*
X145328748Y-103272667D01*
X145327349Y-103354771D01*
X145327077Y-103469329D01*
X145326947Y-103527430D01*
X145326099Y-103622993D01*
X145324594Y-103699526D01*
X145322585Y-103750345D01*
X145320223Y-103768769D01*
X145319518Y-103768706D01*
X145295541Y-103761912D01*
X145251839Y-103747320D01*
X145190308Y-103725870D01*
X145190338Y-103449358D01*
X145190384Y-103424742D01*
X145192970Y-103296419D01*
X145200913Y-103199384D01*
X145216155Y-103127057D01*
X145240636Y-103072855D01*
X145276298Y-103030198D01*
X145325082Y-102992505D01*
X145372661Y-102968910D01*
X145448732Y-102950672D01*
X145523556Y-102949636D01*
X145581077Y-102967378D01*
X145585402Y-102969829D01*
X145598738Y-102969566D01*
X145607851Y-102949039D01*
X145614428Y-102901980D01*
X145620154Y-102822120D01*
X145629923Y-102658236D01*
X145756923Y-102711806D01*
G37*
X142967998Y-102954034D02*
X143010850Y-102970829D01*
X143060615Y-102993503D01*
X143060615Y-103648533D01*
X142998785Y-103710363D01*
X142984662Y-103724228D01*
X142945536Y-103755046D01*
X142906078Y-103765028D01*
X142847362Y-103760433D01*
X142823456Y-103757462D01*
X142761801Y-103751176D01*
X142718692Y-103748672D01*
X142705905Y-103749055D01*
X142653446Y-103753200D01*
X142590022Y-103760433D01*
X142569730Y-103762918D01*
X142518610Y-103763895D01*
X142481207Y-103748462D01*
X142438599Y-103710363D01*
X142376769Y-103648533D01*
X142376769Y-103298343D01*
X142377251Y-103194857D01*
X142378753Y-103096192D01*
X142381089Y-103018068D01*
X142384071Y-102966662D01*
X142387509Y-102948154D01*
X142388230Y-102948204D01*
X142413203Y-102957413D01*
X142455399Y-102977707D01*
X142512549Y-103007261D01*
X142517928Y-103314746D01*
X142523308Y-103622231D01*
X142640539Y-103622231D01*
X142645885Y-103285192D01*
X142647579Y-103193574D01*
X142650005Y-103095649D01*
X142652634Y-103017906D01*
X142655246Y-102966642D01*
X142657623Y-102948154D01*
X142658306Y-102948219D01*
X142681996Y-102955020D01*
X142725546Y-102969604D01*
X142787077Y-102991054D01*
X142787376Y-103287104D01*
X142787676Y-103338532D01*
X142789754Y-103438466D01*
X142793470Y-103521925D01*
X142798430Y-103581377D01*
X142804240Y-103609287D01*
X142825024Y-103624214D01*
X142867440Y-103628825D01*
X142914077Y-103622231D01*
X142919423Y-103285192D01*
X142921336Y-103199546D01*
X142925303Y-103098172D01*
X142930491Y-103018655D01*
X142936499Y-102966736D01*
X142942927Y-102948154D01*
X142967998Y-102954034D01*
G36*
X142967998Y-102954034D02*
G01*
X143010850Y-102970829D01*
X143060615Y-102993503D01*
X143060615Y-103648533D01*
X142998785Y-103710363D01*
X142984662Y-103724228D01*
X142945536Y-103755046D01*
X142906078Y-103765028D01*
X142847362Y-103760433D01*
X142823456Y-103757462D01*
X142761801Y-103751176D01*
X142718692Y-103748672D01*
X142705905Y-103749055D01*
X142653446Y-103753200D01*
X142590022Y-103760433D01*
X142569730Y-103762918D01*
X142518610Y-103763895D01*
X142481207Y-103748462D01*
X142438599Y-103710363D01*
X142376769Y-103648533D01*
X142376769Y-103298343D01*
X142377251Y-103194857D01*
X142378753Y-103096192D01*
X142381089Y-103018068D01*
X142384071Y-102966662D01*
X142387509Y-102948154D01*
X142388230Y-102948204D01*
X142413203Y-102957413D01*
X142455399Y-102977707D01*
X142512549Y-103007261D01*
X142517928Y-103314746D01*
X142523308Y-103622231D01*
X142640539Y-103622231D01*
X142645885Y-103285192D01*
X142647579Y-103193574D01*
X142650005Y-103095649D01*
X142652634Y-103017906D01*
X142655246Y-102966642D01*
X142657623Y-102948154D01*
X142658306Y-102948219D01*
X142681996Y-102955020D01*
X142725546Y-102969604D01*
X142787077Y-102991054D01*
X142787376Y-103287104D01*
X142787676Y-103338532D01*
X142789754Y-103438466D01*
X142793470Y-103521925D01*
X142798430Y-103581377D01*
X142804240Y-103609287D01*
X142825024Y-103624214D01*
X142867440Y-103628825D01*
X142914077Y-103622231D01*
X142919423Y-103285192D01*
X142921336Y-103199546D01*
X142925303Y-103098172D01*
X142930491Y-103018655D01*
X142936499Y-102966736D01*
X142942927Y-102948154D01*
X142967998Y-102954034D01*
G37*
X149176154Y-103338923D02*
X149176135Y-103360105D01*
X149175076Y-103454584D01*
X149171436Y-103520414D01*
X149163892Y-103566394D01*
X149151122Y-103601321D01*
X149131803Y-103633995D01*
X149127050Y-103640775D01*
X149076759Y-103694231D01*
X149019457Y-103734547D01*
X148990032Y-103747629D01*
X148884299Y-103769450D01*
X148779734Y-103755336D01*
X148683368Y-103707105D01*
X148602235Y-103626579D01*
X148595385Y-103615791D01*
X148573097Y-103553153D01*
X148558079Y-103465935D01*
X148550792Y-103365210D01*
X148551611Y-103272037D01*
X148748796Y-103272037D01*
X148750349Y-103401114D01*
X148750974Y-103409420D01*
X148760077Y-103480643D01*
X148776288Y-103525809D01*
X148803660Y-103556752D01*
X148849553Y-103585737D01*
X148894942Y-103587261D01*
X148941692Y-103553846D01*
X148949824Y-103545053D01*
X148965754Y-103518741D01*
X148975159Y-103480520D01*
X148979632Y-103421349D01*
X148980769Y-103332182D01*
X148978822Y-103248664D01*
X148969105Y-103169095D01*
X148949047Y-103118808D01*
X148916240Y-103092513D01*
X148868280Y-103084923D01*
X148850016Y-103086432D01*
X148798848Y-103114107D01*
X148765035Y-103176172D01*
X148748796Y-103272037D01*
X148551611Y-103272037D01*
X148551699Y-103262052D01*
X148561262Y-103167533D01*
X148579943Y-103092727D01*
X148603951Y-103042905D01*
X148671536Y-102965409D01*
X148763114Y-102917256D01*
X148875213Y-102900703D01*
X148905151Y-102901599D01*
X148993315Y-102919929D01*
X149065733Y-102966104D01*
X149132192Y-103045648D01*
X149136147Y-103051548D01*
X149154040Y-103083288D01*
X149165678Y-103119163D01*
X149172371Y-103167906D01*
X149175426Y-103238249D01*
X149176106Y-103332182D01*
X149176154Y-103338923D01*
G36*
X149176154Y-103338923D02*
G01*
X149176135Y-103360105D01*
X149175076Y-103454584D01*
X149171436Y-103520414D01*
X149163892Y-103566394D01*
X149151122Y-103601321D01*
X149131803Y-103633995D01*
X149127050Y-103640775D01*
X149076759Y-103694231D01*
X149019457Y-103734547D01*
X148990032Y-103747629D01*
X148884299Y-103769450D01*
X148779734Y-103755336D01*
X148683368Y-103707105D01*
X148602235Y-103626579D01*
X148595385Y-103615791D01*
X148573097Y-103553153D01*
X148558079Y-103465935D01*
X148550792Y-103365210D01*
X148551611Y-103272037D01*
X148748796Y-103272037D01*
X148750349Y-103401114D01*
X148750974Y-103409420D01*
X148760077Y-103480643D01*
X148776288Y-103525809D01*
X148803660Y-103556752D01*
X148849553Y-103585737D01*
X148894942Y-103587261D01*
X148941692Y-103553846D01*
X148949824Y-103545053D01*
X148965754Y-103518741D01*
X148975159Y-103480520D01*
X148979632Y-103421349D01*
X148980769Y-103332182D01*
X148978822Y-103248664D01*
X148969105Y-103169095D01*
X148949047Y-103118808D01*
X148916240Y-103092513D01*
X148868280Y-103084923D01*
X148850016Y-103086432D01*
X148798848Y-103114107D01*
X148765035Y-103176172D01*
X148748796Y-103272037D01*
X148551611Y-103272037D01*
X148551699Y-103262052D01*
X148561262Y-103167533D01*
X148579943Y-103092727D01*
X148603951Y-103042905D01*
X148671536Y-102965409D01*
X148763114Y-102917256D01*
X148875213Y-102900703D01*
X148905151Y-102901599D01*
X148993315Y-102919929D01*
X149065733Y-102966104D01*
X149132192Y-103045648D01*
X149136147Y-103051548D01*
X149154040Y-103083288D01*
X149165678Y-103119163D01*
X149172371Y-103167906D01*
X149175426Y-103238249D01*
X149176106Y-103332182D01*
X149176154Y-103338923D01*
G37*
X140930794Y-103362376D02*
X140930413Y-103414449D01*
X140925641Y-103517047D01*
X140913150Y-103592126D01*
X140890121Y-103647748D01*
X140853732Y-103691975D01*
X140801162Y-103732869D01*
X140767714Y-103751466D01*
X140714098Y-103763991D01*
X140638780Y-103763003D01*
X140596672Y-103759035D01*
X140545879Y-103746920D01*
X140505280Y-103720585D01*
X140458049Y-103671514D01*
X140451738Y-103664346D01*
X140409277Y-103609189D01*
X140389018Y-103561150D01*
X140383846Y-103504184D01*
X140383846Y-103420471D01*
X140442346Y-103442552D01*
X140484994Y-103468364D01*
X140522064Y-103528928D01*
X140529803Y-103548320D01*
X140573074Y-103603235D01*
X140631976Y-103630879D01*
X140696111Y-103628393D01*
X140755077Y-103592923D01*
X140775342Y-103570805D01*
X140793720Y-103537436D01*
X140787971Y-103507117D01*
X140754887Y-103475913D01*
X140691261Y-103439887D01*
X140593885Y-103395103D01*
X140393615Y-103307445D01*
X140388301Y-103220607D01*
X140390299Y-103165296D01*
X140520783Y-103165296D01*
X140530688Y-103199538D01*
X140575756Y-103236096D01*
X140657557Y-103277692D01*
X140671092Y-103283718D01*
X140735818Y-103311753D01*
X140784247Y-103331472D01*
X140806751Y-103338923D01*
X140810161Y-103333438D01*
X140811529Y-103299948D01*
X140806651Y-103246116D01*
X140794364Y-103193473D01*
X140756041Y-103127151D01*
X140700720Y-103089780D01*
X140634640Y-103084721D01*
X140564040Y-103115339D01*
X140544474Y-103130648D01*
X140520783Y-103165296D01*
X140390299Y-103165296D01*
X140390647Y-103155663D01*
X140420186Y-103073590D01*
X140457472Y-103028361D01*
X140534776Y-102977838D01*
X140626478Y-102952316D01*
X140721274Y-102954336D01*
X140807859Y-102986440D01*
X140826920Y-102998767D01*
X140870640Y-103036912D01*
X140900540Y-103085167D01*
X140918968Y-103150710D01*
X140928270Y-103240720D01*
X140929499Y-103299948D01*
X140930794Y-103362376D01*
G36*
X140930794Y-103362376D02*
G01*
X140930413Y-103414449D01*
X140925641Y-103517047D01*
X140913150Y-103592126D01*
X140890121Y-103647748D01*
X140853732Y-103691975D01*
X140801162Y-103732869D01*
X140767714Y-103751466D01*
X140714098Y-103763991D01*
X140638780Y-103763003D01*
X140596672Y-103759035D01*
X140545879Y-103746920D01*
X140505280Y-103720585D01*
X140458049Y-103671514D01*
X140451738Y-103664346D01*
X140409277Y-103609189D01*
X140389018Y-103561150D01*
X140383846Y-103504184D01*
X140383846Y-103420471D01*
X140442346Y-103442552D01*
X140484994Y-103468364D01*
X140522064Y-103528928D01*
X140529803Y-103548320D01*
X140573074Y-103603235D01*
X140631976Y-103630879D01*
X140696111Y-103628393D01*
X140755077Y-103592923D01*
X140775342Y-103570805D01*
X140793720Y-103537436D01*
X140787971Y-103507117D01*
X140754887Y-103475913D01*
X140691261Y-103439887D01*
X140593885Y-103395103D01*
X140393615Y-103307445D01*
X140388301Y-103220607D01*
X140390299Y-103165296D01*
X140520783Y-103165296D01*
X140530688Y-103199538D01*
X140575756Y-103236096D01*
X140657557Y-103277692D01*
X140671092Y-103283718D01*
X140735818Y-103311753D01*
X140784247Y-103331472D01*
X140806751Y-103338923D01*
X140810161Y-103333438D01*
X140811529Y-103299948D01*
X140806651Y-103246116D01*
X140794364Y-103193473D01*
X140756041Y-103127151D01*
X140700720Y-103089780D01*
X140634640Y-103084721D01*
X140564040Y-103115339D01*
X140544474Y-103130648D01*
X140520783Y-103165296D01*
X140390299Y-103165296D01*
X140390647Y-103155663D01*
X140420186Y-103073590D01*
X140457472Y-103028361D01*
X140534776Y-102977838D01*
X140626478Y-102952316D01*
X140721274Y-102954336D01*
X140807859Y-102986440D01*
X140826920Y-102998767D01*
X140870640Y-103036912D01*
X140900540Y-103085167D01*
X140918968Y-103150710D01*
X140928270Y-103240720D01*
X140929499Y-103299948D01*
X140930794Y-103362376D01*
G37*
X143744401Y-103358462D02*
X143742839Y-103434652D01*
X143731810Y-103538507D01*
X143707814Y-103616333D01*
X143668043Y-103675760D01*
X143609688Y-103724418D01*
X143554100Y-103752546D01*
X143460751Y-103768199D01*
X143367530Y-103751084D01*
X143283272Y-103703388D01*
X143216818Y-103627294D01*
X143208793Y-103613262D01*
X143198196Y-103588679D01*
X143190335Y-103557309D01*
X143184807Y-103513769D01*
X143181206Y-103452678D01*
X143179128Y-103368655D01*
X143179064Y-103361200D01*
X143314615Y-103361200D01*
X143315077Y-103432316D01*
X143317999Y-103496641D01*
X143325221Y-103538166D01*
X143338561Y-103566067D01*
X143359836Y-103589517D01*
X143364821Y-103594025D01*
X143428863Y-103627295D01*
X143496625Y-103623890D01*
X143559734Y-103584042D01*
X143578526Y-103563398D01*
X143594254Y-103536029D01*
X143603039Y-103498192D01*
X143606859Y-103440355D01*
X143607692Y-103352986D01*
X143607281Y-103286319D01*
X143604434Y-103221245D01*
X143597256Y-103179251D01*
X143583889Y-103151063D01*
X143562472Y-103127406D01*
X143549890Y-103116753D01*
X143484699Y-103088057D01*
X143416400Y-103092575D01*
X143357098Y-103130144D01*
X143344333Y-103145040D01*
X143328764Y-103173089D01*
X143319762Y-103212258D01*
X143315617Y-103271858D01*
X143314615Y-103361200D01*
X143179064Y-103361200D01*
X143178167Y-103256320D01*
X143177919Y-103110289D01*
X143177846Y-102656963D01*
X143241346Y-102683564D01*
X143258136Y-102690845D01*
X143284859Y-102707287D01*
X143300156Y-102732187D01*
X143308563Y-102775732D01*
X143314615Y-102848106D01*
X143320144Y-102913089D01*
X143327450Y-102955750D01*
X143337918Y-102971670D01*
X143353692Y-102967400D01*
X143393890Y-102952397D01*
X143465728Y-102948678D01*
X143543010Y-102962572D01*
X143609688Y-102992505D01*
X143646371Y-103020211D01*
X143693472Y-103074269D01*
X143723638Y-103143577D01*
X143739678Y-103235765D01*
X143744191Y-103352986D01*
X143744401Y-103358462D01*
G36*
X143744401Y-103358462D02*
G01*
X143742839Y-103434652D01*
X143731810Y-103538507D01*
X143707814Y-103616333D01*
X143668043Y-103675760D01*
X143609688Y-103724418D01*
X143554100Y-103752546D01*
X143460751Y-103768199D01*
X143367530Y-103751084D01*
X143283272Y-103703388D01*
X143216818Y-103627294D01*
X143208793Y-103613262D01*
X143198196Y-103588679D01*
X143190335Y-103557309D01*
X143184807Y-103513769D01*
X143181206Y-103452678D01*
X143179128Y-103368655D01*
X143179064Y-103361200D01*
X143314615Y-103361200D01*
X143315077Y-103432316D01*
X143317999Y-103496641D01*
X143325221Y-103538166D01*
X143338561Y-103566067D01*
X143359836Y-103589517D01*
X143364821Y-103594025D01*
X143428863Y-103627295D01*
X143496625Y-103623890D01*
X143559734Y-103584042D01*
X143578526Y-103563398D01*
X143594254Y-103536029D01*
X143603039Y-103498192D01*
X143606859Y-103440355D01*
X143607692Y-103352986D01*
X143607281Y-103286319D01*
X143604434Y-103221245D01*
X143597256Y-103179251D01*
X143583889Y-103151063D01*
X143562472Y-103127406D01*
X143549890Y-103116753D01*
X143484699Y-103088057D01*
X143416400Y-103092575D01*
X143357098Y-103130144D01*
X143344333Y-103145040D01*
X143328764Y-103173089D01*
X143319762Y-103212258D01*
X143315617Y-103271858D01*
X143314615Y-103361200D01*
X143179064Y-103361200D01*
X143178167Y-103256320D01*
X143177919Y-103110289D01*
X143177846Y-102656963D01*
X143241346Y-102683564D01*
X143258136Y-102690845D01*
X143284859Y-102707287D01*
X143300156Y-102732187D01*
X143308563Y-102775732D01*
X143314615Y-102848106D01*
X143320144Y-102913089D01*
X143327450Y-102955750D01*
X143337918Y-102971670D01*
X143353692Y-102967400D01*
X143393890Y-102952397D01*
X143465728Y-102948678D01*
X143543010Y-102962572D01*
X143609688Y-102992505D01*
X143646371Y-103020211D01*
X143693472Y-103074269D01*
X143723638Y-103143577D01*
X143739678Y-103235765D01*
X143744191Y-103352986D01*
X143744401Y-103358462D01*
G37*
X147690787Y-103283536D02*
X147684574Y-103431643D01*
X147681066Y-103463021D01*
X147654927Y-103574705D01*
X147607694Y-103659642D01*
X147535862Y-103724741D01*
X147531802Y-103727428D01*
X147440487Y-103765634D01*
X147345144Y-103769034D01*
X147253274Y-103739939D01*
X147172379Y-103680660D01*
X147109962Y-103593510D01*
X147108914Y-103591409D01*
X147088173Y-103537289D01*
X147072980Y-103475781D01*
X147064921Y-103418039D01*
X147065582Y-103375215D01*
X147076548Y-103358462D01*
X147086290Y-103359480D01*
X147132877Y-103378009D01*
X147185682Y-103412081D01*
X147230603Y-103451522D01*
X147253535Y-103486155D01*
X147277373Y-103533133D01*
X147326230Y-103575862D01*
X147382963Y-103592923D01*
X147403758Y-103587990D01*
X147444804Y-103563157D01*
X147480557Y-103528685D01*
X147495846Y-103497411D01*
X147495842Y-103497295D01*
X147478495Y-103482933D01*
X147432247Y-103457025D01*
X147364067Y-103423210D01*
X147280923Y-103385129D01*
X147280466Y-103384927D01*
X147190138Y-103344709D01*
X147129592Y-103315733D01*
X147092888Y-103293474D01*
X147074086Y-103273407D01*
X147067246Y-103251009D01*
X147066429Y-103221756D01*
X147072113Y-103166363D01*
X147265000Y-103166363D01*
X147284911Y-103183777D01*
X147334521Y-103209872D01*
X147335976Y-103210610D01*
X147394506Y-103238483D01*
X147446868Y-103260719D01*
X147480086Y-103270126D01*
X147493410Y-103257552D01*
X147495846Y-103214468D01*
X147485724Y-103160847D01*
X147450631Y-103112119D01*
X147399823Y-103086856D01*
X147343181Y-103089406D01*
X147290584Y-103124120D01*
X147269910Y-103148107D01*
X147265000Y-103166363D01*
X147072113Y-103166363D01*
X147073622Y-103151654D01*
X147109184Y-103056412D01*
X147168714Y-102981567D01*
X147245746Y-102929745D01*
X147333815Y-102903573D01*
X147426454Y-102905676D01*
X147517198Y-102938681D01*
X147599579Y-103005215D01*
X147645222Y-103071055D01*
X147678008Y-103165036D01*
X147683339Y-103214468D01*
X147690787Y-103283536D01*
G36*
X147690787Y-103283536D02*
G01*
X147684574Y-103431643D01*
X147681066Y-103463021D01*
X147654927Y-103574705D01*
X147607694Y-103659642D01*
X147535862Y-103724741D01*
X147531802Y-103727428D01*
X147440487Y-103765634D01*
X147345144Y-103769034D01*
X147253274Y-103739939D01*
X147172379Y-103680660D01*
X147109962Y-103593510D01*
X147108914Y-103591409D01*
X147088173Y-103537289D01*
X147072980Y-103475781D01*
X147064921Y-103418039D01*
X147065582Y-103375215D01*
X147076548Y-103358462D01*
X147086290Y-103359480D01*
X147132877Y-103378009D01*
X147185682Y-103412081D01*
X147230603Y-103451522D01*
X147253535Y-103486155D01*
X147277373Y-103533133D01*
X147326230Y-103575862D01*
X147382963Y-103592923D01*
X147403758Y-103587990D01*
X147444804Y-103563157D01*
X147480557Y-103528685D01*
X147495846Y-103497411D01*
X147495842Y-103497295D01*
X147478495Y-103482933D01*
X147432247Y-103457025D01*
X147364067Y-103423210D01*
X147280923Y-103385129D01*
X147280466Y-103384927D01*
X147190138Y-103344709D01*
X147129592Y-103315733D01*
X147092888Y-103293474D01*
X147074086Y-103273407D01*
X147067246Y-103251009D01*
X147066429Y-103221756D01*
X147072113Y-103166363D01*
X147265000Y-103166363D01*
X147284911Y-103183777D01*
X147334521Y-103209872D01*
X147335976Y-103210610D01*
X147394506Y-103238483D01*
X147446868Y-103260719D01*
X147480086Y-103270126D01*
X147493410Y-103257552D01*
X147495846Y-103214468D01*
X147485724Y-103160847D01*
X147450631Y-103112119D01*
X147399823Y-103086856D01*
X147343181Y-103089406D01*
X147290584Y-103124120D01*
X147269910Y-103148107D01*
X147265000Y-103166363D01*
X147072113Y-103166363D01*
X147073622Y-103151654D01*
X147109184Y-103056412D01*
X147168714Y-102981567D01*
X147245746Y-102929745D01*
X147333815Y-102903573D01*
X147426454Y-102905676D01*
X147517198Y-102938681D01*
X147599579Y-103005215D01*
X147645222Y-103071055D01*
X147678008Y-103165036D01*
X147683339Y-103214468D01*
X147690787Y-103283536D01*
G37*
X144900458Y-102969228D02*
X144967622Y-103008389D01*
X144997169Y-103038902D01*
X145053948Y-103130110D01*
X145073077Y-103229548D01*
X145073077Y-103297960D01*
X145010191Y-103271518D01*
X144966700Y-103244837D01*
X144932426Y-103189446D01*
X144928907Y-103178024D01*
X144891028Y-103119838D01*
X144833936Y-103088407D01*
X144768383Y-103087058D01*
X144705117Y-103119116D01*
X144695672Y-103127383D01*
X144664087Y-103163311D01*
X144658871Y-103194635D01*
X144682765Y-103225391D01*
X144738510Y-103259617D01*
X144828846Y-103301350D01*
X144834956Y-103303993D01*
X144935241Y-103350755D01*
X145003735Y-103392181D01*
X145045899Y-103433542D01*
X145067193Y-103480111D01*
X145073077Y-103537160D01*
X145065366Y-103600408D01*
X145026430Y-103681364D01*
X144957932Y-103739522D01*
X144908388Y-103756983D01*
X144838469Y-103766537D01*
X144770575Y-103764496D01*
X144722093Y-103750082D01*
X144716943Y-103746493D01*
X144703267Y-103721416D01*
X144712757Y-103677218D01*
X144729246Y-103642527D01*
X144755687Y-103628084D01*
X144805834Y-103628803D01*
X144875453Y-103624660D01*
X144920943Y-103596054D01*
X144936308Y-103543104D01*
X144936294Y-103541582D01*
X144926983Y-103510845D01*
X144895311Y-103482643D01*
X144833731Y-103450136D01*
X144749986Y-103410998D01*
X144694518Y-103389706D01*
X144662497Y-103391079D01*
X144647534Y-103419203D01*
X144643242Y-103478170D01*
X144643231Y-103572068D01*
X144642752Y-103630031D01*
X144640556Y-103701612D01*
X144636986Y-103750606D01*
X144632491Y-103768769D01*
X144631290Y-103768646D01*
X144605319Y-103758802D01*
X144562305Y-103738028D01*
X144502859Y-103707287D01*
X144509923Y-103430298D01*
X144510414Y-103411928D01*
X144516025Y-103282992D01*
X144525938Y-103185814D01*
X144542175Y-103113925D01*
X144566759Y-103060852D01*
X144601715Y-103020127D01*
X144649064Y-102985279D01*
X144649940Y-102984733D01*
X144726499Y-102956303D01*
X144815044Y-102951500D01*
X144900458Y-102969228D01*
G36*
X144900458Y-102969228D02*
G01*
X144967622Y-103008389D01*
X144997169Y-103038902D01*
X145053948Y-103130110D01*
X145073077Y-103229548D01*
X145073077Y-103297960D01*
X145010191Y-103271518D01*
X144966700Y-103244837D01*
X144932426Y-103189446D01*
X144928907Y-103178024D01*
X144891028Y-103119838D01*
X144833936Y-103088407D01*
X144768383Y-103087058D01*
X144705117Y-103119116D01*
X144695672Y-103127383D01*
X144664087Y-103163311D01*
X144658871Y-103194635D01*
X144682765Y-103225391D01*
X144738510Y-103259617D01*
X144828846Y-103301350D01*
X144834956Y-103303993D01*
X144935241Y-103350755D01*
X145003735Y-103392181D01*
X145045899Y-103433542D01*
X145067193Y-103480111D01*
X145073077Y-103537160D01*
X145065366Y-103600408D01*
X145026430Y-103681364D01*
X144957932Y-103739522D01*
X144908388Y-103756983D01*
X144838469Y-103766537D01*
X144770575Y-103764496D01*
X144722093Y-103750082D01*
X144716943Y-103746493D01*
X144703267Y-103721416D01*
X144712757Y-103677218D01*
X144729246Y-103642527D01*
X144755687Y-103628084D01*
X144805834Y-103628803D01*
X144875453Y-103624660D01*
X144920943Y-103596054D01*
X144936308Y-103543104D01*
X144936294Y-103541582D01*
X144926983Y-103510845D01*
X144895311Y-103482643D01*
X144833731Y-103450136D01*
X144749986Y-103410998D01*
X144694518Y-103389706D01*
X144662497Y-103391079D01*
X144647534Y-103419203D01*
X144643242Y-103478170D01*
X144643231Y-103572068D01*
X144642752Y-103630031D01*
X144640556Y-103701612D01*
X144636986Y-103750606D01*
X144632491Y-103768769D01*
X144631290Y-103768646D01*
X144605319Y-103758802D01*
X144562305Y-103738028D01*
X144502859Y-103707287D01*
X144509923Y-103430298D01*
X144510414Y-103411928D01*
X144516025Y-103282992D01*
X144525938Y-103185814D01*
X144542175Y-103113925D01*
X144566759Y-103060852D01*
X144601715Y-103020127D01*
X144649064Y-102985279D01*
X144649940Y-102984733D01*
X144726499Y-102956303D01*
X144815044Y-102951500D01*
X144900458Y-102969228D01*
G37*
X148427828Y-103428205D02*
X148429763Y-103578269D01*
X148430300Y-103621802D01*
X148432019Y-103767344D01*
X148432365Y-103878711D01*
X148430277Y-103959804D01*
X148424698Y-104014522D01*
X148414567Y-104046761D01*
X148398826Y-104060422D01*
X148376417Y-104059403D01*
X148346280Y-104047603D01*
X148307355Y-104028920D01*
X148299038Y-104024933D01*
X148264402Y-104005419D01*
X148246314Y-103982202D01*
X148239392Y-103943492D01*
X148238256Y-103877497D01*
X148238205Y-103759000D01*
X148116141Y-103759000D01*
X148041055Y-103755712D01*
X147982015Y-103742377D01*
X147932986Y-103715423D01*
X147929330Y-103712788D01*
X147879581Y-103668286D01*
X147844959Y-103614523D01*
X147823123Y-103544154D01*
X147811737Y-103449830D01*
X147808959Y-103343271D01*
X148003846Y-103343271D01*
X148003880Y-103361131D01*
X148005735Y-103441748D01*
X148011693Y-103494447D01*
X148023506Y-103528668D01*
X148042923Y-103553846D01*
X148044133Y-103555049D01*
X148091858Y-103587628D01*
X148138110Y-103584417D01*
X148190350Y-103544965D01*
X148203128Y-103531482D01*
X148221949Y-103503837D01*
X148232562Y-103467880D01*
X148237252Y-103413364D01*
X148238308Y-103330042D01*
X148237394Y-103279598D01*
X148227477Y-103187857D01*
X148204842Y-103127752D01*
X148167238Y-103094900D01*
X148112416Y-103084923D01*
X148089317Y-103087050D01*
X148049350Y-103108147D01*
X148022926Y-103155161D01*
X148008330Y-103232175D01*
X148003846Y-103343271D01*
X147808959Y-103343271D01*
X147808462Y-103324206D01*
X147809187Y-103232536D01*
X147812490Y-103163098D01*
X147819828Y-103114945D01*
X147832655Y-103078866D01*
X147852423Y-103045648D01*
X147870569Y-103020261D01*
X147936461Y-102951727D01*
X148011114Y-102914505D01*
X148104904Y-102902722D01*
X148212240Y-102914467D01*
X148305031Y-102956595D01*
X148378421Y-103030898D01*
X148383954Y-103038764D01*
X148396857Y-103059668D01*
X148406742Y-103083555D01*
X148414093Y-103115582D01*
X148419394Y-103160905D01*
X148423127Y-103224679D01*
X148425778Y-103312060D01*
X148426096Y-103330042D01*
X148427828Y-103428205D01*
G36*
X148427828Y-103428205D02*
G01*
X148429763Y-103578269D01*
X148430300Y-103621802D01*
X148432019Y-103767344D01*
X148432365Y-103878711D01*
X148430277Y-103959804D01*
X148424698Y-104014522D01*
X148414567Y-104046761D01*
X148398826Y-104060422D01*
X148376417Y-104059403D01*
X148346280Y-104047603D01*
X148307355Y-104028920D01*
X148299038Y-104024933D01*
X148264402Y-104005419D01*
X148246314Y-103982202D01*
X148239392Y-103943492D01*
X148238256Y-103877497D01*
X148238205Y-103759000D01*
X148116141Y-103759000D01*
X148041055Y-103755712D01*
X147982015Y-103742377D01*
X147932986Y-103715423D01*
X147929330Y-103712788D01*
X147879581Y-103668286D01*
X147844959Y-103614523D01*
X147823123Y-103544154D01*
X147811737Y-103449830D01*
X147808959Y-103343271D01*
X148003846Y-103343271D01*
X148003880Y-103361131D01*
X148005735Y-103441748D01*
X148011693Y-103494447D01*
X148023506Y-103528668D01*
X148042923Y-103553846D01*
X148044133Y-103555049D01*
X148091858Y-103587628D01*
X148138110Y-103584417D01*
X148190350Y-103544965D01*
X148203128Y-103531482D01*
X148221949Y-103503837D01*
X148232562Y-103467880D01*
X148237252Y-103413364D01*
X148238308Y-103330042D01*
X148237394Y-103279598D01*
X148227477Y-103187857D01*
X148204842Y-103127752D01*
X148167238Y-103094900D01*
X148112416Y-103084923D01*
X148089317Y-103087050D01*
X148049350Y-103108147D01*
X148022926Y-103155161D01*
X148008330Y-103232175D01*
X148003846Y-103343271D01*
X147808959Y-103343271D01*
X147808462Y-103324206D01*
X147809187Y-103232536D01*
X147812490Y-103163098D01*
X147819828Y-103114945D01*
X147832655Y-103078866D01*
X147852423Y-103045648D01*
X147870569Y-103020261D01*
X147936461Y-102951727D01*
X148011114Y-102914505D01*
X148104904Y-102902722D01*
X148212240Y-102914467D01*
X148305031Y-102956595D01*
X148378421Y-103030898D01*
X148383954Y-103038764D01*
X148396857Y-103059668D01*
X148406742Y-103083555D01*
X148414093Y-103115582D01*
X148419394Y-103160905D01*
X148423127Y-103224679D01*
X148425778Y-103312060D01*
X148426096Y-103330042D01*
X148427828Y-103428205D01*
G37*
X142043936Y-102949911D02*
X142085807Y-102960547D01*
X142124791Y-102987062D01*
X142174965Y-103036420D01*
X142207232Y-103071279D01*
X142240844Y-103116534D01*
X142256003Y-103158951D01*
X142259539Y-103212768D01*
X142259539Y-103300850D01*
X142199470Y-103269787D01*
X142151867Y-103231936D01*
X142119261Y-103180950D01*
X142113661Y-103167088D01*
X142070992Y-103113358D01*
X142011707Y-103086417D01*
X141947061Y-103089039D01*
X141888308Y-103124000D01*
X141863450Y-103152394D01*
X141848970Y-103188718D01*
X141864470Y-103221046D01*
X141912667Y-103253565D01*
X141996274Y-103290461D01*
X142008962Y-103295557D01*
X142085078Y-103328907D01*
X142150396Y-103361793D01*
X142191953Y-103387769D01*
X142233576Y-103434167D01*
X142261247Y-103508211D01*
X142258310Y-103587670D01*
X142225571Y-103662868D01*
X142163841Y-103724131D01*
X142113858Y-103750210D01*
X142017303Y-103768470D01*
X141963647Y-103766007D01*
X141913976Y-103752687D01*
X141894919Y-103724739D01*
X141902045Y-103678710D01*
X141904118Y-103672624D01*
X141920556Y-103640349D01*
X141947926Y-103628133D01*
X142000068Y-103628950D01*
X142036884Y-103630061D01*
X142079961Y-103620528D01*
X142109475Y-103592026D01*
X142126286Y-103556935D01*
X142128161Y-103520175D01*
X142128074Y-103519961D01*
X142106279Y-103500098D01*
X142059632Y-103471192D01*
X141999278Y-103438886D01*
X141936360Y-103408823D01*
X141882023Y-103386646D01*
X141847410Y-103378000D01*
X141842260Y-103386467D01*
X141835778Y-103426309D01*
X141831339Y-103491371D01*
X141829692Y-103573385D01*
X141829309Y-103630153D01*
X141827505Y-103701648D01*
X141824558Y-103750610D01*
X141820843Y-103768769D01*
X141801424Y-103762667D01*
X141762227Y-103746095D01*
X141712462Y-103723420D01*
X141712462Y-103432509D01*
X141712780Y-103357940D01*
X141715789Y-103244701D01*
X141723454Y-103160692D01*
X141737562Y-103099520D01*
X141759899Y-103054795D01*
X141792253Y-103020124D01*
X141836410Y-102989117D01*
X141892667Y-102963528D01*
X141996540Y-102948154D01*
X142043936Y-102949911D01*
G36*
X142043936Y-102949911D02*
G01*
X142085807Y-102960547D01*
X142124791Y-102987062D01*
X142174965Y-103036420D01*
X142207232Y-103071279D01*
X142240844Y-103116534D01*
X142256003Y-103158951D01*
X142259539Y-103212768D01*
X142259539Y-103300850D01*
X142199470Y-103269787D01*
X142151867Y-103231936D01*
X142119261Y-103180950D01*
X142113661Y-103167088D01*
X142070992Y-103113358D01*
X142011707Y-103086417D01*
X141947061Y-103089039D01*
X141888308Y-103124000D01*
X141863450Y-103152394D01*
X141848970Y-103188718D01*
X141864470Y-103221046D01*
X141912667Y-103253565D01*
X141996274Y-103290461D01*
X142008962Y-103295557D01*
X142085078Y-103328907D01*
X142150396Y-103361793D01*
X142191953Y-103387769D01*
X142233576Y-103434167D01*
X142261247Y-103508211D01*
X142258310Y-103587670D01*
X142225571Y-103662868D01*
X142163841Y-103724131D01*
X142113858Y-103750210D01*
X142017303Y-103768470D01*
X141963647Y-103766007D01*
X141913976Y-103752687D01*
X141894919Y-103724739D01*
X141902045Y-103678710D01*
X141904118Y-103672624D01*
X141920556Y-103640349D01*
X141947926Y-103628133D01*
X142000068Y-103628950D01*
X142036884Y-103630061D01*
X142079961Y-103620528D01*
X142109475Y-103592026D01*
X142126286Y-103556935D01*
X142128161Y-103520175D01*
X142128074Y-103519961D01*
X142106279Y-103500098D01*
X142059632Y-103471192D01*
X141999278Y-103438886D01*
X141936360Y-103408823D01*
X141882023Y-103386646D01*
X141847410Y-103378000D01*
X141842260Y-103386467D01*
X141835778Y-103426309D01*
X141831339Y-103491371D01*
X141829692Y-103573385D01*
X141829309Y-103630153D01*
X141827505Y-103701648D01*
X141824558Y-103750610D01*
X141820843Y-103768769D01*
X141801424Y-103762667D01*
X141762227Y-103746095D01*
X141712462Y-103723420D01*
X141712462Y-103432509D01*
X141712780Y-103357940D01*
X141715789Y-103244701D01*
X141723454Y-103160692D01*
X141737562Y-103099520D01*
X141759899Y-103054795D01*
X141792253Y-103020124D01*
X141836410Y-102989117D01*
X141892667Y-102963528D01*
X141996540Y-102948154D01*
X142043936Y-102949911D01*
G37*
X144797575Y-96617693D02*
X144933371Y-96617807D01*
X145035576Y-96618472D01*
X145109122Y-96620182D01*
X145158942Y-96623429D01*
X145189967Y-96628706D01*
X145207129Y-96636507D01*
X145215361Y-96647325D01*
X145219594Y-96661654D01*
X145219716Y-96662168D01*
X145226672Y-96695851D01*
X145239320Y-96760917D01*
X145256360Y-96850542D01*
X145276496Y-96957904D01*
X145298429Y-97076178D01*
X145300218Y-97085856D01*
X145322083Y-97200650D01*
X145342430Y-97301480D01*
X145359934Y-97382217D01*
X145373271Y-97436734D01*
X145381116Y-97458901D01*
X145381158Y-97458936D01*
X145405884Y-97471200D01*
X145456631Y-97491576D01*
X145522462Y-97515674D01*
X145526169Y-97516983D01*
X145610331Y-97548791D01*
X145708230Y-97588685D01*
X145799435Y-97628353D01*
X145949407Y-97696420D01*
X146281499Y-97469639D01*
X146304889Y-97453688D01*
X146405080Y-97385890D01*
X146494480Y-97326208D01*
X146567745Y-97278156D01*
X146619527Y-97245250D01*
X146644480Y-97231004D01*
X146661577Y-97234270D01*
X146700395Y-97259571D01*
X146760385Y-97309675D01*
X146843210Y-97385989D01*
X146950535Y-97489922D01*
X146960139Y-97499382D01*
X147045302Y-97584145D01*
X147120949Y-97660937D01*
X147182449Y-97724947D01*
X147225173Y-97771361D01*
X147244489Y-97795369D01*
X147244552Y-97795485D01*
X147247006Y-97813763D01*
X147237956Y-97843411D01*
X147215119Y-97888486D01*
X147176213Y-97953044D01*
X147118954Y-98041140D01*
X147041059Y-98156830D01*
X147027785Y-98176357D01*
X146960652Y-98275278D01*
X146901410Y-98362848D01*
X146853588Y-98433831D01*
X146820715Y-98482991D01*
X146806318Y-98505095D01*
X146805232Y-98509777D01*
X146812044Y-98544710D01*
X146832450Y-98601753D01*
X146863123Y-98671172D01*
X146904808Y-98761959D01*
X146951352Y-98869686D01*
X146990877Y-98967192D01*
X147000676Y-98992430D01*
X147026340Y-99056870D01*
X147045193Y-99101763D01*
X147053710Y-99118616D01*
X147063111Y-99119875D01*
X147105363Y-99127159D01*
X147174521Y-99139739D01*
X147263387Y-99156246D01*
X147364768Y-99175312D01*
X147471467Y-99195569D01*
X147576288Y-99215647D01*
X147672036Y-99234179D01*
X147751516Y-99249795D01*
X147807530Y-99261127D01*
X147832885Y-99266807D01*
X147837088Y-99268408D01*
X147847334Y-99277045D01*
X147854957Y-99295433D01*
X147860338Y-99328460D01*
X147863859Y-99381013D01*
X147865901Y-99457979D01*
X147866847Y-99564246D01*
X147867077Y-99704701D01*
X147867077Y-100131845D01*
X147764500Y-100152091D01*
X147752092Y-100154518D01*
X147686199Y-100167088D01*
X147595084Y-100184170D01*
X147489104Y-100203829D01*
X147378615Y-100224132D01*
X147335105Y-100232299D01*
X147237882Y-100252167D01*
X147156858Y-100270954D01*
X147099477Y-100286859D01*
X147073187Y-100298079D01*
X147061273Y-100316411D01*
X147039583Y-100364916D01*
X147017395Y-100427692D01*
X147009585Y-100451200D01*
X146980835Y-100528366D01*
X146943752Y-100619694D01*
X146904375Y-100710093D01*
X146883315Y-100757310D01*
X146853311Y-100827837D01*
X146832692Y-100880655D01*
X146825026Y-100906912D01*
X146825452Y-100908894D01*
X146839993Y-100936751D01*
X146872783Y-100990510D01*
X146920493Y-101064963D01*
X146979798Y-101154897D01*
X147047369Y-101255104D01*
X147269713Y-101581416D01*
X146977601Y-101874016D01*
X146949349Y-101902171D01*
X146862961Y-101986449D01*
X146785756Y-102059128D01*
X146722258Y-102116112D01*
X146676990Y-102153307D01*
X146654474Y-102166616D01*
X146630023Y-102156490D01*
X146578819Y-102127421D01*
X146506747Y-102082896D01*
X146419460Y-102026411D01*
X146322612Y-101961462D01*
X146227486Y-101897314D01*
X146141669Y-101840827D01*
X146071652Y-101796184D01*
X146022876Y-101766855D01*
X146000783Y-101756308D01*
X145999488Y-101756404D01*
X145970139Y-101766802D01*
X145918093Y-101791012D01*
X145853708Y-101824249D01*
X145853032Y-101824613D01*
X145767521Y-101867441D01*
X145708926Y-101888365D01*
X145672571Y-101888423D01*
X145653775Y-101868654D01*
X145645819Y-101849195D01*
X145624347Y-101797080D01*
X145591273Y-101716964D01*
X145548356Y-101613107D01*
X145497356Y-101489767D01*
X145440033Y-101351201D01*
X145378146Y-101201670D01*
X145322052Y-101065636D01*
X145264977Y-100926050D01*
X145214479Y-100801315D01*
X145172254Y-100695672D01*
X145139995Y-100613365D01*
X145119397Y-100558635D01*
X145112154Y-100535726D01*
X145125986Y-100514718D01*
X145164412Y-100479642D01*
X145218807Y-100438887D01*
X145349395Y-100332267D01*
X145466260Y-100196025D01*
X145551780Y-100046118D01*
X145605431Y-99886971D01*
X145626684Y-99723012D01*
X145615014Y-99558667D01*
X145569894Y-99398361D01*
X145490797Y-99246520D01*
X145377197Y-99107572D01*
X145317965Y-99053460D01*
X145176054Y-98957782D01*
X145024206Y-98895405D01*
X144866861Y-98864844D01*
X144708456Y-98864615D01*
X144553429Y-98893232D01*
X144406220Y-98949210D01*
X144271266Y-99031064D01*
X144153005Y-99137309D01*
X144055877Y-99266459D01*
X143984318Y-99417031D01*
X143942769Y-99587539D01*
X143935143Y-99669722D01*
X143945634Y-99847775D01*
X143992882Y-100016704D01*
X144075489Y-100173522D01*
X144192059Y-100315245D01*
X144341193Y-100438887D01*
X144393561Y-100477982D01*
X144432832Y-100513443D01*
X144447846Y-100535692D01*
X144441859Y-100555088D01*
X144422432Y-100607059D01*
X144391194Y-100687002D01*
X144349839Y-100790673D01*
X144300061Y-100913832D01*
X144243553Y-101052234D01*
X144182009Y-101201637D01*
X144126008Y-101337020D01*
X144068184Y-101476852D01*
X144016500Y-101601872D01*
X143972718Y-101707822D01*
X143938597Y-101790441D01*
X143915898Y-101845472D01*
X143906380Y-101868654D01*
X143906269Y-101868928D01*
X143887228Y-101888503D01*
X143850694Y-101888279D01*
X143791954Y-101867210D01*
X143706292Y-101824249D01*
X143699549Y-101820631D01*
X143635938Y-101788087D01*
X143585707Y-101765050D01*
X143559218Y-101756308D01*
X143537506Y-101766639D01*
X143488984Y-101795788D01*
X143419163Y-101840287D01*
X143333484Y-101896668D01*
X143237388Y-101961462D01*
X143142706Y-102024984D01*
X143055132Y-102081705D01*
X142982642Y-102126547D01*
X142930889Y-102156016D01*
X142905526Y-102166616D01*
X142901206Y-102165270D01*
X142871092Y-102144056D01*
X142819640Y-102100237D01*
X142751375Y-102037909D01*
X142670820Y-101961170D01*
X142582500Y-101874116D01*
X142290488Y-101581617D01*
X142745360Y-100912525D01*
X142676208Y-100762916D01*
X142676003Y-100762473D01*
X142634477Y-100667101D01*
X142592044Y-100560896D01*
X142557858Y-100466769D01*
X142552684Y-100451588D01*
X142526601Y-100381109D01*
X142503081Y-100326342D01*
X142486677Y-100298079D01*
X142479996Y-100294088D01*
X142439892Y-100280697D01*
X142371795Y-100263373D01*
X142283145Y-100243917D01*
X142181385Y-100224132D01*
X142150904Y-100218551D01*
X142040628Y-100198233D01*
X141937731Y-100179095D01*
X141852569Y-100163070D01*
X141795500Y-100152091D01*
X141692923Y-100131845D01*
X141692923Y-99704701D01*
X141692946Y-99652180D01*
X141693379Y-99524047D01*
X141694659Y-99428420D01*
X141697168Y-99360411D01*
X141701286Y-99315133D01*
X141707395Y-99287697D01*
X141715878Y-99273218D01*
X141727115Y-99266807D01*
X141737994Y-99264209D01*
X141782347Y-99255022D01*
X141853106Y-99240991D01*
X141943074Y-99223486D01*
X142045056Y-99203874D01*
X142151857Y-99183525D01*
X142256281Y-99163807D01*
X142351132Y-99146089D01*
X142429214Y-99131738D01*
X142483332Y-99122124D01*
X142506291Y-99118616D01*
X142507842Y-99116497D01*
X142520325Y-99089006D01*
X142541927Y-99036406D01*
X142569123Y-98967192D01*
X142606866Y-98873937D01*
X142653328Y-98766159D01*
X142696878Y-98671172D01*
X142706858Y-98649851D01*
X142734862Y-98583086D01*
X142751641Y-98531590D01*
X142753854Y-98505095D01*
X142752713Y-98503218D01*
X142734584Y-98475565D01*
X142698644Y-98421849D01*
X142648418Y-98347303D01*
X142587430Y-98257162D01*
X142519205Y-98156657D01*
X142442330Y-98042470D01*
X142384663Y-97953770D01*
X142345426Y-97888721D01*
X142322350Y-97843295D01*
X142313166Y-97813463D01*
X142315604Y-97795195D01*
X142316424Y-97793825D01*
X142338477Y-97767205D01*
X142383436Y-97718697D01*
X142446673Y-97653108D01*
X142523559Y-97575247D01*
X142609465Y-97489922D01*
X142698579Y-97403334D01*
X142785872Y-97321947D01*
X142850018Y-97267035D01*
X142892679Y-97237190D01*
X142915521Y-97231004D01*
X142918505Y-97232394D01*
X142949936Y-97251127D01*
X143006997Y-97287733D01*
X143084343Y-97338697D01*
X143176626Y-97400504D01*
X143278502Y-97469639D01*
X143610593Y-97696420D01*
X143760566Y-97628353D01*
X143764923Y-97626381D01*
X143857000Y-97586491D01*
X143954683Y-97546818D01*
X144037539Y-97515674D01*
X144037905Y-97515545D01*
X144103685Y-97491456D01*
X144154323Y-97471110D01*
X144178884Y-97458901D01*
X144179282Y-97458458D01*
X144187619Y-97433456D01*
X144201341Y-97376598D01*
X144219123Y-97294014D01*
X144239641Y-97191831D01*
X144261571Y-97076178D01*
X144262336Y-97072033D01*
X144284229Y-96954019D01*
X144304281Y-96847151D01*
X144321192Y-96758252D01*
X144333667Y-96694145D01*
X144340406Y-96661654D01*
X144340837Y-96659853D01*
X144345273Y-96645944D01*
X144354263Y-96635489D01*
X144372737Y-96627996D01*
X144405628Y-96622972D01*
X144457868Y-96619922D01*
X144534388Y-96618355D01*
X144640122Y-96617776D01*
X144780000Y-96617692D01*
X144797575Y-96617693D01*
G36*
X144797575Y-96617693D02*
G01*
X144933371Y-96617807D01*
X145035576Y-96618472D01*
X145109122Y-96620182D01*
X145158942Y-96623429D01*
X145189967Y-96628706D01*
X145207129Y-96636507D01*
X145215361Y-96647325D01*
X145219594Y-96661654D01*
X145219716Y-96662168D01*
X145226672Y-96695851D01*
X145239320Y-96760917D01*
X145256360Y-96850542D01*
X145276496Y-96957904D01*
X145298429Y-97076178D01*
X145300218Y-97085856D01*
X145322083Y-97200650D01*
X145342430Y-97301480D01*
X145359934Y-97382217D01*
X145373271Y-97436734D01*
X145381116Y-97458901D01*
X145381158Y-97458936D01*
X145405884Y-97471200D01*
X145456631Y-97491576D01*
X145522462Y-97515674D01*
X145526169Y-97516983D01*
X145610331Y-97548791D01*
X145708230Y-97588685D01*
X145799435Y-97628353D01*
X145949407Y-97696420D01*
X146281499Y-97469639D01*
X146304889Y-97453688D01*
X146405080Y-97385890D01*
X146494480Y-97326208D01*
X146567745Y-97278156D01*
X146619527Y-97245250D01*
X146644480Y-97231004D01*
X146661577Y-97234270D01*
X146700395Y-97259571D01*
X146760385Y-97309675D01*
X146843210Y-97385989D01*
X146950535Y-97489922D01*
X146960139Y-97499382D01*
X147045302Y-97584145D01*
X147120949Y-97660937D01*
X147182449Y-97724947D01*
X147225173Y-97771361D01*
X147244489Y-97795369D01*
X147244552Y-97795485D01*
X147247006Y-97813763D01*
X147237956Y-97843411D01*
X147215119Y-97888486D01*
X147176213Y-97953044D01*
X147118954Y-98041140D01*
X147041059Y-98156830D01*
X147027785Y-98176357D01*
X146960652Y-98275278D01*
X146901410Y-98362848D01*
X146853588Y-98433831D01*
X146820715Y-98482991D01*
X146806318Y-98505095D01*
X146805232Y-98509777D01*
X146812044Y-98544710D01*
X146832450Y-98601753D01*
X146863123Y-98671172D01*
X146904808Y-98761959D01*
X146951352Y-98869686D01*
X146990877Y-98967192D01*
X147000676Y-98992430D01*
X147026340Y-99056870D01*
X147045193Y-99101763D01*
X147053710Y-99118616D01*
X147063111Y-99119875D01*
X147105363Y-99127159D01*
X147174521Y-99139739D01*
X147263387Y-99156246D01*
X147364768Y-99175312D01*
X147471467Y-99195569D01*
X147576288Y-99215647D01*
X147672036Y-99234179D01*
X147751516Y-99249795D01*
X147807530Y-99261127D01*
X147832885Y-99266807D01*
X147837088Y-99268408D01*
X147847334Y-99277045D01*
X147854957Y-99295433D01*
X147860338Y-99328460D01*
X147863859Y-99381013D01*
X147865901Y-99457979D01*
X147866847Y-99564246D01*
X147867077Y-99704701D01*
X147867077Y-100131845D01*
X147764500Y-100152091D01*
X147752092Y-100154518D01*
X147686199Y-100167088D01*
X147595084Y-100184170D01*
X147489104Y-100203829D01*
X147378615Y-100224132D01*
X147335105Y-100232299D01*
X147237882Y-100252167D01*
X147156858Y-100270954D01*
X147099477Y-100286859D01*
X147073187Y-100298079D01*
X147061273Y-100316411D01*
X147039583Y-100364916D01*
X147017395Y-100427692D01*
X147009585Y-100451200D01*
X146980835Y-100528366D01*
X146943752Y-100619694D01*
X146904375Y-100710093D01*
X146883315Y-100757310D01*
X146853311Y-100827837D01*
X146832692Y-100880655D01*
X146825026Y-100906912D01*
X146825452Y-100908894D01*
X146839993Y-100936751D01*
X146872783Y-100990510D01*
X146920493Y-101064963D01*
X146979798Y-101154897D01*
X147047369Y-101255104D01*
X147269713Y-101581416D01*
X146977601Y-101874016D01*
X146949349Y-101902171D01*
X146862961Y-101986449D01*
X146785756Y-102059128D01*
X146722258Y-102116112D01*
X146676990Y-102153307D01*
X146654474Y-102166616D01*
X146630023Y-102156490D01*
X146578819Y-102127421D01*
X146506747Y-102082896D01*
X146419460Y-102026411D01*
X146322612Y-101961462D01*
X146227486Y-101897314D01*
X146141669Y-101840827D01*
X146071652Y-101796184D01*
X146022876Y-101766855D01*
X146000783Y-101756308D01*
X145999488Y-101756404D01*
X145970139Y-101766802D01*
X145918093Y-101791012D01*
X145853708Y-101824249D01*
X145853032Y-101824613D01*
X145767521Y-101867441D01*
X145708926Y-101888365D01*
X145672571Y-101888423D01*
X145653775Y-101868654D01*
X145645819Y-101849195D01*
X145624347Y-101797080D01*
X145591273Y-101716964D01*
X145548356Y-101613107D01*
X145497356Y-101489767D01*
X145440033Y-101351201D01*
X145378146Y-101201670D01*
X145322052Y-101065636D01*
X145264977Y-100926050D01*
X145214479Y-100801315D01*
X145172254Y-100695672D01*
X145139995Y-100613365D01*
X145119397Y-100558635D01*
X145112154Y-100535726D01*
X145125986Y-100514718D01*
X145164412Y-100479642D01*
X145218807Y-100438887D01*
X145349395Y-100332267D01*
X145466260Y-100196025D01*
X145551780Y-100046118D01*
X145605431Y-99886971D01*
X145626684Y-99723012D01*
X145615014Y-99558667D01*
X145569894Y-99398361D01*
X145490797Y-99246520D01*
X145377197Y-99107572D01*
X145317965Y-99053460D01*
X145176054Y-98957782D01*
X145024206Y-98895405D01*
X144866861Y-98864844D01*
X144708456Y-98864615D01*
X144553429Y-98893232D01*
X144406220Y-98949210D01*
X144271266Y-99031064D01*
X144153005Y-99137309D01*
X144055877Y-99266459D01*
X143984318Y-99417031D01*
X143942769Y-99587539D01*
X143935143Y-99669722D01*
X143945634Y-99847775D01*
X143992882Y-100016704D01*
X144075489Y-100173522D01*
X144192059Y-100315245D01*
X144341193Y-100438887D01*
X144393561Y-100477982D01*
X144432832Y-100513443D01*
X144447846Y-100535692D01*
X144441859Y-100555088D01*
X144422432Y-100607059D01*
X144391194Y-100687002D01*
X144349839Y-100790673D01*
X144300061Y-100913832D01*
X144243553Y-101052234D01*
X144182009Y-101201637D01*
X144126008Y-101337020D01*
X144068184Y-101476852D01*
X144016500Y-101601872D01*
X143972718Y-101707822D01*
X143938597Y-101790441D01*
X143915898Y-101845472D01*
X143906380Y-101868654D01*
X143906269Y-101868928D01*
X143887228Y-101888503D01*
X143850694Y-101888279D01*
X143791954Y-101867210D01*
X143706292Y-101824249D01*
X143699549Y-101820631D01*
X143635938Y-101788087D01*
X143585707Y-101765050D01*
X143559218Y-101756308D01*
X143537506Y-101766639D01*
X143488984Y-101795788D01*
X143419163Y-101840287D01*
X143333484Y-101896668D01*
X143237388Y-101961462D01*
X143142706Y-102024984D01*
X143055132Y-102081705D01*
X142982642Y-102126547D01*
X142930889Y-102156016D01*
X142905526Y-102166616D01*
X142901206Y-102165270D01*
X142871092Y-102144056D01*
X142819640Y-102100237D01*
X142751375Y-102037909D01*
X142670820Y-101961170D01*
X142582500Y-101874116D01*
X142290488Y-101581617D01*
X142745360Y-100912525D01*
X142676208Y-100762916D01*
X142676003Y-100762473D01*
X142634477Y-100667101D01*
X142592044Y-100560896D01*
X142557858Y-100466769D01*
X142552684Y-100451588D01*
X142526601Y-100381109D01*
X142503081Y-100326342D01*
X142486677Y-100298079D01*
X142479996Y-100294088D01*
X142439892Y-100280697D01*
X142371795Y-100263373D01*
X142283145Y-100243917D01*
X142181385Y-100224132D01*
X142150904Y-100218551D01*
X142040628Y-100198233D01*
X141937731Y-100179095D01*
X141852569Y-100163070D01*
X141795500Y-100152091D01*
X141692923Y-100131845D01*
X141692923Y-99704701D01*
X141692946Y-99652180D01*
X141693379Y-99524047D01*
X141694659Y-99428420D01*
X141697168Y-99360411D01*
X141701286Y-99315133D01*
X141707395Y-99287697D01*
X141715878Y-99273218D01*
X141727115Y-99266807D01*
X141737994Y-99264209D01*
X141782347Y-99255022D01*
X141853106Y-99240991D01*
X141943074Y-99223486D01*
X142045056Y-99203874D01*
X142151857Y-99183525D01*
X142256281Y-99163807D01*
X142351132Y-99146089D01*
X142429214Y-99131738D01*
X142483332Y-99122124D01*
X142506291Y-99118616D01*
X142507842Y-99116497D01*
X142520325Y-99089006D01*
X142541927Y-99036406D01*
X142569123Y-98967192D01*
X142606866Y-98873937D01*
X142653328Y-98766159D01*
X142696878Y-98671172D01*
X142706858Y-98649851D01*
X142734862Y-98583086D01*
X142751641Y-98531590D01*
X142753854Y-98505095D01*
X142752713Y-98503218D01*
X142734584Y-98475565D01*
X142698644Y-98421849D01*
X142648418Y-98347303D01*
X142587430Y-98257162D01*
X142519205Y-98156657D01*
X142442330Y-98042470D01*
X142384663Y-97953770D01*
X142345426Y-97888721D01*
X142322350Y-97843295D01*
X142313166Y-97813463D01*
X142315604Y-97795195D01*
X142316424Y-97793825D01*
X142338477Y-97767205D01*
X142383436Y-97718697D01*
X142446673Y-97653108D01*
X142523559Y-97575247D01*
X142609465Y-97489922D01*
X142698579Y-97403334D01*
X142785872Y-97321947D01*
X142850018Y-97267035D01*
X142892679Y-97237190D01*
X142915521Y-97231004D01*
X142918505Y-97232394D01*
X142949936Y-97251127D01*
X143006997Y-97287733D01*
X143084343Y-97338697D01*
X143176626Y-97400504D01*
X143278502Y-97469639D01*
X143610593Y-97696420D01*
X143760566Y-97628353D01*
X143764923Y-97626381D01*
X143857000Y-97586491D01*
X143954683Y-97546818D01*
X144037539Y-97515674D01*
X144037905Y-97515545D01*
X144103685Y-97491456D01*
X144154323Y-97471110D01*
X144178884Y-97458901D01*
X144179282Y-97458458D01*
X144187619Y-97433456D01*
X144201341Y-97376598D01*
X144219123Y-97294014D01*
X144239641Y-97191831D01*
X144261571Y-97076178D01*
X144262336Y-97072033D01*
X144284229Y-96954019D01*
X144304281Y-96847151D01*
X144321192Y-96758252D01*
X144333667Y-96694145D01*
X144340406Y-96661654D01*
X144340837Y-96659853D01*
X144345273Y-96645944D01*
X144354263Y-96635489D01*
X144372737Y-96627996D01*
X144405628Y-96622972D01*
X144457868Y-96619922D01*
X144534388Y-96618355D01*
X144640122Y-96617776D01*
X144780000Y-96617692D01*
X144797575Y-96617693D01*
G37*
D11*
%TO.C,TP2*%
X129018700Y-98486000D02*
X129018700Y-96586000D01*
X129018700Y-96586000D02*
X127118700Y-96586000D01*
X127118700Y-98486000D02*
X129018700Y-98486000D01*
X127118700Y-96586000D02*
X127118700Y-98486000D01*
%TO.C,JP2*%
X132034000Y-101618000D02*
X132634000Y-101618000D01*
X130834000Y-101068000D02*
X130834000Y-100468000D01*
X133334000Y-100968000D02*
X133334000Y-98168000D01*
X131134000Y-100768000D02*
X130834000Y-101068000D01*
X131134000Y-100768000D02*
X130834000Y-100468000D01*
X131334000Y-98168000D02*
X131334000Y-100968000D01*
X132634000Y-97518000D02*
X132034000Y-97518000D01*
X131334000Y-100918000D02*
G75*
G03*
X132034000Y-101618000I699999J-1D01*
G01*
X132634000Y-101618000D02*
G75*
G03*
X133334000Y-100918000I1J699999D01*
G01*
X132034000Y-97518000D02*
G75*
G03*
X131334000Y-98218000I0J-700000D01*
G01*
X133334000Y-98218000D02*
G75*
G03*
X132634000Y-97518000I-700000J0D01*
G01*
%TO.C,TP3*%
X129018700Y-102036000D02*
X129018700Y-100136000D01*
X129018700Y-100136000D02*
X127118700Y-100136000D01*
X127118700Y-102036000D02*
X129018700Y-102036000D01*
X127118700Y-100136000D02*
X127118700Y-102036000D01*
%TD*%
M02*
