%TF.GenerationSoftware,KiCad,Pcbnew,7.0.7*%
%TF.CreationDate,2025-04-13T10:38:35+09:30*%
%TF.ProjectId,MCP3909_Breakout,4d435033-3930-4395-9f42-7265616b6f75,rev?*%
%TF.SameCoordinates,Original*%
%TF.FileFunction,Copper,L1,Top*%
%TF.FilePolarity,Positive*%
%FSLAX46Y46*%
G04 Gerber Fmt 4.6, Leading zero omitted, Abs format (unit mm)*
G04 Created by KiCad (PCBNEW 7.0.7) date 2025-04-13 10:38:35*
%MOMM*%
%LPD*%
G01*
G04 APERTURE LIST*
G04 Aperture macros list*
%AMRoundRect*
0 Rectangle with rounded corners*
0 $1 Rounding radius*
0 $2 $3 $4 $5 $6 $7 $8 $9 X,Y pos of 4 corners*
0 Add a 4 corners polygon primitive as box body*
4,1,4,$2,$3,$4,$5,$6,$7,$8,$9,$2,$3,0*
0 Add four circle primitives for the rounded corners*
1,1,$1+$1,$2,$3*
1,1,$1+$1,$4,$5*
1,1,$1+$1,$6,$7*
1,1,$1+$1,$8,$9*
0 Add four rect primitives between the rounded corners*
20,1,$1+$1,$2,$3,$4,$5,0*
20,1,$1+$1,$4,$5,$6,$7,0*
20,1,$1+$1,$6,$7,$8,$9,0*
20,1,$1+$1,$8,$9,$2,$3,0*%
G04 Aperture macros list end*
%TA.AperFunction,SMDPad,CuDef*%
%ADD10RoundRect,0.225000X-0.250000X0.225000X-0.250000X-0.225000X0.250000X-0.225000X0.250000X0.225000X0*%
%TD*%
%TA.AperFunction,SMDPad,CuDef*%
%ADD11RoundRect,0.200000X0.200000X0.275000X-0.200000X0.275000X-0.200000X-0.275000X0.200000X-0.275000X0*%
%TD*%
%TA.AperFunction,SMDPad,CuDef*%
%ADD12RoundRect,0.200000X0.275000X-0.200000X0.275000X0.200000X-0.275000X0.200000X-0.275000X-0.200000X0*%
%TD*%
%TA.AperFunction,SMDPad,CuDef*%
%ADD13RoundRect,0.250000X-0.475000X0.250000X-0.475000X-0.250000X0.475000X-0.250000X0.475000X0.250000X0*%
%TD*%
%TA.AperFunction,SMDPad,CuDef*%
%ADD14RoundRect,0.200000X-0.200000X-0.275000X0.200000X-0.275000X0.200000X0.275000X-0.200000X0.275000X0*%
%TD*%
%TA.AperFunction,SMDPad,CuDef*%
%ADD15RoundRect,0.225000X0.225000X0.250000X-0.225000X0.250000X-0.225000X-0.250000X0.225000X-0.250000X0*%
%TD*%
%TA.AperFunction,ComponentPad*%
%ADD16R,1.700000X1.700000*%
%TD*%
%TA.AperFunction,ComponentPad*%
%ADD17O,1.700000X1.700000*%
%TD*%
%TA.AperFunction,SMDPad,CuDef*%
%ADD18R,4.500000X2.000000*%
%TD*%
%TA.AperFunction,SMDPad,CuDef*%
%ADD19RoundRect,0.218750X-0.256250X0.218750X-0.256250X-0.218750X0.256250X-0.218750X0.256250X0.218750X0*%
%TD*%
%TA.AperFunction,SMDPad,CuDef*%
%ADD20RoundRect,0.225000X0.250000X-0.225000X0.250000X0.225000X-0.250000X0.225000X-0.250000X-0.225000X0*%
%TD*%
%TA.AperFunction,SMDPad,CuDef*%
%ADD21R,0.450000X1.750000*%
%TD*%
%TA.AperFunction,ViaPad*%
%ADD22C,0.800000*%
%TD*%
%TA.AperFunction,Conductor*%
%ADD23C,0.250000*%
%TD*%
G04 APERTURE END LIST*
D10*
%TO.P,C9,1*%
%TO.N,Net-(U1-OSC1)*%
X151892000Y-88887000D03*
%TO.P,C9,2*%
%TO.N,GND*%
X151892000Y-90437000D03*
%TD*%
D11*
%TO.P,R4,1*%
%TO.N,GND*%
X141096000Y-107696000D03*
%TO.P,R4,2*%
%TO.N,UN*%
X139446000Y-107696000D03*
%TD*%
D12*
%TO.P,R5,1*%
%TO.N,IAN_IN*%
X153924000Y-106235000D03*
%TO.P,R5,2*%
%TO.N,IAN*%
X153924000Y-104585000D03*
%TD*%
D13*
%TO.P,C8,1*%
%TO.N,GNDD*%
X134112000Y-93538000D03*
%TO.P,C8,2*%
%TO.N,VIN*%
X134112000Y-95438000D03*
%TD*%
D14*
%TO.P,R1,1*%
%TO.N,IAN_IN*%
X148527000Y-108458000D03*
%TO.P,R1,2*%
%TO.N,GND*%
X150177000Y-108458000D03*
%TD*%
D10*
%TO.P,C7,1*%
%TO.N,GNDD*%
X136652000Y-93967000D03*
%TO.P,C7,2*%
%TO.N,VIN*%
X136652000Y-95517000D03*
%TD*%
D12*
%TO.P,R6,1*%
%TO.N,IAP_IN*%
X148590000Y-106235000D03*
%TO.P,R6,2*%
%TO.N,IAP*%
X148590000Y-104585000D03*
%TD*%
D10*
%TO.P,C10,1*%
%TO.N,Net-(U1-OSC2)*%
X134620000Y-88887000D03*
%TO.P,C10,2*%
%TO.N,GND*%
X134620000Y-90437000D03*
%TD*%
D15*
%TO.P,C5,1*%
%TO.N,IAN*%
X151905000Y-102616000D03*
%TO.P,C5,2*%
%TO.N,IAP*%
X150355000Y-102616000D03*
%TD*%
D13*
%TO.P,C11,1*%
%TO.N,Net-(U1-AVDD)*%
X134112000Y-100650000D03*
%TO.P,C11,2*%
%TO.N,GND*%
X134112000Y-102550000D03*
%TD*%
D15*
%TO.P,C3,1*%
%TO.N,UP*%
X144348000Y-105918000D03*
%TO.P,C3,2*%
%TO.N,GND*%
X142798000Y-105918000D03*
%TD*%
D16*
%TO.P,J1,1,Pin_1*%
%TO.N,VIN*%
X132080000Y-112014000D03*
D17*
%TO.P,J1,2,Pin_2*%
%TO.N,~{CS}{slash}F0*%
X134620000Y-112014000D03*
%TO.P,J1,3,Pin_3*%
%TO.N,SCK{slash}F2*%
X137160000Y-112014000D03*
%TO.P,J1,4,Pin_4*%
%TO.N,MOSI{slash}F1*%
X139700000Y-112014000D03*
%TO.P,J1,5,Pin_5*%
%TO.N,MISO{slash}NEG*%
X142240000Y-112014000D03*
%TO.P,J1,6,Pin_6*%
%TO.N,UP_IN*%
X144780000Y-112014000D03*
%TO.P,J1,7,Pin_7*%
%TO.N,GND*%
X147320000Y-112014000D03*
%TO.P,J1,8,Pin_8*%
%TO.N,IAN_IN*%
X149860000Y-112014000D03*
%TO.P,J1,9,Pin_9*%
%TO.N,IAP_IN*%
X152400000Y-112014000D03*
%TO.P,J1,10,Pin_10*%
%TO.N,GND*%
X154940000Y-112014000D03*
%TD*%
D10*
%TO.P,C6,1*%
%TO.N,Net-(U1-REFIN{slash}OUT)*%
X148590000Y-96761000D03*
%TO.P,C6,2*%
%TO.N,GND*%
X148590000Y-98311000D03*
%TD*%
D18*
%TO.P,Y1,1,1*%
%TO.N,Net-(U1-OSC1)*%
X147506000Y-89408000D03*
%TO.P,Y1,2,2*%
%TO.N,Net-(U1-OSC2)*%
X139006000Y-89408000D03*
%TD*%
D14*
%TO.P,R3,1*%
%TO.N,UP_IN*%
X142748000Y-107696000D03*
%TO.P,R3,2*%
%TO.N,UP*%
X144398000Y-107696000D03*
%TD*%
D19*
%TO.P,FB1,1*%
%TO.N,VIN*%
X134112000Y-97256500D03*
%TO.P,FB1,2*%
%TO.N,Net-(U1-AVDD)*%
X134112000Y-98831500D03*
%TD*%
D10*
%TO.P,C1,1*%
%TO.N,IAN*%
X152146000Y-104635000D03*
%TO.P,C1,2*%
%TO.N,GND*%
X152146000Y-106185000D03*
%TD*%
D20*
%TO.P,C2,1*%
%TO.N,GND*%
X150368000Y-106185000D03*
%TO.P,C2,2*%
%TO.N,IAP*%
X150368000Y-104635000D03*
%TD*%
D19*
%TO.P,FB2,1*%
%TO.N,GNDD*%
X131572000Y-97256500D03*
%TO.P,FB2,2*%
%TO.N,GND*%
X131572000Y-98831500D03*
%TD*%
D15*
%TO.P,C4,1*%
%TO.N,GND*%
X141046000Y-105918000D03*
%TO.P,C4,2*%
%TO.N,UN*%
X139496000Y-105918000D03*
%TD*%
D21*
%TO.P,U1,1,DVDD*%
%TO.N,VIN*%
X139427000Y-101390000D03*
%TO.P,U1,2,HPF*%
X140077000Y-101390000D03*
%TO.P,U1,3,AVDD*%
%TO.N,Net-(U1-AVDD)*%
X140727000Y-101390000D03*
%TO.P,U1,4,NC*%
%TO.N,unconnected-(U1-NC-Pad4)*%
X141377000Y-101390000D03*
%TO.P,U1,5,CH0+*%
%TO.N,IAP*%
X142027000Y-101390000D03*
%TO.P,U1,6,CH0-*%
%TO.N,IAN*%
X142677000Y-101390000D03*
%TO.P,U1,7,CH1-*%
%TO.N,UN*%
X143327000Y-101390000D03*
%TO.P,U1,8,CH1+*%
%TO.N,UP*%
X143977000Y-101390000D03*
%TO.P,U1,9,~{MCLR}*%
%TO.N,~{MCLR}*%
X144627000Y-101390000D03*
%TO.P,U1,10,REFIN/OUT*%
%TO.N,Net-(U1-REFIN{slash}OUT)*%
X145277000Y-101390000D03*
%TO.P,U1,11,AGND*%
%TO.N,GND*%
X145927000Y-101390000D03*
%TO.P,U1,12,SCK/F2*%
%TO.N,SCK{slash}F2*%
X146577000Y-101390000D03*
%TO.P,U1,13,SDI/F1*%
%TO.N,MOSI{slash}F1*%
X146577000Y-94190000D03*
%TO.P,U1,14,~{CS}/F0*%
%TO.N,~{CS}{slash}F0*%
X145927000Y-94190000D03*
%TO.P,U1,15,G1*%
%TO.N,G1*%
X145277000Y-94190000D03*
%TO.P,U1,16,G0*%
%TO.N,G0*%
X144627000Y-94190000D03*
%TO.P,U1,17,OSC1*%
%TO.N,Net-(U1-OSC1)*%
X143977000Y-94190000D03*
%TO.P,U1,18,OSC2*%
%TO.N,Net-(U1-OSC2)*%
X143327000Y-94190000D03*
%TO.P,U1,19,NC*%
%TO.N,unconnected-(U1-NC-Pad19)*%
X142677000Y-94190000D03*
%TO.P,U1,20,SDO/NEG*%
%TO.N,MISO{slash}NEG*%
X142027000Y-94190000D03*
%TO.P,U1,21,DGND*%
%TO.N,GNDD*%
X141377000Y-94190000D03*
%TO.P,U1,22,HFOUT*%
%TO.N,HFOUT*%
X140727000Y-94190000D03*
%TO.P,U1,23,FOUT1*%
%TO.N,FOUT1*%
X140077000Y-94190000D03*
%TO.P,U1,24,FOUT0*%
%TO.N,FOUT0*%
X139427000Y-94190000D03*
%TD*%
D10*
%TO.P,C12,1*%
%TO.N,Net-(U1-AVDD)*%
X136652000Y-100571000D03*
%TO.P,C12,2*%
%TO.N,GND*%
X136652000Y-102121000D03*
%TD*%
D14*
%TO.P,R2,1*%
%TO.N,GND*%
X152337000Y-108458000D03*
%TO.P,R2,2*%
%TO.N,IAP_IN*%
X153987000Y-108458000D03*
%TD*%
D22*
%TO.N,GND*%
X130671600Y-98049800D03*
%TO.N,UP*%
X140391700Y-98359200D03*
X140391700Y-104038500D03*
%TO.N,UN*%
X141119400Y-99906600D03*
X138428100Y-107735100D03*
%TO.N,VIN*%
X136319200Y-98443200D03*
X132553769Y-96659390D03*
%TO.N,IAP_IN*%
X153924000Y-107442000D03*
X151130000Y-107442000D03*
%TO.N,G0*%
X141005100Y-96142800D03*
%TO.N,G1*%
X141869900Y-96763200D03*
%TO.N,FOUT0*%
X129631300Y-92650300D03*
%TO.N,FOUT1*%
X138269500Y-94511300D03*
%TO.N,HFOUT*%
X130677000Y-91632000D03*
%TO.N,~{MCLR}*%
X147408700Y-102171600D03*
%TO.N,SCK{slash}F2*%
X148181049Y-100683049D03*
X150876000Y-99060000D03*
%TO.N,MOSI{slash}F1*%
X141999600Y-98264300D03*
%TO.N,~{CS}{slash}F0*%
X137657900Y-97490100D03*
%TO.N,MISO{slash}NEG*%
X141436400Y-92685900D03*
%TD*%
D23*
%TO.N,IAN*%
X148051600Y-103043800D02*
X149314900Y-101780500D01*
X142677000Y-102591900D02*
X143128900Y-103043800D01*
X152146000Y-104635000D02*
X153874000Y-104635000D01*
X153874000Y-104635000D02*
X153924000Y-104585000D01*
X142677000Y-101390000D02*
X142677000Y-102591900D01*
X152146000Y-104635000D02*
X152146000Y-102857000D01*
X152146000Y-102857000D02*
X151905000Y-102616000D01*
X143128900Y-103043800D02*
X148051600Y-103043800D01*
X151069500Y-101780500D02*
X151905000Y-102616000D01*
X149314900Y-101780500D02*
X151069500Y-101780500D01*
%TO.N,GND*%
X152337000Y-106376000D02*
X152337000Y-108458000D01*
X128899100Y-92303300D02*
X128899100Y-96158600D01*
X148590000Y-98311000D02*
X148590000Y-99249500D01*
X152146000Y-106185000D02*
X150368000Y-106185000D01*
X152921000Y-105410000D02*
X154391700Y-105410000D01*
X154940000Y-105958300D02*
X154940000Y-112014000D01*
X141046000Y-105918000D02*
X137678000Y-102550000D01*
X148590000Y-99249500D02*
X149810600Y-99249500D01*
X152146000Y-106185000D02*
X152921000Y-105410000D01*
X149810600Y-99249500D02*
X154786600Y-104225500D01*
X143475700Y-108296700D02*
X146143100Y-110964100D01*
X147651400Y-100188100D02*
X148590000Y-99249500D01*
X152337000Y-108458000D02*
X150177000Y-108458000D01*
X141096000Y-105918000D02*
X141096000Y-106820300D01*
X152146000Y-106185000D02*
X152337000Y-106376000D01*
X142798000Y-105918000D02*
X141096000Y-105918000D01*
X145927000Y-101390000D02*
X145927000Y-100188100D01*
X151892000Y-90437000D02*
X151892000Y-95009000D01*
X134112000Y-102550000D02*
X131572000Y-100010000D01*
X154391700Y-105410000D02*
X154940000Y-105958300D01*
X131572000Y-100010000D02*
X131572000Y-98831500D01*
X154786600Y-104225500D02*
X154786600Y-105015100D01*
X145927000Y-100188100D02*
X147651400Y-100188100D01*
X147111100Y-112014000D02*
X147320000Y-112014000D01*
X143475700Y-107195000D02*
X143475700Y-108296700D01*
X141096000Y-106820300D02*
X143101000Y-106820300D01*
X143101000Y-106820300D02*
X143475700Y-107195000D01*
X130731000Y-97990400D02*
X130671600Y-98049800D01*
X130765400Y-90437000D02*
X128899100Y-92303300D01*
X154786600Y-105015100D02*
X154391700Y-105410000D01*
X137678000Y-102550000D02*
X136652000Y-102550000D01*
X146143100Y-110964100D02*
X146143100Y-112014000D01*
X130731000Y-97990400D02*
X131572000Y-98831500D01*
X141096000Y-106820300D02*
X141096000Y-107696000D01*
X136652000Y-102550000D02*
X136652000Y-102121000D01*
X151892000Y-95009000D02*
X148590000Y-98311000D01*
X128899100Y-96158600D02*
X130731000Y-97990400D01*
X141096000Y-105918000D02*
X141046000Y-105918000D01*
X134112000Y-102550000D02*
X136652000Y-102550000D01*
X134620000Y-90437000D02*
X130765400Y-90437000D01*
X147111100Y-112014000D02*
X146143100Y-112014000D01*
%TO.N,IAP*%
X150355000Y-102616000D02*
X150355000Y-103495700D01*
X142929100Y-103495700D02*
X150355000Y-103495700D01*
X148640000Y-104635000D02*
X148590000Y-104585000D01*
X150355000Y-104622000D02*
X150368000Y-104635000D01*
X142027000Y-101390000D02*
X142027000Y-102593600D01*
X150355000Y-103495700D02*
X150355000Y-104622000D01*
X150368000Y-104635000D02*
X148640000Y-104635000D01*
X142027000Y-102593600D02*
X142929100Y-103495700D01*
%TO.N,UP*%
X143977000Y-101390000D02*
X143977000Y-100188100D01*
X140391700Y-104038500D02*
X142468500Y-104038500D01*
X141916100Y-99285800D02*
X140989500Y-98359200D01*
X142468500Y-104038500D02*
X144348000Y-105918000D01*
X143074700Y-99285800D02*
X141916100Y-99285800D01*
X140989500Y-98359200D02*
X140391700Y-98359200D01*
X144348000Y-105918000D02*
X144398000Y-105968000D01*
X144398000Y-105968000D02*
X144398000Y-107696000D01*
X143977000Y-100188100D02*
X143074700Y-99285800D01*
%TO.N,UN*%
X139446000Y-107696000D02*
X139446000Y-105968000D01*
X139406900Y-107735100D02*
X138428100Y-107735100D01*
X143327000Y-101390000D02*
X143327000Y-100188100D01*
X139446000Y-105968000D02*
X139496000Y-105918000D01*
X141400900Y-100188100D02*
X141119400Y-99906600D01*
X143327000Y-100188100D02*
X141400900Y-100188100D01*
X139446000Y-107696000D02*
X139406900Y-107735100D01*
%TO.N,Net-(U1-REFIN{slash}OUT)*%
X145277000Y-100074000D02*
X148590000Y-96761000D01*
X145277000Y-101390000D02*
X145277000Y-100074000D01*
%TO.N,GNDD*%
X140716000Y-95392000D02*
X140716000Y-95391900D01*
X138528800Y-95843800D02*
X140264200Y-95843800D01*
X134112000Y-93538000D02*
X131572000Y-96078000D01*
X141377000Y-94190000D02*
X141377000Y-95391900D01*
X134112000Y-93538000D02*
X136223000Y-93538000D01*
X136223000Y-93538000D02*
X136652000Y-93967000D01*
X131572000Y-96078000D02*
X131572000Y-97256500D01*
X140264200Y-95843800D02*
X140716000Y-95392000D01*
X140716000Y-95391900D02*
X141377000Y-95391900D01*
X136652000Y-93967000D02*
X138528800Y-95843800D01*
%TO.N,VIN*%
X139427000Y-100345100D02*
X137525100Y-98443200D01*
X136652000Y-96433100D02*
X136338400Y-96746700D01*
X136338400Y-97256500D02*
X136338400Y-98443200D01*
X132553769Y-96659390D02*
X133150879Y-97256500D01*
X139427000Y-101390000D02*
X139427000Y-100789000D01*
X134112000Y-95438000D02*
X135420700Y-96746700D01*
X136338400Y-96746700D02*
X136338400Y-97256500D01*
X135420700Y-96746700D02*
X136338400Y-96746700D01*
X139427000Y-100345100D02*
X139427000Y-100188100D01*
X136338400Y-98443200D02*
X136319200Y-98443200D01*
X137525100Y-98443200D02*
X136338400Y-98443200D01*
X133150879Y-97256500D02*
X134112000Y-97256500D01*
X139427000Y-100789000D02*
X139427000Y-100345100D01*
X140077000Y-101390000D02*
X140077000Y-100188100D01*
X136652000Y-95517000D02*
X136652000Y-96433100D01*
X139427000Y-100188100D02*
X140077000Y-100188100D01*
X136338400Y-97256500D02*
X134112000Y-97256500D01*
%TO.N,Net-(U1-OSC1)*%
X150603900Y-88887000D02*
X150082900Y-89408000D01*
X147506000Y-89408000D02*
X147506000Y-90734900D01*
X143977000Y-92988100D02*
X145252800Y-92988100D01*
X145252800Y-92988100D02*
X147506000Y-90734900D01*
X147506000Y-89408000D02*
X150082900Y-89408000D01*
X151892000Y-88887000D02*
X150603900Y-88887000D01*
X143977000Y-94190000D02*
X143977000Y-92988100D01*
%TO.N,Net-(U1-OSC2)*%
X143327000Y-92988100D02*
X141073800Y-90734900D01*
X143327000Y-94190000D02*
X143327000Y-92988100D01*
X141073800Y-90734900D02*
X139006000Y-90734900D01*
X139006000Y-89408000D02*
X136429100Y-89408000D01*
X134620000Y-88887000D02*
X135908100Y-88887000D01*
X139006000Y-89408000D02*
X139006000Y-90734900D01*
X135908100Y-88887000D02*
X136429100Y-89408000D01*
%TO.N,Net-(U1-AVDD)*%
X140727000Y-101390000D02*
X140727000Y-102591900D01*
X140727000Y-102591900D02*
X138672900Y-102591900D01*
X136573000Y-100650000D02*
X136652000Y-100571000D01*
X134112000Y-100650000D02*
X136573000Y-100650000D01*
X134112000Y-100650000D02*
X134112000Y-98831500D01*
X138672900Y-102591900D02*
X136652000Y-100571000D01*
%TO.N,UP_IN*%
X144780000Y-112014000D02*
X144780000Y-110837100D01*
X142748000Y-108805100D02*
X144780000Y-110837100D01*
X142748000Y-107696000D02*
X142748000Y-108805100D01*
%TO.N,IAN_IN*%
X149860000Y-112014000D02*
X149860000Y-110837100D01*
X153084700Y-107074300D02*
X153084700Y-108956500D01*
X149329700Y-109260700D02*
X148527000Y-108458000D01*
X153084700Y-108956500D02*
X152780500Y-109260700D01*
X152780500Y-109260700D02*
X149860000Y-109260700D01*
X149860000Y-110837100D02*
X149860000Y-109260700D01*
X153924000Y-106235000D02*
X153084700Y-107074300D01*
X149860000Y-109260700D02*
X149329700Y-109260700D01*
%TO.N,IAP_IN*%
X152400000Y-111538900D02*
X152400000Y-110837100D01*
X152400000Y-110837100D02*
X153987000Y-109250100D01*
X153987000Y-109250100D02*
X153987000Y-108458000D01*
X152400000Y-111538900D02*
X152400000Y-112014000D01*
X153924000Y-108395000D02*
X153987000Y-108458000D01*
X149797000Y-107442000D02*
X151130000Y-107442000D01*
X148590000Y-106235000D02*
X149797000Y-107442000D01*
X153924000Y-107442000D02*
X153924000Y-108395000D01*
%TO.N,G0*%
X144627000Y-95391900D02*
X143982600Y-96036300D01*
X143982600Y-96036300D02*
X141111600Y-96036300D01*
X144627000Y-94190000D02*
X144627000Y-95391900D01*
X141111600Y-96036300D02*
X141005100Y-96142800D01*
%TO.N,G1*%
X143918800Y-96763200D02*
X141869900Y-96763200D01*
X145277000Y-94190000D02*
X145277000Y-95405000D01*
X145277000Y-95405000D02*
X143918800Y-96763200D01*
%TO.N,FOUT0*%
X139089200Y-92650300D02*
X129631300Y-92650300D01*
X139427000Y-92988100D02*
X139089200Y-92650300D01*
X139427000Y-94190000D02*
X139427000Y-92988100D01*
%TO.N,FOUT1*%
X139012900Y-95391900D02*
X138269500Y-94648500D01*
X140077000Y-95391900D02*
X139012900Y-95391900D01*
X140077000Y-94190000D02*
X140077000Y-95391900D01*
X138269500Y-94648500D02*
X138269500Y-94511300D01*
%TO.N,HFOUT*%
X140727000Y-93226000D02*
X140727000Y-94190000D01*
X130677000Y-91632000D02*
X139133000Y-91632000D01*
X139133000Y-91632000D02*
X140727000Y-93226000D01*
%TO.N,~{MCLR}*%
X144627000Y-101390000D02*
X144627000Y-102591900D01*
X146988400Y-102591900D02*
X147408700Y-102171600D01*
X144627000Y-102591900D02*
X146988400Y-102591900D01*
%TO.N,SCK{slash}F2*%
X152908000Y-88650183D02*
X152908000Y-97028000D01*
X152908000Y-97028000D02*
X150876000Y-99060000D01*
X128449100Y-103303100D02*
X128449100Y-92022900D01*
X128449100Y-92022900D02*
X132588000Y-87884000D01*
X148181049Y-100683049D02*
X147283951Y-100683049D01*
X147283951Y-100683049D02*
X146577000Y-101390000D01*
X132588000Y-87884000D02*
X152141817Y-87884000D01*
X152141817Y-87884000D02*
X152908000Y-88650183D01*
X137160000Y-112014000D02*
X128449100Y-103303100D01*
%TO.N,MOSI{slash}F1*%
X143789500Y-98264300D02*
X146577000Y-95476800D01*
X146577000Y-95476800D02*
X146577000Y-94190000D01*
X141999600Y-98264300D02*
X143789500Y-98264300D01*
%TO.N,~{CS}{slash}F0*%
X145927000Y-95391900D02*
X145927000Y-95471800D01*
X143908700Y-97490100D02*
X137657900Y-97490100D01*
X145927000Y-95471800D02*
X143908700Y-97490100D01*
X145927000Y-94190000D02*
X145927000Y-95391900D01*
%TO.N,MISO{slash}NEG*%
X142027000Y-94190000D02*
X142027000Y-92988100D01*
X141738600Y-92988100D02*
X141436400Y-92685900D01*
X142027000Y-92988100D02*
X141738600Y-92988100D01*
%TD*%
%TA.AperFunction,Conductor*%
%TO.N,GND*%
G36*
X147564588Y-104140885D02*
G01*
X147610343Y-104193689D01*
X147621040Y-104256423D01*
X147620914Y-104257801D01*
X147620914Y-104257804D01*
X147614500Y-104328384D01*
X147614500Y-104841616D01*
X147615635Y-104854105D01*
X147620913Y-104912192D01*
X147620913Y-104912194D01*
X147620914Y-104912196D01*
X147671522Y-105074606D01*
X147759528Y-105220185D01*
X147861662Y-105322319D01*
X147895146Y-105383640D01*
X147890162Y-105453332D01*
X147861662Y-105497680D01*
X147759529Y-105599813D01*
X147671522Y-105745393D01*
X147620913Y-105907807D01*
X147614500Y-105978386D01*
X147614500Y-106491613D01*
X147620913Y-106562192D01*
X147620913Y-106562194D01*
X147620914Y-106562196D01*
X147671522Y-106724606D01*
X147752159Y-106857996D01*
X147759530Y-106870188D01*
X147879811Y-106990469D01*
X147879813Y-106990470D01*
X147879815Y-106990472D01*
X148025394Y-107078478D01*
X148187804Y-107129086D01*
X148258384Y-107135500D01*
X148554548Y-107135500D01*
X148621587Y-107155185D01*
X148642229Y-107171819D01*
X148741229Y-107270819D01*
X148774714Y-107332142D01*
X148769730Y-107401834D01*
X148727858Y-107457767D01*
X148662394Y-107482184D01*
X148653548Y-107482500D01*
X148270384Y-107482500D01*
X148251145Y-107484248D01*
X148199807Y-107488913D01*
X148037393Y-107539522D01*
X147891811Y-107627530D01*
X147771530Y-107747811D01*
X147683522Y-107893393D01*
X147632913Y-108055807D01*
X147626500Y-108126386D01*
X147626500Y-108789613D01*
X147632913Y-108860192D01*
X147632913Y-108860194D01*
X147632914Y-108860196D01*
X147648608Y-108910560D01*
X147683522Y-109022606D01*
X147771530Y-109168188D01*
X147891811Y-109288469D01*
X147891813Y-109288470D01*
X147891815Y-109288472D01*
X148037394Y-109376478D01*
X148199804Y-109427086D01*
X148270384Y-109433500D01*
X148566547Y-109433500D01*
X148633586Y-109453185D01*
X148654228Y-109469819D01*
X148828897Y-109644488D01*
X148838722Y-109656751D01*
X148838943Y-109656569D01*
X148843914Y-109662578D01*
X148856935Y-109674805D01*
X148894335Y-109709926D01*
X148915229Y-109730820D01*
X148920711Y-109735073D01*
X148925143Y-109738857D01*
X148959118Y-109770762D01*
X148976676Y-109780414D01*
X148992935Y-109791095D01*
X149008764Y-109803373D01*
X149051538Y-109821882D01*
X149056756Y-109824438D01*
X149097608Y-109846897D01*
X149117016Y-109851880D01*
X149135406Y-109858175D01*
X149153804Y-109866137D01*
X149153808Y-109866137D01*
X149159744Y-109868706D01*
X149213453Y-109913395D01*
X149234475Y-109980027D01*
X149234500Y-109982509D01*
X149234500Y-110738773D01*
X149214815Y-110805812D01*
X149181623Y-110840348D01*
X148988597Y-110975505D01*
X148821508Y-111142594D01*
X148691269Y-111328595D01*
X148636692Y-111372219D01*
X148567193Y-111379412D01*
X148504839Y-111347890D01*
X148488119Y-111328594D01*
X148358113Y-111142926D01*
X148358108Y-111142920D01*
X148191082Y-110975894D01*
X147997578Y-110840399D01*
X147783492Y-110740570D01*
X147783486Y-110740567D01*
X147570000Y-110683364D01*
X147570000Y-111401698D01*
X147550315Y-111468737D01*
X147497511Y-111514492D01*
X147428355Y-111524436D01*
X147355766Y-111514000D01*
X147355763Y-111514000D01*
X147284237Y-111514000D01*
X147284233Y-111514000D01*
X147211645Y-111524436D01*
X147142487Y-111514492D01*
X147089684Y-111468736D01*
X147070000Y-111401698D01*
X147070000Y-110683364D01*
X147069999Y-110683364D01*
X146856513Y-110740567D01*
X146856507Y-110740570D01*
X146642422Y-110840399D01*
X146642420Y-110840400D01*
X146448926Y-110975886D01*
X146448920Y-110975891D01*
X146281891Y-111142920D01*
X146281890Y-111142922D01*
X146151880Y-111328595D01*
X146097303Y-111372219D01*
X146027804Y-111379412D01*
X145965450Y-111347890D01*
X145948730Y-111328594D01*
X145818494Y-111142597D01*
X145651402Y-110975506D01*
X145651396Y-110975501D01*
X145455595Y-110838400D01*
X145411970Y-110783823D01*
X145403945Y-110746181D01*
X145403931Y-110746184D01*
X145403888Y-110745917D01*
X145402779Y-110740712D01*
X145402775Y-110740570D01*
X145402709Y-110738473D01*
X145397122Y-110719244D01*
X145393174Y-110700184D01*
X145390663Y-110680304D01*
X145373512Y-110636987D01*
X145371619Y-110631458D01*
X145358618Y-110586709D01*
X145358616Y-110586706D01*
X145348423Y-110569471D01*
X145339861Y-110551994D01*
X145332487Y-110533370D01*
X145332486Y-110533368D01*
X145305079Y-110495645D01*
X145301888Y-110490786D01*
X145287536Y-110466518D01*
X145278170Y-110450680D01*
X145278168Y-110450678D01*
X145278165Y-110450674D01*
X145264006Y-110436515D01*
X145251368Y-110421719D01*
X145239594Y-110405513D01*
X145235028Y-110401736D01*
X145203688Y-110375809D01*
X145199376Y-110371886D01*
X143456255Y-108628764D01*
X143422770Y-108567441D01*
X143427754Y-108497749D01*
X143456251Y-108453405D01*
X143485320Y-108424336D01*
X143546639Y-108390853D01*
X143616331Y-108395836D01*
X143660680Y-108424338D01*
X143762811Y-108526469D01*
X143762813Y-108526470D01*
X143762815Y-108526472D01*
X143908394Y-108614478D01*
X144070804Y-108665086D01*
X144141384Y-108671500D01*
X144141387Y-108671500D01*
X144654613Y-108671500D01*
X144654616Y-108671500D01*
X144725196Y-108665086D01*
X144887606Y-108614478D01*
X145033185Y-108526472D01*
X145153472Y-108406185D01*
X145241478Y-108260606D01*
X145292086Y-108098196D01*
X145298500Y-108027616D01*
X145298500Y-107364384D01*
X145292086Y-107293804D01*
X145241478Y-107131394D01*
X145153472Y-106985815D01*
X145153470Y-106985813D01*
X145153469Y-106985811D01*
X145059819Y-106892161D01*
X145026334Y-106830838D01*
X145023500Y-106804480D01*
X145023500Y-106794874D01*
X145043185Y-106727835D01*
X145059819Y-106707193D01*
X145099393Y-106667619D01*
X145145968Y-106621044D01*
X145235003Y-106476697D01*
X145288349Y-106315708D01*
X145298500Y-106216345D01*
X145298499Y-105619656D01*
X145288349Y-105520292D01*
X145235003Y-105359303D01*
X145234999Y-105359297D01*
X145234998Y-105359294D01*
X145145970Y-105214959D01*
X145145967Y-105214955D01*
X145026044Y-105095032D01*
X145026040Y-105095029D01*
X144881705Y-105006001D01*
X144881699Y-105005998D01*
X144881697Y-105005997D01*
X144881694Y-105005996D01*
X144720709Y-104952651D01*
X144621352Y-104942500D01*
X144621345Y-104942500D01*
X144308453Y-104942500D01*
X144241414Y-104922815D01*
X144220772Y-104906181D01*
X143647472Y-104332881D01*
X143613987Y-104271558D01*
X143618971Y-104201866D01*
X143660843Y-104145933D01*
X143726307Y-104121516D01*
X143735153Y-104121200D01*
X147497549Y-104121200D01*
X147564588Y-104140885D01*
G37*
%TD.AperFunction*%
%TA.AperFunction,Conductor*%
G36*
X132829539Y-93295485D02*
G01*
X132875294Y-93348289D01*
X132886500Y-93399800D01*
X132886500Y-93827545D01*
X132866815Y-93894584D01*
X132850181Y-93915226D01*
X131188208Y-95577199D01*
X131175951Y-95587020D01*
X131176134Y-95587241D01*
X131170123Y-95592213D01*
X131122772Y-95642636D01*
X131101889Y-95663519D01*
X131101877Y-95663532D01*
X131097621Y-95669017D01*
X131093837Y-95673447D01*
X131061937Y-95707418D01*
X131061936Y-95707420D01*
X131052284Y-95724976D01*
X131041610Y-95741226D01*
X131029329Y-95757061D01*
X131029324Y-95757068D01*
X131010815Y-95799838D01*
X131008245Y-95805084D01*
X130985803Y-95845906D01*
X130980822Y-95865307D01*
X130974521Y-95883710D01*
X130966562Y-95902102D01*
X130966561Y-95902105D01*
X130959271Y-95948127D01*
X130958087Y-95953846D01*
X130946501Y-95998972D01*
X130946500Y-95998982D01*
X130946500Y-96019016D01*
X130944973Y-96038413D01*
X130941840Y-96058196D01*
X130944181Y-96082956D01*
X130946225Y-96104583D01*
X130946500Y-96110421D01*
X130946500Y-96351234D01*
X130926815Y-96418273D01*
X130887600Y-96456771D01*
X130866608Y-96469719D01*
X130747719Y-96588608D01*
X130747716Y-96588612D01*
X130659455Y-96731704D01*
X130659450Y-96731715D01*
X130636642Y-96800546D01*
X130606564Y-96891315D01*
X130606564Y-96891316D01*
X130606563Y-96891316D01*
X130596500Y-96989818D01*
X130596500Y-97523181D01*
X130606563Y-97621683D01*
X130659450Y-97781284D01*
X130659455Y-97781295D01*
X130747716Y-97924387D01*
X130747719Y-97924392D01*
X130780000Y-97956673D01*
X130813485Y-98017997D01*
X130808499Y-98087688D01*
X130780000Y-98132033D01*
X130748114Y-98163919D01*
X130659908Y-98306922D01*
X130659906Y-98306927D01*
X130607057Y-98466416D01*
X130597000Y-98564849D01*
X130597000Y-98581500D01*
X132546999Y-98581500D01*
X132546999Y-98564864D01*
X132546998Y-98564847D01*
X132536943Y-98466416D01*
X132484093Y-98306927D01*
X132484091Y-98306922D01*
X132395885Y-98163919D01*
X132364000Y-98132034D01*
X132330515Y-98070711D01*
X132335499Y-98001019D01*
X132364000Y-97956672D01*
X132366183Y-97954489D01*
X132396281Y-97924391D01*
X132484549Y-97781287D01*
X132497392Y-97742526D01*
X132537165Y-97685083D01*
X132601680Y-97658260D01*
X132670456Y-97670575D01*
X132699980Y-97691139D01*
X132715514Y-97705726D01*
X132736408Y-97726620D01*
X132741890Y-97730873D01*
X132746322Y-97734657D01*
X132780297Y-97766562D01*
X132797855Y-97776214D01*
X132814112Y-97786893D01*
X132829943Y-97799173D01*
X132849616Y-97807686D01*
X132872712Y-97817682D01*
X132877956Y-97820250D01*
X132918787Y-97842697D01*
X132931402Y-97845935D01*
X132938184Y-97847677D01*
X132956598Y-97853981D01*
X132974983Y-97861938D01*
X133021036Y-97869232D01*
X133026705Y-97870406D01*
X133071860Y-97882000D01*
X133091895Y-97882000D01*
X133111292Y-97883526D01*
X133131075Y-97886660D01*
X133177462Y-97882275D01*
X133183301Y-97882000D01*
X133194168Y-97882000D01*
X133261207Y-97901685D01*
X133281665Y-97920232D01*
X133282613Y-97919285D01*
X133319647Y-97956320D01*
X133353132Y-98017644D01*
X133348146Y-98087335D01*
X133319647Y-98131680D01*
X133287719Y-98163607D01*
X133287716Y-98163612D01*
X133199455Y-98306704D01*
X133199450Y-98306715D01*
X133199380Y-98306927D01*
X133146564Y-98466315D01*
X133146564Y-98466316D01*
X133146563Y-98466316D01*
X133136500Y-98564818D01*
X133136500Y-99098181D01*
X133146563Y-99196683D01*
X133199450Y-99356284D01*
X133199455Y-99356295D01*
X133287716Y-99499387D01*
X133287719Y-99499391D01*
X133321722Y-99533394D01*
X133355207Y-99594717D01*
X133350223Y-99664409D01*
X133308351Y-99720342D01*
X133299138Y-99726614D01*
X133168342Y-99807289D01*
X133044289Y-99931342D01*
X132952187Y-100080663D01*
X132952185Y-100080668D01*
X132928935Y-100150833D01*
X132897001Y-100247203D01*
X132897001Y-100247204D01*
X132897000Y-100247204D01*
X132886500Y-100349983D01*
X132886500Y-100950001D01*
X132886501Y-100950019D01*
X132897000Y-101052796D01*
X132897001Y-101052799D01*
X132952185Y-101219331D01*
X132952187Y-101219336D01*
X132971165Y-101250104D01*
X133044288Y-101368656D01*
X133168344Y-101492712D01*
X133171628Y-101494737D01*
X133171653Y-101494753D01*
X133173445Y-101496746D01*
X133174011Y-101497193D01*
X133173934Y-101497289D01*
X133218379Y-101546699D01*
X133229603Y-101615661D01*
X133201761Y-101679744D01*
X133171665Y-101705826D01*
X133168660Y-101707679D01*
X133168655Y-101707683D01*
X133044684Y-101831654D01*
X132952643Y-101980875D01*
X132952641Y-101980880D01*
X132897494Y-102147302D01*
X132897493Y-102147309D01*
X132887000Y-102250013D01*
X132887000Y-102300000D01*
X135336999Y-102300000D01*
X135336999Y-102250028D01*
X135336998Y-102250013D01*
X135326505Y-102147302D01*
X135271358Y-101980880D01*
X135271356Y-101980875D01*
X135179315Y-101831654D01*
X135055344Y-101707683D01*
X135055341Y-101707681D01*
X135052339Y-101705829D01*
X135050713Y-101704021D01*
X135049677Y-101703202D01*
X135049817Y-101703024D01*
X135005617Y-101653880D01*
X134994397Y-101584917D01*
X135022243Y-101520836D01*
X135052344Y-101494754D01*
X135055656Y-101492712D01*
X135179712Y-101368656D01*
X135200839Y-101334402D01*
X135252787Y-101287679D01*
X135306378Y-101275500D01*
X135710732Y-101275500D01*
X135777771Y-101295185D01*
X135823526Y-101347989D01*
X135833470Y-101417147D01*
X135816271Y-101464597D01*
X135740454Y-101587513D01*
X135740452Y-101587518D01*
X135687144Y-101748393D01*
X135677000Y-101847677D01*
X135677000Y-101871000D01*
X136778000Y-101871000D01*
X136845039Y-101890685D01*
X136890794Y-101943489D01*
X136902000Y-101995000D01*
X136902000Y-103070999D01*
X136950308Y-103070999D01*
X136950322Y-103070998D01*
X137049607Y-103060855D01*
X137210481Y-103007547D01*
X137210492Y-103007542D01*
X137354728Y-102918575D01*
X137354732Y-102918572D01*
X137474572Y-102798732D01*
X137474575Y-102798728D01*
X137563542Y-102654492D01*
X137563548Y-102654479D01*
X137571830Y-102629486D01*
X137611602Y-102572041D01*
X137676117Y-102545217D01*
X137744893Y-102557531D01*
X137777217Y-102580808D01*
X138172097Y-102975688D01*
X138181922Y-102987951D01*
X138182143Y-102987769D01*
X138187114Y-102993778D01*
X138201772Y-103007542D01*
X138237535Y-103041126D01*
X138258429Y-103062020D01*
X138263911Y-103066273D01*
X138268343Y-103070057D01*
X138302318Y-103101962D01*
X138319876Y-103111614D01*
X138336135Y-103122295D01*
X138351964Y-103134573D01*
X138394738Y-103153082D01*
X138399956Y-103155638D01*
X138440808Y-103178097D01*
X138460216Y-103183080D01*
X138478617Y-103189380D01*
X138497004Y-103197337D01*
X138540388Y-103204208D01*
X138543019Y-103204625D01*
X138548739Y-103205809D01*
X138593881Y-103217400D01*
X138613916Y-103217400D01*
X138633314Y-103218926D01*
X138653094Y-103222059D01*
X138653095Y-103222060D01*
X138653095Y-103222059D01*
X138653096Y-103222060D01*
X138699483Y-103217675D01*
X138705322Y-103217400D01*
X139640771Y-103217400D01*
X139707810Y-103237085D01*
X139753565Y-103289889D01*
X139763509Y-103359047D01*
X139734484Y-103422603D01*
X139732921Y-103424372D01*
X139659166Y-103506285D01*
X139564521Y-103670215D01*
X139564518Y-103670222D01*
X139512756Y-103829530D01*
X139506026Y-103850244D01*
X139486240Y-104038500D01*
X139506026Y-104226756D01*
X139506027Y-104226759D01*
X139564518Y-104406777D01*
X139564521Y-104406784D01*
X139659167Y-104570716D01*
X139760885Y-104683685D01*
X139785829Y-104711388D01*
X139795180Y-104718182D01*
X139837846Y-104773512D01*
X139843825Y-104843125D01*
X139811220Y-104904920D01*
X139750381Y-104939277D01*
X139722295Y-104942500D01*
X139222662Y-104942500D01*
X139222644Y-104942501D01*
X139123292Y-104952650D01*
X139123289Y-104952651D01*
X138962305Y-105005996D01*
X138962294Y-105006001D01*
X138817959Y-105095029D01*
X138817955Y-105095032D01*
X138698032Y-105214955D01*
X138698029Y-105214959D01*
X138609001Y-105359294D01*
X138608996Y-105359305D01*
X138555651Y-105520290D01*
X138545500Y-105619647D01*
X138545500Y-106216337D01*
X138545501Y-106216355D01*
X138555650Y-106315707D01*
X138555651Y-106315710D01*
X138608996Y-106476694D01*
X138609001Y-106476705D01*
X138698029Y-106621040D01*
X138698032Y-106621044D01*
X138720542Y-106643554D01*
X138754027Y-106704877D01*
X138749043Y-106774569D01*
X138707171Y-106830502D01*
X138641707Y-106854919D01*
X138607082Y-106852526D01*
X138522746Y-106834600D01*
X138333454Y-106834600D01*
X138300997Y-106841498D01*
X138148297Y-106873955D01*
X138148292Y-106873957D01*
X137975370Y-106950948D01*
X137975365Y-106950951D01*
X137822229Y-107062211D01*
X137695566Y-107202885D01*
X137600921Y-107366815D01*
X137600918Y-107366822D01*
X137545787Y-107536500D01*
X137542426Y-107546844D01*
X137522640Y-107735100D01*
X137542426Y-107923356D01*
X137542427Y-107923359D01*
X137600918Y-108103377D01*
X137600921Y-108103384D01*
X137695567Y-108267316D01*
X137805581Y-108389499D01*
X137822229Y-108407988D01*
X137975365Y-108519248D01*
X137975370Y-108519251D01*
X138148292Y-108596242D01*
X138148297Y-108596244D01*
X138333454Y-108635600D01*
X138333455Y-108635600D01*
X138522744Y-108635600D01*
X138522746Y-108635600D01*
X138707903Y-108596244D01*
X138774467Y-108566606D01*
X138843716Y-108557321D01*
X138889052Y-108573769D01*
X138911798Y-108587519D01*
X138956394Y-108614478D01*
X139118804Y-108665086D01*
X139189384Y-108671500D01*
X139189387Y-108671500D01*
X139702613Y-108671500D01*
X139702616Y-108671500D01*
X139773196Y-108665086D01*
X139935606Y-108614478D01*
X140081185Y-108526472D01*
X140183673Y-108423983D01*
X140244994Y-108390499D01*
X140314685Y-108395483D01*
X140359034Y-108423984D01*
X140461122Y-108526072D01*
X140606604Y-108614019D01*
X140606603Y-108614019D01*
X140768894Y-108664590D01*
X140768893Y-108664590D01*
X140839408Y-108670998D01*
X140839426Y-108670999D01*
X140845999Y-108670998D01*
X140846000Y-108670998D01*
X140846000Y-106932999D01*
X140832319Y-106919319D01*
X140798834Y-106857996D01*
X140796000Y-106831638D01*
X140796000Y-104921018D01*
X140815685Y-104853979D01*
X140847115Y-104820700D01*
X140885541Y-104792782D01*
X140997571Y-104711388D01*
X141000488Y-104708147D01*
X141003300Y-104705026D01*
X141062787Y-104668379D01*
X141095448Y-104664000D01*
X142158048Y-104664000D01*
X142225087Y-104683685D01*
X142245729Y-104700319D01*
X142338192Y-104792782D01*
X142371677Y-104854105D01*
X142366693Y-104923797D01*
X142324821Y-104979730D01*
X142289517Y-104998168D01*
X142264522Y-105006450D01*
X142264507Y-105006457D01*
X142120271Y-105095424D01*
X142009681Y-105206014D01*
X141948358Y-105239498D01*
X141878666Y-105234514D01*
X141834319Y-105206014D01*
X141723728Y-105095424D01*
X141579492Y-105006457D01*
X141579481Y-105006452D01*
X141418606Y-104953144D01*
X141319322Y-104943000D01*
X141296000Y-104943000D01*
X141296000Y-105668000D01*
X142924000Y-105668000D01*
X142991039Y-105687685D01*
X143036794Y-105740489D01*
X143048000Y-105792000D01*
X143048000Y-106044000D01*
X143028315Y-106111039D01*
X142975511Y-106156794D01*
X142924000Y-106168000D01*
X141296000Y-106168000D01*
X141296000Y-106681000D01*
X141309681Y-106694681D01*
X141343166Y-106756004D01*
X141346000Y-106782362D01*
X141346000Y-108670999D01*
X141352581Y-108670999D01*
X141423102Y-108664591D01*
X141423107Y-108664590D01*
X141585396Y-108614018D01*
X141730877Y-108526072D01*
X141730878Y-108526071D01*
X141833963Y-108422985D01*
X141895286Y-108389499D01*
X141964977Y-108394483D01*
X142009326Y-108422983D01*
X142086182Y-108499839D01*
X142119666Y-108561160D01*
X142122500Y-108587519D01*
X142122500Y-108722355D01*
X142120775Y-108737972D01*
X142121061Y-108737999D01*
X142120326Y-108745765D01*
X142122500Y-108814914D01*
X142122500Y-108844443D01*
X142122501Y-108844460D01*
X142123368Y-108851331D01*
X142123826Y-108857150D01*
X142125290Y-108903724D01*
X142125291Y-108903727D01*
X142130880Y-108922967D01*
X142134824Y-108942011D01*
X142137336Y-108961892D01*
X142154210Y-109004512D01*
X142154490Y-109005219D01*
X142156382Y-109010747D01*
X142164423Y-109038424D01*
X142169382Y-109055490D01*
X142174031Y-109063352D01*
X142179580Y-109072734D01*
X142188136Y-109090200D01*
X142195514Y-109108832D01*
X142222898Y-109146523D01*
X142226106Y-109151407D01*
X142249827Y-109191516D01*
X142249833Y-109191524D01*
X142263990Y-109205680D01*
X142276628Y-109220476D01*
X142288405Y-109236686D01*
X142288406Y-109236687D01*
X142324309Y-109266388D01*
X142328620Y-109270310D01*
X143149713Y-110091403D01*
X143883525Y-110825215D01*
X143917010Y-110886538D01*
X143912026Y-110956230D01*
X143883526Y-111000577D01*
X143741505Y-111142597D01*
X143611574Y-111328160D01*
X143556997Y-111371784D01*
X143487498Y-111378977D01*
X143425144Y-111347455D01*
X143408429Y-111328164D01*
X143283727Y-111150071D01*
X143278493Y-111142596D01*
X143111402Y-110975506D01*
X143111395Y-110975501D01*
X142917834Y-110839967D01*
X142917830Y-110839965D01*
X142914474Y-110838400D01*
X142703663Y-110740097D01*
X142703659Y-110740096D01*
X142703655Y-110740094D01*
X142475413Y-110678938D01*
X142475403Y-110678936D01*
X142240001Y-110658341D01*
X142239999Y-110658341D01*
X142004596Y-110678936D01*
X142004586Y-110678938D01*
X141776344Y-110740094D01*
X141776335Y-110740098D01*
X141562171Y-110839964D01*
X141562169Y-110839965D01*
X141368597Y-110975505D01*
X141201505Y-111142597D01*
X141071575Y-111328158D01*
X141016998Y-111371783D01*
X140947500Y-111378977D01*
X140885145Y-111347454D01*
X140868425Y-111328158D01*
X140738494Y-111142597D01*
X140571402Y-110975506D01*
X140571395Y-110975501D01*
X140377834Y-110839967D01*
X140377830Y-110839965D01*
X140374474Y-110838400D01*
X140163663Y-110740097D01*
X140163659Y-110740096D01*
X140163655Y-110740094D01*
X139935413Y-110678938D01*
X139935403Y-110678936D01*
X139700001Y-110658341D01*
X139699999Y-110658341D01*
X139464596Y-110678936D01*
X139464586Y-110678938D01*
X139236344Y-110740094D01*
X139236335Y-110740098D01*
X139022171Y-110839964D01*
X139022169Y-110839965D01*
X138828597Y-110975505D01*
X138661505Y-111142597D01*
X138531575Y-111328158D01*
X138476998Y-111371783D01*
X138407500Y-111378977D01*
X138345145Y-111347454D01*
X138328425Y-111328158D01*
X138198494Y-111142597D01*
X138031402Y-110975506D01*
X138031395Y-110975501D01*
X137837834Y-110839967D01*
X137837830Y-110839965D01*
X137834474Y-110838400D01*
X137623663Y-110740097D01*
X137623659Y-110740096D01*
X137623655Y-110740094D01*
X137395413Y-110678938D01*
X137395403Y-110678936D01*
X137160001Y-110658341D01*
X137159999Y-110658341D01*
X136924596Y-110678936D01*
X136924586Y-110678938D01*
X136824126Y-110705856D01*
X136754276Y-110704193D01*
X136704352Y-110673762D01*
X132910074Y-106879484D01*
X129110919Y-103080328D01*
X129077434Y-103019005D01*
X129074600Y-102992647D01*
X129074600Y-102800000D01*
X132887001Y-102800000D01*
X132887001Y-102849986D01*
X132897494Y-102952697D01*
X132952641Y-103119119D01*
X132952643Y-103119124D01*
X133044684Y-103268345D01*
X133168654Y-103392315D01*
X133317875Y-103484356D01*
X133317880Y-103484358D01*
X133484302Y-103539505D01*
X133484309Y-103539506D01*
X133587019Y-103549999D01*
X133861998Y-103549999D01*
X133861999Y-103549998D01*
X133862000Y-102800000D01*
X134362000Y-102800000D01*
X134362000Y-103549999D01*
X134636972Y-103549999D01*
X134636986Y-103549998D01*
X134739697Y-103539505D01*
X134906119Y-103484358D01*
X134906124Y-103484356D01*
X135055345Y-103392315D01*
X135179315Y-103268345D01*
X135271356Y-103119124D01*
X135271358Y-103119119D01*
X135326505Y-102952697D01*
X135326506Y-102952690D01*
X135336999Y-102849986D01*
X135337000Y-102849973D01*
X135337000Y-102800000D01*
X134362000Y-102800000D01*
X133862000Y-102800000D01*
X132887001Y-102800000D01*
X129074600Y-102800000D01*
X129074600Y-102371000D01*
X135677001Y-102371000D01*
X135677001Y-102394322D01*
X135687144Y-102493607D01*
X135740452Y-102654481D01*
X135740457Y-102654492D01*
X135829424Y-102798728D01*
X135829427Y-102798732D01*
X135949267Y-102918572D01*
X135949271Y-102918575D01*
X136093507Y-103007542D01*
X136093518Y-103007547D01*
X136254393Y-103060855D01*
X136353683Y-103070999D01*
X136401999Y-103070998D01*
X136402000Y-103070998D01*
X136402000Y-102371000D01*
X135677001Y-102371000D01*
X129074600Y-102371000D01*
X129074600Y-99081500D01*
X130597001Y-99081500D01*
X130597001Y-99098152D01*
X130607056Y-99196583D01*
X130659906Y-99356072D01*
X130659908Y-99356077D01*
X130748114Y-99499080D01*
X130866919Y-99617885D01*
X131009922Y-99706091D01*
X131009927Y-99706093D01*
X131169416Y-99758942D01*
X131267855Y-99768999D01*
X131321999Y-99768998D01*
X131322000Y-99768998D01*
X131322000Y-99081500D01*
X131822000Y-99081500D01*
X131822000Y-99768999D01*
X131876136Y-99768999D01*
X131876152Y-99768998D01*
X131974583Y-99758943D01*
X132134072Y-99706093D01*
X132134077Y-99706091D01*
X132277080Y-99617885D01*
X132395885Y-99499080D01*
X132484091Y-99356077D01*
X132484093Y-99356072D01*
X132536942Y-99196583D01*
X132546999Y-99098150D01*
X132547000Y-99098137D01*
X132547000Y-99081500D01*
X131822000Y-99081500D01*
X131322000Y-99081500D01*
X130597001Y-99081500D01*
X129074600Y-99081500D01*
X129074600Y-93579104D01*
X129094285Y-93512065D01*
X129147089Y-93466310D01*
X129216247Y-93456366D01*
X129249036Y-93465825D01*
X129287700Y-93483039D01*
X129351497Y-93511444D01*
X129536654Y-93550800D01*
X129536655Y-93550800D01*
X129725944Y-93550800D01*
X129725946Y-93550800D01*
X129911103Y-93511444D01*
X130084030Y-93434451D01*
X130237171Y-93323188D01*
X130240088Y-93319947D01*
X130242900Y-93316826D01*
X130302387Y-93280179D01*
X130335048Y-93275800D01*
X132762500Y-93275800D01*
X132829539Y-93295485D01*
G37*
%TD.AperFunction*%
%TA.AperFunction,Conductor*%
G36*
X152339039Y-105954685D02*
G01*
X152384794Y-106007489D01*
X152396000Y-106059000D01*
X152396000Y-107134997D01*
X152422881Y-107161878D01*
X152456366Y-107223201D01*
X152459200Y-107249560D01*
X152459200Y-108511200D01*
X152439515Y-108578239D01*
X152386711Y-108623994D01*
X152335200Y-108635200D01*
X150051000Y-108635200D01*
X149983961Y-108615515D01*
X149938206Y-108562711D01*
X149927000Y-108511200D01*
X149927000Y-108332000D01*
X149946685Y-108264961D01*
X149999489Y-108219206D01*
X150051000Y-108208000D01*
X150612606Y-108208000D01*
X150671243Y-108223711D01*
X150671334Y-108223508D01*
X150672616Y-108224079D01*
X150674602Y-108224611D01*
X150677268Y-108226149D01*
X150677270Y-108226151D01*
X150769727Y-108267316D01*
X150850192Y-108303142D01*
X150850197Y-108303144D01*
X151035354Y-108342500D01*
X151035355Y-108342500D01*
X151224644Y-108342500D01*
X151224646Y-108342500D01*
X151409803Y-108303144D01*
X151582730Y-108226151D01*
X151582735Y-108226146D01*
X151585398Y-108224611D01*
X151587383Y-108224079D01*
X151588666Y-108223508D01*
X151588756Y-108223711D01*
X151647394Y-108208000D01*
X152087000Y-108208000D01*
X152087000Y-107482999D01*
X152065279Y-107461282D01*
X152031789Y-107399961D01*
X152029633Y-107386566D01*
X152015674Y-107253744D01*
X151957179Y-107073716D01*
X151950537Y-107062211D01*
X151912613Y-106996524D01*
X151896000Y-106934524D01*
X151896000Y-106435000D01*
X150242000Y-106435000D01*
X150174961Y-106415315D01*
X150129206Y-106362511D01*
X150118000Y-106311000D01*
X150118000Y-106059000D01*
X150137685Y-105991961D01*
X150190489Y-105946206D01*
X150242000Y-105935000D01*
X152272000Y-105935000D01*
X152339039Y-105954685D01*
G37*
%TD.AperFunction*%
%TA.AperFunction,Conductor*%
G36*
X141965334Y-106601485D02*
G01*
X142009681Y-106629986D01*
X142091337Y-106711642D01*
X142124822Y-106772965D01*
X142119838Y-106842657D01*
X142091337Y-106887004D01*
X142009326Y-106969015D01*
X141948003Y-107002500D01*
X141878311Y-106997516D01*
X141833963Y-106969015D01*
X141752307Y-106887358D01*
X141718823Y-106826034D01*
X141723807Y-106756343D01*
X141752308Y-106711995D01*
X141834319Y-106629985D01*
X141895643Y-106596501D01*
X141965334Y-106601485D01*
G37*
%TD.AperFunction*%
%TA.AperFunction,Conductor*%
G36*
X133587539Y-88529185D02*
G01*
X133633294Y-88581989D01*
X133644500Y-88633500D01*
X133644500Y-89160337D01*
X133644501Y-89160355D01*
X133654650Y-89259707D01*
X133654651Y-89259710D01*
X133707996Y-89420694D01*
X133708001Y-89420705D01*
X133797029Y-89565040D01*
X133797032Y-89565044D01*
X133806660Y-89574672D01*
X133840145Y-89635995D01*
X133835161Y-89705687D01*
X133806663Y-89750031D01*
X133797428Y-89759265D01*
X133797424Y-89759271D01*
X133708457Y-89903507D01*
X133708452Y-89903518D01*
X133655144Y-90064393D01*
X133645000Y-90163677D01*
X133645000Y-90187000D01*
X135594999Y-90187000D01*
X135594999Y-90163692D01*
X135594998Y-90163677D01*
X135584855Y-90064392D01*
X135531547Y-89903518D01*
X135531542Y-89903507D01*
X135442575Y-89759271D01*
X135442572Y-89759267D01*
X135433339Y-89750034D01*
X135399854Y-89688711D01*
X135404838Y-89619019D01*
X135433343Y-89574668D01*
X135442968Y-89565044D01*
X135442970Y-89565039D01*
X135447281Y-89559590D01*
X135504303Y-89519213D01*
X135544548Y-89512500D01*
X135597648Y-89512500D01*
X135664687Y-89532185D01*
X135685329Y-89548819D01*
X135928294Y-89791784D01*
X135938117Y-89804045D01*
X135938339Y-89803863D01*
X135943312Y-89809875D01*
X135993736Y-89857227D01*
X136014623Y-89878115D01*
X136014627Y-89878118D01*
X136014629Y-89878120D01*
X136020111Y-89882373D01*
X136024543Y-89886157D01*
X136058518Y-89918062D01*
X136076076Y-89927714D01*
X136092335Y-89938395D01*
X136108164Y-89950673D01*
X136150938Y-89969182D01*
X136156164Y-89971742D01*
X136191239Y-89991025D01*
X136240502Y-90040571D01*
X136255500Y-90099686D01*
X136255500Y-90455869D01*
X136255501Y-90455876D01*
X136261908Y-90515483D01*
X136312202Y-90650328D01*
X136312206Y-90650335D01*
X136398452Y-90765544D01*
X136398453Y-90765544D01*
X136398454Y-90765546D01*
X136405549Y-90770857D01*
X136422082Y-90783234D01*
X136463952Y-90839168D01*
X136468936Y-90908860D01*
X136435450Y-90970183D01*
X136374126Y-91003667D01*
X136347770Y-91006500D01*
X135691332Y-91006500D01*
X135624293Y-90986815D01*
X135578538Y-90934011D01*
X135568594Y-90864853D01*
X135573626Y-90843495D01*
X135584856Y-90809605D01*
X135594999Y-90710322D01*
X135595000Y-90710309D01*
X135595000Y-90687000D01*
X133645001Y-90687000D01*
X133645001Y-90710322D01*
X133655143Y-90809605D01*
X133666374Y-90843495D01*
X133668776Y-90913324D01*
X133633045Y-90973366D01*
X133570524Y-91004559D01*
X133548668Y-91006500D01*
X131380748Y-91006500D01*
X131313709Y-90986815D01*
X131288600Y-90965474D01*
X131282873Y-90959114D01*
X131282869Y-90959110D01*
X131129734Y-90847851D01*
X131129729Y-90847848D01*
X130956807Y-90770857D01*
X130956803Y-90770856D01*
X130874168Y-90753291D01*
X130812687Y-90720098D01*
X130778911Y-90658935D01*
X130783563Y-90589220D01*
X130812267Y-90544322D01*
X132810770Y-88545819D01*
X132872094Y-88512334D01*
X132898452Y-88509500D01*
X133520500Y-88509500D01*
X133587539Y-88529185D01*
G37*
%TD.AperFunction*%
%TA.AperFunction,Conductor*%
G36*
X158013617Y-85852477D02*
G01*
X158048612Y-85856838D01*
X158089682Y-85861957D01*
X158294762Y-85888957D01*
X158299304Y-85889731D01*
X158514278Y-85934807D01*
X158716602Y-85979661D01*
X158720845Y-85980761D01*
X158904802Y-86035527D01*
X158931379Y-86043440D01*
X159129265Y-86105833D01*
X159133088Y-86107179D01*
X159337023Y-86186755D01*
X159337807Y-86187061D01*
X159529664Y-86266531D01*
X159533139Y-86268097D01*
X159680425Y-86340101D01*
X159730622Y-86364641D01*
X159730634Y-86364647D01*
X159914969Y-86460605D01*
X159918072Y-86462336D01*
X160106992Y-86574907D01*
X160282412Y-86686662D01*
X160285127Y-86688494D01*
X160464204Y-86816353D01*
X160629302Y-86943037D01*
X160631630Y-86944914D01*
X160799664Y-87087230D01*
X160954214Y-87228850D01*
X161110940Y-87385575D01*
X161252579Y-87540147D01*
X161394865Y-87708143D01*
X161396742Y-87710471D01*
X161523448Y-87875598D01*
X161651313Y-88054683D01*
X161653140Y-88057391D01*
X161653143Y-88057396D01*
X161653145Y-88057398D01*
X161764884Y-88232794D01*
X161877465Y-88421731D01*
X161879199Y-88424840D01*
X161975151Y-88609164D01*
X162035653Y-88732920D01*
X162071156Y-88805542D01*
X162071688Y-88806629D01*
X162073269Y-88810134D01*
X162152737Y-89001989D01*
X162232600Y-89206660D01*
X162233972Y-89210555D01*
X162296355Y-89408406D01*
X162359030Y-89618928D01*
X162360138Y-89623201D01*
X162404992Y-89825522D01*
X162450059Y-90040455D01*
X162450847Y-90045077D01*
X162454898Y-90075847D01*
X162477855Y-90250227D01*
X162505027Y-90468218D01*
X162505444Y-90473185D01*
X162514442Y-90679297D01*
X162523398Y-90895818D01*
X162523398Y-108675898D01*
X162514410Y-108893196D01*
X162505441Y-109098609D01*
X162505024Y-109103575D01*
X162477852Y-109321566D01*
X162450846Y-109526705D01*
X162450056Y-109531338D01*
X162404988Y-109746280D01*
X162360134Y-109948597D01*
X162359026Y-109952869D01*
X162296352Y-110163389D01*
X162233972Y-110361233D01*
X162232600Y-110365128D01*
X162152730Y-110569817D01*
X162073267Y-110761656D01*
X162071687Y-110765161D01*
X161975154Y-110962622D01*
X161879192Y-111146962D01*
X161877458Y-111150071D01*
X161764888Y-111338991D01*
X161653131Y-111514412D01*
X161651300Y-111517126D01*
X161523446Y-111696197D01*
X161396742Y-111861321D01*
X161394865Y-111863649D01*
X161252566Y-112031661D01*
X161110955Y-112186202D01*
X160954202Y-112342955D01*
X160799661Y-112484566D01*
X160631649Y-112626865D01*
X160629321Y-112628742D01*
X160464197Y-112755446D01*
X160285126Y-112883300D01*
X160282412Y-112885131D01*
X160106991Y-112996888D01*
X159918071Y-113109458D01*
X159914962Y-113111192D01*
X159730622Y-113207154D01*
X159533161Y-113303687D01*
X159529656Y-113305267D01*
X159337817Y-113384730D01*
X159133128Y-113464600D01*
X159129233Y-113465972D01*
X158931389Y-113528352D01*
X158720869Y-113591026D01*
X158716597Y-113592134D01*
X158514280Y-113636988D01*
X158299338Y-113682056D01*
X158294705Y-113682846D01*
X158089566Y-113709852D01*
X157871575Y-113737024D01*
X157866609Y-113737441D01*
X157661196Y-113746410D01*
X157443898Y-113755398D01*
X129503898Y-113755398D01*
X129286599Y-113746410D01*
X129081186Y-113737441D01*
X129076220Y-113737024D01*
X128858225Y-113709851D01*
X128653088Y-113682844D01*
X128648456Y-113682055D01*
X128433523Y-113636988D01*
X128231202Y-113592134D01*
X128226929Y-113591026D01*
X128016407Y-113528351D01*
X127818562Y-113465971D01*
X127814672Y-113464600D01*
X127682159Y-113412894D01*
X127609979Y-113384729D01*
X127418134Y-113305263D01*
X127414630Y-113303683D01*
X127217165Y-113207148D01*
X127032836Y-113111191D01*
X127029728Y-113109458D01*
X126840792Y-112996878D01*
X126665397Y-112885139D01*
X126662682Y-112883307D01*
X126483585Y-112755434D01*
X126410568Y-112699406D01*
X126318451Y-112628722D01*
X126316170Y-112626882D01*
X126148138Y-112484566D01*
X125993587Y-112342946D01*
X125836845Y-112186203D01*
X125695233Y-112031661D01*
X125636426Y-111962228D01*
X125552906Y-111863616D01*
X125551071Y-111861340D01*
X125424352Y-111696197D01*
X125377504Y-111630582D01*
X125296491Y-111517116D01*
X125294668Y-111514414D01*
X125204080Y-111372219D01*
X125182911Y-111338991D01*
X125085652Y-111175768D01*
X125070343Y-111150076D01*
X125068609Y-111146967D01*
X125068606Y-111146962D01*
X124972645Y-110962622D01*
X124952624Y-110921669D01*
X124892044Y-110797749D01*
X124876108Y-110765152D01*
X124874531Y-110761656D01*
X124822892Y-110636987D01*
X124795065Y-110569805D01*
X124756141Y-110470053D01*
X124715185Y-110365090D01*
X124713833Y-110361253D01*
X124651446Y-110163386D01*
X124635255Y-110109002D01*
X126867647Y-110109002D01*
X126887021Y-110330457D01*
X126887022Y-110330465D01*
X126944558Y-110545191D01*
X126944559Y-110545193D01*
X126944560Y-110545196D01*
X126972450Y-110605006D01*
X127038511Y-110746676D01*
X127038513Y-110746679D01*
X127166023Y-110928781D01*
X127323219Y-111085977D01*
X127505323Y-111213488D01*
X127706804Y-111307440D01*
X127706811Y-111307442D01*
X127706814Y-111307443D01*
X127742313Y-111316955D01*
X127745422Y-111317875D01*
X127749745Y-111319279D01*
X127749755Y-111319283D01*
X127758158Y-111321200D01*
X127921537Y-111364978D01*
X127963378Y-111368638D01*
X127971778Y-111369957D01*
X127972179Y-111370049D01*
X127974917Y-111370674D01*
X127974939Y-111370678D01*
X128008563Y-111378351D01*
X128040475Y-111375383D01*
X128143000Y-111384353D01*
X128189024Y-111380326D01*
X128197186Y-111380154D01*
X128200093Y-111380285D01*
X128200098Y-111380284D01*
X128201448Y-111380345D01*
X128201461Y-111380345D01*
X128235036Y-111381853D01*
X128264627Y-111373712D01*
X128364463Y-111364978D01*
X128413183Y-111351923D01*
X128420886Y-111350377D01*
X128426173Y-111349661D01*
X128426175Y-111349660D01*
X128428724Y-111349315D01*
X128428742Y-111349312D01*
X128458510Y-111345279D01*
X128484954Y-111332692D01*
X128561600Y-111312154D01*
X128579186Y-111307443D01*
X128579188Y-111307442D01*
X128579196Y-111307440D01*
X128628821Y-111284299D01*
X128635841Y-111281534D01*
X128643150Y-111279160D01*
X128643156Y-111279156D01*
X128648442Y-111277439D01*
X128648454Y-111277435D01*
X128671940Y-111269803D01*
X128694599Y-111253626D01*
X128780677Y-111213488D01*
X128829124Y-111179564D01*
X128835284Y-111175768D01*
X128844053Y-111171050D01*
X128844056Y-111171047D01*
X128868587Y-111157847D01*
X128887028Y-111139019D01*
X128962781Y-111085977D01*
X129007779Y-111040978D01*
X129012935Y-111036370D01*
X129022423Y-111028805D01*
X129022424Y-111028802D01*
X129027636Y-111024647D01*
X129028654Y-111024231D01*
X129031146Y-111021849D01*
X129042298Y-111012955D01*
X129056294Y-110992463D01*
X129119977Y-110928781D01*
X129159105Y-110872901D01*
X129163196Y-110867676D01*
X129172528Y-110856996D01*
X129172531Y-110856990D01*
X129172709Y-110856787D01*
X129174954Y-110855356D01*
X129179873Y-110848586D01*
X129187621Y-110839717D01*
X129197165Y-110818544D01*
X129247488Y-110746677D01*
X129278324Y-110680548D01*
X129281270Y-110674991D01*
X129286608Y-110666057D01*
X129289634Y-110663257D01*
X129295270Y-110651556D01*
X129300005Y-110643630D01*
X129305296Y-110622706D01*
X129341440Y-110545196D01*
X129341440Y-110545194D01*
X129341442Y-110545191D01*
X129341442Y-110545190D01*
X129351411Y-110507983D01*
X129361583Y-110470021D01*
X129363406Y-110464337D01*
X129365697Y-110458233D01*
X129369010Y-110453827D01*
X129373628Y-110437097D01*
X129375953Y-110430902D01*
X129377384Y-110411051D01*
X129378868Y-110405513D01*
X129398978Y-110330463D01*
X129406198Y-110247930D01*
X129406951Y-110242317D01*
X129410444Y-110223072D01*
X129410444Y-110223067D01*
X129411311Y-110218291D01*
X129411314Y-110218269D01*
X129412694Y-110210660D01*
X129410998Y-110198304D01*
X129411112Y-110193216D01*
X129411326Y-110189314D01*
X129418353Y-110109000D01*
X129411326Y-110028690D01*
X129411112Y-110024780D01*
X129410999Y-110019697D01*
X129413353Y-110010969D01*
X129410746Y-109996600D01*
X129410741Y-109996568D01*
X129410444Y-109994932D01*
X129410444Y-109994928D01*
X129406951Y-109975682D01*
X129406198Y-109970069D01*
X129398978Y-109887537D01*
X129377383Y-109806944D01*
X129377742Y-109791863D01*
X129373629Y-109780905D01*
X129369892Y-109767363D01*
X129365686Y-109759736D01*
X129363410Y-109753671D01*
X129361572Y-109747938D01*
X129358604Y-109736863D01*
X129341440Y-109672804D01*
X129305296Y-109595294D01*
X129302838Y-109579109D01*
X129295267Y-109566437D01*
X129290728Y-109557013D01*
X129286606Y-109551938D01*
X129281279Y-109543022D01*
X129278309Y-109537419D01*
X129247488Y-109471324D01*
X129247487Y-109471322D01*
X129197166Y-109399456D01*
X129191534Y-109382757D01*
X129179872Y-109369409D01*
X129175927Y-109363979D01*
X129172715Y-109361217D01*
X129163193Y-109350318D01*
X129159100Y-109345093D01*
X129119977Y-109289219D01*
X129056295Y-109225537D01*
X129047268Y-109209005D01*
X129031145Y-109196148D01*
X129029158Y-109194248D01*
X129027641Y-109193354D01*
X129012944Y-109181634D01*
X129007754Y-109176996D01*
X128962782Y-109132023D01*
X128887029Y-109078981D01*
X128874536Y-109063352D01*
X128835297Y-109042237D01*
X128829110Y-109038424D01*
X128780682Y-109004515D01*
X128780680Y-109004514D01*
X128780679Y-109004513D01*
X128780677Y-109004512D01*
X128694599Y-108964373D01*
X128678732Y-108950402D01*
X128648007Y-108940418D01*
X128647998Y-108940416D01*
X128635844Y-108936465D01*
X128628801Y-108933690D01*
X128579195Y-108910559D01*
X128484952Y-108885307D01*
X128465955Y-108873728D01*
X128427197Y-108868477D01*
X128420891Y-108867622D01*
X128413165Y-108866070D01*
X128364467Y-108853023D01*
X128364465Y-108853022D01*
X128364463Y-108853022D01*
X128364461Y-108853021D01*
X128364457Y-108853021D01*
X128264623Y-108844287D01*
X128242904Y-108835791D01*
X128197190Y-108837844D01*
X128188998Y-108837670D01*
X128143004Y-108833647D01*
X128142998Y-108833647D01*
X128040463Y-108842617D01*
X128016582Y-108837817D01*
X127972180Y-108847950D01*
X127972179Y-108847951D01*
X127971786Y-108848040D01*
X127963391Y-108849359D01*
X127921540Y-108853021D01*
X127921534Y-108853022D01*
X127758172Y-108896796D01*
X127749744Y-108898719D01*
X127745408Y-108900127D01*
X127742315Y-108901043D01*
X127706806Y-108910558D01*
X127706803Y-108910559D01*
X127505323Y-109004512D01*
X127505319Y-109004514D01*
X127323217Y-109132023D01*
X127166023Y-109289217D01*
X127038514Y-109471319D01*
X127038512Y-109471323D01*
X126944561Y-109672800D01*
X126887022Y-109887535D01*
X126887021Y-109887542D01*
X126867647Y-110108997D01*
X126867647Y-110109002D01*
X124635255Y-110109002D01*
X124588765Y-109952844D01*
X124587663Y-109948592D01*
X124576315Y-109897406D01*
X124542807Y-109746258D01*
X124539569Y-109730815D01*
X124497735Y-109531303D01*
X124496961Y-109526761D01*
X124469947Y-109321566D01*
X124460475Y-109245581D01*
X124460000Y-109237923D01*
X124460000Y-92003094D01*
X127818939Y-92003094D01*
X127823324Y-92049480D01*
X127823599Y-92055317D01*
X127823599Y-103220361D01*
X127821876Y-103235978D01*
X127822160Y-103236005D01*
X127821426Y-103243764D01*
X127823600Y-103312914D01*
X127823600Y-103342443D01*
X127823601Y-103342460D01*
X127824468Y-103349331D01*
X127824926Y-103355150D01*
X127826390Y-103401724D01*
X127826391Y-103401727D01*
X127831980Y-103420967D01*
X127835924Y-103440011D01*
X127838436Y-103459891D01*
X127855590Y-103503219D01*
X127857482Y-103508747D01*
X127869467Y-103549999D01*
X127870482Y-103553490D01*
X127871271Y-103554825D01*
X127880680Y-103570734D01*
X127889236Y-103588200D01*
X127896614Y-103606832D01*
X127923998Y-103644523D01*
X127927206Y-103649407D01*
X127950927Y-103689516D01*
X127950933Y-103689524D01*
X127965090Y-103703680D01*
X127977728Y-103718476D01*
X127989505Y-103734686D01*
X127989506Y-103734687D01*
X128025409Y-103764388D01*
X128029720Y-103768310D01*
X133051022Y-108789613D01*
X134708069Y-110446660D01*
X134741554Y-110507983D01*
X134736570Y-110577675D01*
X134694698Y-110633608D01*
X134629234Y-110658025D01*
X134620388Y-110658341D01*
X134619999Y-110658341D01*
X134384596Y-110678936D01*
X134384586Y-110678938D01*
X134156344Y-110740094D01*
X134156335Y-110740098D01*
X133942171Y-110839964D01*
X133942169Y-110839965D01*
X133748600Y-110975503D01*
X133626673Y-111097430D01*
X133565350Y-111130914D01*
X133495658Y-111125930D01*
X133439725Y-111084058D01*
X133422810Y-111053081D01*
X133373797Y-110921671D01*
X133373793Y-110921664D01*
X133287547Y-110806455D01*
X133287544Y-110806452D01*
X133172335Y-110720206D01*
X133172328Y-110720202D01*
X133037482Y-110669908D01*
X133037483Y-110669908D01*
X132977883Y-110663501D01*
X132977881Y-110663500D01*
X132977873Y-110663500D01*
X132977864Y-110663500D01*
X131182129Y-110663500D01*
X131182123Y-110663501D01*
X131122516Y-110669908D01*
X130987671Y-110720202D01*
X130987664Y-110720206D01*
X130872455Y-110806452D01*
X130872452Y-110806455D01*
X130786206Y-110921664D01*
X130786202Y-110921671D01*
X130735908Y-111056517D01*
X130729501Y-111116116D01*
X130729500Y-111116135D01*
X130729500Y-112911870D01*
X130729501Y-112911876D01*
X130735908Y-112971483D01*
X130786202Y-113106328D01*
X130786206Y-113106335D01*
X130872452Y-113221544D01*
X130872455Y-113221547D01*
X130987664Y-113307793D01*
X130987671Y-113307797D01*
X131122517Y-113358091D01*
X131122516Y-113358091D01*
X131129444Y-113358835D01*
X131182127Y-113364500D01*
X132977872Y-113364499D01*
X133037483Y-113358091D01*
X133172331Y-113307796D01*
X133287546Y-113221546D01*
X133373796Y-113106331D01*
X133422810Y-112974916D01*
X133464681Y-112918984D01*
X133530145Y-112894566D01*
X133598418Y-112909417D01*
X133626672Y-112930569D01*
X133748599Y-113052495D01*
X133832427Y-113111192D01*
X133942165Y-113188032D01*
X133942167Y-113188033D01*
X133942170Y-113188035D01*
X134156337Y-113287903D01*
X134384592Y-113349063D01*
X134561034Y-113364500D01*
X134619999Y-113369659D01*
X134620000Y-113369659D01*
X134620001Y-113369659D01*
X134678966Y-113364500D01*
X134855408Y-113349063D01*
X135083663Y-113287903D01*
X135297830Y-113188035D01*
X135491401Y-113052495D01*
X135658495Y-112885401D01*
X135788424Y-112699842D01*
X135843002Y-112656217D01*
X135912500Y-112649023D01*
X135974855Y-112680546D01*
X135991575Y-112699842D01*
X136121321Y-112885139D01*
X136121505Y-112885401D01*
X136288599Y-113052495D01*
X136372427Y-113111192D01*
X136482165Y-113188032D01*
X136482167Y-113188033D01*
X136482170Y-113188035D01*
X136696337Y-113287903D01*
X136924592Y-113349063D01*
X137101034Y-113364500D01*
X137159999Y-113369659D01*
X137160000Y-113369659D01*
X137160001Y-113369659D01*
X137218966Y-113364500D01*
X137395408Y-113349063D01*
X137623663Y-113287903D01*
X137837830Y-113188035D01*
X138031401Y-113052495D01*
X138198495Y-112885401D01*
X138328424Y-112699842D01*
X138383002Y-112656217D01*
X138452500Y-112649023D01*
X138514855Y-112680546D01*
X138531575Y-112699842D01*
X138661321Y-112885139D01*
X138661505Y-112885401D01*
X138828599Y-113052495D01*
X138912427Y-113111192D01*
X139022165Y-113188032D01*
X139022167Y-113188033D01*
X139022170Y-113188035D01*
X139236337Y-113287903D01*
X139464592Y-113349063D01*
X139641034Y-113364500D01*
X139699999Y-113369659D01*
X139700000Y-113369659D01*
X139700001Y-113369659D01*
X139758966Y-113364500D01*
X139935408Y-113349063D01*
X140163663Y-113287903D01*
X140377830Y-113188035D01*
X140571401Y-113052495D01*
X140738495Y-112885401D01*
X140868424Y-112699842D01*
X140923002Y-112656217D01*
X140992500Y-112649023D01*
X141054855Y-112680546D01*
X141071575Y-112699842D01*
X141201321Y-112885139D01*
X141201505Y-112885401D01*
X141368599Y-113052495D01*
X141452427Y-113111192D01*
X141562165Y-113188032D01*
X141562167Y-113188033D01*
X141562170Y-113188035D01*
X141776337Y-113287903D01*
X142004592Y-113349063D01*
X142181034Y-113364500D01*
X142239999Y-113369659D01*
X142240000Y-113369659D01*
X142240001Y-113369659D01*
X142298966Y-113364500D01*
X142475408Y-113349063D01*
X142703663Y-113287903D01*
X142917830Y-113188035D01*
X143111401Y-113052495D01*
X143278495Y-112885401D01*
X143408424Y-112699842D01*
X143463002Y-112656217D01*
X143532500Y-112649023D01*
X143594855Y-112680546D01*
X143611575Y-112699842D01*
X143741321Y-112885139D01*
X143741505Y-112885401D01*
X143908599Y-113052495D01*
X143992427Y-113111192D01*
X144102165Y-113188032D01*
X144102167Y-113188033D01*
X144102170Y-113188035D01*
X144316337Y-113287903D01*
X144544592Y-113349063D01*
X144721034Y-113364500D01*
X144779999Y-113369659D01*
X144780000Y-113369659D01*
X144780001Y-113369659D01*
X144838966Y-113364500D01*
X145015408Y-113349063D01*
X145243663Y-113287903D01*
X145457830Y-113188035D01*
X145651401Y-113052495D01*
X145818495Y-112885401D01*
X145948730Y-112699405D01*
X146003307Y-112655781D01*
X146072805Y-112648587D01*
X146135160Y-112680110D01*
X146151879Y-112699405D01*
X146281890Y-112885078D01*
X146448917Y-113052105D01*
X146642421Y-113187600D01*
X146856507Y-113287429D01*
X146856516Y-113287433D01*
X147070000Y-113344634D01*
X147070000Y-112626301D01*
X147089685Y-112559262D01*
X147142489Y-112513507D01*
X147211647Y-112503563D01*
X147284237Y-112514000D01*
X147284238Y-112514000D01*
X147355762Y-112514000D01*
X147355763Y-112514000D01*
X147428353Y-112503563D01*
X147497512Y-112513507D01*
X147550315Y-112559262D01*
X147570000Y-112626301D01*
X147570000Y-113344633D01*
X147783483Y-113287433D01*
X147783492Y-113287429D01*
X147997578Y-113187600D01*
X148191082Y-113052105D01*
X148358105Y-112885082D01*
X148488119Y-112699405D01*
X148542696Y-112655781D01*
X148612195Y-112648588D01*
X148674549Y-112680110D01*
X148691269Y-112699405D01*
X148821505Y-112885401D01*
X148988599Y-113052495D01*
X149072427Y-113111192D01*
X149182165Y-113188032D01*
X149182167Y-113188033D01*
X149182170Y-113188035D01*
X149396337Y-113287903D01*
X149624592Y-113349063D01*
X149801034Y-113364500D01*
X149859999Y-113369659D01*
X149860000Y-113369659D01*
X149860001Y-113369659D01*
X149918966Y-113364500D01*
X150095408Y-113349063D01*
X150323663Y-113287903D01*
X150537830Y-113188035D01*
X150731401Y-113052495D01*
X150898495Y-112885401D01*
X151028424Y-112699842D01*
X151083002Y-112656217D01*
X151152500Y-112649023D01*
X151214855Y-112680546D01*
X151231575Y-112699842D01*
X151361321Y-112885139D01*
X151361505Y-112885401D01*
X151528599Y-113052495D01*
X151612427Y-113111192D01*
X151722165Y-113188032D01*
X151722167Y-113188033D01*
X151722170Y-113188035D01*
X151936337Y-113287903D01*
X152164592Y-113349063D01*
X152341034Y-113364500D01*
X152399999Y-113369659D01*
X152400000Y-113369659D01*
X152400001Y-113369659D01*
X152458966Y-113364500D01*
X152635408Y-113349063D01*
X152863663Y-113287903D01*
X153077830Y-113188035D01*
X153271401Y-113052495D01*
X153438495Y-112885401D01*
X153568730Y-112699405D01*
X153623307Y-112655781D01*
X153692805Y-112648587D01*
X153755160Y-112680110D01*
X153771879Y-112699405D01*
X153901890Y-112885078D01*
X154068917Y-113052105D01*
X154262421Y-113187600D01*
X154476507Y-113287429D01*
X154476516Y-113287433D01*
X154690000Y-113344634D01*
X154690000Y-112626301D01*
X154709685Y-112559262D01*
X154762489Y-112513507D01*
X154831647Y-112503563D01*
X154904237Y-112514000D01*
X154904238Y-112514000D01*
X154975762Y-112514000D01*
X154975763Y-112514000D01*
X155048353Y-112503563D01*
X155117512Y-112513507D01*
X155170315Y-112559262D01*
X155190000Y-112626301D01*
X155190000Y-113344633D01*
X155403483Y-113287433D01*
X155403492Y-113287429D01*
X155617578Y-113187600D01*
X155811082Y-113052105D01*
X155978105Y-112885082D01*
X156113600Y-112691578D01*
X156213429Y-112477492D01*
X156213432Y-112477486D01*
X156270636Y-112264000D01*
X155553347Y-112264000D01*
X155486308Y-112244315D01*
X155440553Y-112191511D01*
X155430609Y-112122353D01*
X155434369Y-112105067D01*
X155440000Y-112085888D01*
X155440000Y-111942111D01*
X155434369Y-111922933D01*
X155434370Y-111853064D01*
X155472145Y-111794286D01*
X155535701Y-111765262D01*
X155553347Y-111764000D01*
X156270636Y-111764000D01*
X156270635Y-111763999D01*
X156213432Y-111550513D01*
X156213429Y-111550507D01*
X156113600Y-111336422D01*
X156113599Y-111336420D01*
X155978113Y-111142926D01*
X155978108Y-111142920D01*
X155811082Y-110975894D01*
X155617578Y-110840399D01*
X155403492Y-110740570D01*
X155403486Y-110740567D01*
X155190000Y-110683364D01*
X155190000Y-111401698D01*
X155170315Y-111468737D01*
X155117511Y-111514492D01*
X155048355Y-111524436D01*
X154975766Y-111514000D01*
X154975763Y-111514000D01*
X154904237Y-111514000D01*
X154904233Y-111514000D01*
X154831645Y-111524436D01*
X154762487Y-111514492D01*
X154709684Y-111468736D01*
X154690000Y-111401698D01*
X154690000Y-110683364D01*
X154689999Y-110683364D01*
X154476513Y-110740567D01*
X154476507Y-110740570D01*
X154262422Y-110840399D01*
X154262420Y-110840400D01*
X154068926Y-110975886D01*
X154068920Y-110975891D01*
X153901891Y-111142920D01*
X153901890Y-111142922D01*
X153771880Y-111328595D01*
X153717303Y-111372219D01*
X153647804Y-111379412D01*
X153585450Y-111347890D01*
X153568730Y-111328594D01*
X153438496Y-111142600D01*
X153377389Y-111081493D01*
X153296471Y-111000575D01*
X153262988Y-110939255D01*
X153267972Y-110869563D01*
X153296471Y-110825218D01*
X154012687Y-110109002D01*
X157347647Y-110109002D01*
X157367021Y-110330457D01*
X157367022Y-110330465D01*
X157424558Y-110545191D01*
X157424559Y-110545193D01*
X157424560Y-110545196D01*
X157452450Y-110605006D01*
X157518511Y-110746676D01*
X157518513Y-110746679D01*
X157646023Y-110928781D01*
X157803219Y-111085977D01*
X157985323Y-111213488D01*
X158186804Y-111307440D01*
X158186811Y-111307442D01*
X158186814Y-111307443D01*
X158222313Y-111316955D01*
X158225422Y-111317875D01*
X158229745Y-111319279D01*
X158229755Y-111319283D01*
X158238158Y-111321200D01*
X158401537Y-111364978D01*
X158443378Y-111368638D01*
X158451778Y-111369957D01*
X158452179Y-111370049D01*
X158454917Y-111370674D01*
X158454939Y-111370678D01*
X158488563Y-111378351D01*
X158520475Y-111375383D01*
X158623000Y-111384353D01*
X158669024Y-111380326D01*
X158677186Y-111380154D01*
X158680093Y-111380285D01*
X158680098Y-111380284D01*
X158681448Y-111380345D01*
X158681461Y-111380345D01*
X158715036Y-111381853D01*
X158744627Y-111373712D01*
X158844463Y-111364978D01*
X158893183Y-111351923D01*
X158900886Y-111350377D01*
X158906173Y-111349661D01*
X158906175Y-111349660D01*
X158908724Y-111349315D01*
X158908742Y-111349312D01*
X158938510Y-111345279D01*
X158964954Y-111332692D01*
X159041600Y-111312154D01*
X159059186Y-111307443D01*
X159059188Y-111307442D01*
X159059196Y-111307440D01*
X159108821Y-111284299D01*
X159115841Y-111281534D01*
X159123150Y-111279160D01*
X159123156Y-111279156D01*
X159128442Y-111277439D01*
X159128454Y-111277435D01*
X159151940Y-111269803D01*
X159174599Y-111253626D01*
X159260677Y-111213488D01*
X159309124Y-111179564D01*
X159315284Y-111175768D01*
X159324053Y-111171050D01*
X159324056Y-111171047D01*
X159348587Y-111157847D01*
X159367028Y-111139019D01*
X159442781Y-111085977D01*
X159487779Y-111040978D01*
X159492935Y-111036370D01*
X159502423Y-111028805D01*
X159502424Y-111028802D01*
X159507636Y-111024647D01*
X159508654Y-111024231D01*
X159511146Y-111021849D01*
X159522298Y-111012955D01*
X159536294Y-110992463D01*
X159599977Y-110928781D01*
X159639105Y-110872901D01*
X159643196Y-110867676D01*
X159652528Y-110856996D01*
X159652531Y-110856990D01*
X159652709Y-110856787D01*
X159654954Y-110855356D01*
X159659873Y-110848586D01*
X159667621Y-110839717D01*
X159677165Y-110818544D01*
X159727488Y-110746677D01*
X159758324Y-110680548D01*
X159761270Y-110674991D01*
X159766608Y-110666057D01*
X159769634Y-110663257D01*
X159775270Y-110651556D01*
X159780005Y-110643630D01*
X159785296Y-110622706D01*
X159821440Y-110545196D01*
X159821440Y-110545194D01*
X159821442Y-110545191D01*
X159821442Y-110545190D01*
X159831411Y-110507983D01*
X159841583Y-110470021D01*
X159843406Y-110464337D01*
X159845697Y-110458233D01*
X159849010Y-110453827D01*
X159853628Y-110437097D01*
X159855953Y-110430902D01*
X159857384Y-110411051D01*
X159858868Y-110405513D01*
X159878978Y-110330463D01*
X159886198Y-110247930D01*
X159886951Y-110242317D01*
X159890444Y-110223072D01*
X159890444Y-110223067D01*
X159891311Y-110218291D01*
X159891314Y-110218269D01*
X159892694Y-110210660D01*
X159890998Y-110198304D01*
X159891112Y-110193216D01*
X159891326Y-110189314D01*
X159898353Y-110109000D01*
X159891326Y-110028690D01*
X159891112Y-110024780D01*
X159890999Y-110019697D01*
X159893353Y-110010969D01*
X159890746Y-109996600D01*
X159890741Y-109996568D01*
X159890444Y-109994932D01*
X159890444Y-109994928D01*
X159886951Y-109975682D01*
X159886198Y-109970069D01*
X159878978Y-109887537D01*
X159857383Y-109806944D01*
X159857742Y-109791863D01*
X159853629Y-109780905D01*
X159849892Y-109767363D01*
X159845686Y-109759736D01*
X159843410Y-109753671D01*
X159841572Y-109747938D01*
X159838604Y-109736863D01*
X159821440Y-109672804D01*
X159785296Y-109595294D01*
X159782838Y-109579109D01*
X159775267Y-109566437D01*
X159770728Y-109557013D01*
X159766606Y-109551938D01*
X159761279Y-109543022D01*
X159758309Y-109537419D01*
X159727488Y-109471324D01*
X159727487Y-109471322D01*
X159677166Y-109399456D01*
X159671534Y-109382757D01*
X159659872Y-109369409D01*
X159655927Y-109363979D01*
X159652715Y-109361217D01*
X159643193Y-109350318D01*
X159639100Y-109345093D01*
X159599977Y-109289219D01*
X159536295Y-109225537D01*
X159527268Y-109209005D01*
X159511145Y-109196148D01*
X159509158Y-109194248D01*
X159507641Y-109193354D01*
X159492944Y-109181634D01*
X159487754Y-109176996D01*
X159442782Y-109132023D01*
X159367029Y-109078981D01*
X159354536Y-109063352D01*
X159315297Y-109042237D01*
X159309110Y-109038424D01*
X159260682Y-109004515D01*
X159260680Y-109004514D01*
X159260679Y-109004513D01*
X159260677Y-109004512D01*
X159174599Y-108964373D01*
X159158732Y-108950402D01*
X159128007Y-108940418D01*
X159127998Y-108940416D01*
X159115844Y-108936465D01*
X159108801Y-108933690D01*
X159059195Y-108910559D01*
X158964952Y-108885307D01*
X158945955Y-108873728D01*
X158907197Y-108868477D01*
X158900891Y-108867622D01*
X158893165Y-108866070D01*
X158844467Y-108853023D01*
X158844465Y-108853022D01*
X158844463Y-108853022D01*
X158844461Y-108853021D01*
X158844457Y-108853021D01*
X158744623Y-108844287D01*
X158722904Y-108835791D01*
X158677190Y-108837844D01*
X158668998Y-108837670D01*
X158623004Y-108833647D01*
X158622998Y-108833647D01*
X158520463Y-108842617D01*
X158496582Y-108837817D01*
X158452180Y-108847950D01*
X158452179Y-108847951D01*
X158451786Y-108848040D01*
X158443391Y-108849359D01*
X158401540Y-108853021D01*
X158401534Y-108853022D01*
X158238172Y-108896796D01*
X158229744Y-108898719D01*
X158225408Y-108900127D01*
X158222315Y-108901043D01*
X158186806Y-108910558D01*
X158186803Y-108910559D01*
X157985323Y-109004512D01*
X157985319Y-109004514D01*
X157803217Y-109132023D01*
X157646023Y-109289217D01*
X157518514Y-109471319D01*
X157518512Y-109471323D01*
X157424561Y-109672800D01*
X157367022Y-109887535D01*
X157367021Y-109887542D01*
X157347647Y-110108997D01*
X157347647Y-110109002D01*
X154012687Y-110109002D01*
X154370787Y-109750902D01*
X154383042Y-109741086D01*
X154382859Y-109740864D01*
X154388866Y-109735892D01*
X154388877Y-109735886D01*
X154419775Y-109702982D01*
X154436227Y-109685464D01*
X154446671Y-109675018D01*
X154457120Y-109664571D01*
X154461379Y-109659078D01*
X154465152Y-109654661D01*
X154497062Y-109620682D01*
X154506715Y-109603120D01*
X154517389Y-109586870D01*
X154529673Y-109571036D01*
X154548180Y-109528267D01*
X154550749Y-109523024D01*
X154573196Y-109482193D01*
X154573197Y-109482192D01*
X154578177Y-109462791D01*
X154584478Y-109444388D01*
X154592438Y-109425996D01*
X154599730Y-109379949D01*
X154600911Y-109374252D01*
X154607057Y-109350318D01*
X154612500Y-109329119D01*
X154612500Y-109329117D01*
X154614440Y-109321562D01*
X154617536Y-109322357D01*
X154639519Y-109271836D01*
X154646986Y-109263670D01*
X154742472Y-109168185D01*
X154830478Y-109022606D01*
X154881086Y-108860196D01*
X154887500Y-108789616D01*
X154887500Y-108126384D01*
X154881086Y-108055804D01*
X154830478Y-107893394D01*
X154790674Y-107827552D01*
X154772839Y-107759999D01*
X154778860Y-107725088D01*
X154809674Y-107630256D01*
X154829460Y-107442000D01*
X154809674Y-107253744D01*
X154751179Y-107073716D01*
X154725459Y-107029168D01*
X154708987Y-106961272D01*
X154731839Y-106895245D01*
X154745167Y-106879489D01*
X154754472Y-106870185D01*
X154842478Y-106724606D01*
X154893086Y-106562196D01*
X154899500Y-106491616D01*
X154899500Y-105978384D01*
X154893086Y-105907804D01*
X154842478Y-105745394D01*
X154754472Y-105599815D01*
X154754470Y-105599813D01*
X154754469Y-105599811D01*
X154652339Y-105497681D01*
X154618854Y-105436358D01*
X154623838Y-105366666D01*
X154652339Y-105322319D01*
X154754468Y-105220189D01*
X154754469Y-105220188D01*
X154754469Y-105220187D01*
X154754472Y-105220185D01*
X154842478Y-105074606D01*
X154893086Y-104912196D01*
X154899500Y-104841616D01*
X154899500Y-104328384D01*
X154893086Y-104257804D01*
X154842478Y-104095394D01*
X154754472Y-103949815D01*
X154754470Y-103949813D01*
X154754469Y-103949811D01*
X154634188Y-103829530D01*
X154488606Y-103741522D01*
X154414647Y-103718476D01*
X154326196Y-103690914D01*
X154326194Y-103690913D01*
X154326192Y-103690913D01*
X154276778Y-103686423D01*
X154255616Y-103684500D01*
X153592384Y-103684500D01*
X153573144Y-103686248D01*
X153521807Y-103690913D01*
X153359393Y-103741522D01*
X153213813Y-103829529D01*
X153115358Y-103927984D01*
X153054035Y-103961468D01*
X152984343Y-103956484D01*
X152939996Y-103927983D01*
X152849047Y-103837035D01*
X152849047Y-103837034D01*
X152830400Y-103825532D01*
X152783677Y-103773582D01*
X152771500Y-103719995D01*
X152771500Y-103243104D01*
X152789031Y-103181289D01*
X152788948Y-103181250D01*
X152789190Y-103180729D01*
X152789964Y-103178003D01*
X152790637Y-103176911D01*
X152792003Y-103174697D01*
X152845349Y-103013708D01*
X152855500Y-102914345D01*
X152855499Y-102317656D01*
X152853695Y-102300000D01*
X152845349Y-102218292D01*
X152845348Y-102218289D01*
X152792003Y-102057303D01*
X152791999Y-102057297D01*
X152791998Y-102057294D01*
X152702970Y-101912959D01*
X152702967Y-101912955D01*
X152583044Y-101793032D01*
X152583040Y-101793029D01*
X152438705Y-101704001D01*
X152438699Y-101703998D01*
X152438697Y-101703997D01*
X152365506Y-101679744D01*
X152277709Y-101650651D01*
X152178352Y-101640500D01*
X152178345Y-101640500D01*
X151865453Y-101640500D01*
X151798414Y-101620815D01*
X151777772Y-101604181D01*
X151570303Y-101396712D01*
X151560480Y-101384450D01*
X151560259Y-101384634D01*
X151555286Y-101378623D01*
X151555285Y-101378623D01*
X151504864Y-101331273D01*
X151494419Y-101320828D01*
X151483975Y-101310383D01*
X151478486Y-101306125D01*
X151474061Y-101302347D01*
X151440082Y-101270438D01*
X151440080Y-101270436D01*
X151440077Y-101270435D01*
X151422529Y-101260788D01*
X151406263Y-101250104D01*
X151390433Y-101237825D01*
X151347668Y-101219318D01*
X151342422Y-101216748D01*
X151301593Y-101194303D01*
X151301592Y-101194302D01*
X151282193Y-101189322D01*
X151263781Y-101183018D01*
X151245398Y-101175062D01*
X151245392Y-101175060D01*
X151199374Y-101167772D01*
X151193652Y-101166587D01*
X151148521Y-101155000D01*
X151148519Y-101155000D01*
X151128484Y-101155000D01*
X151109086Y-101153473D01*
X151101662Y-101152297D01*
X151089305Y-101150340D01*
X151089304Y-101150340D01*
X151042916Y-101154725D01*
X151037078Y-101155000D01*
X149397643Y-101155000D01*
X149382022Y-101153275D01*
X149381996Y-101153561D01*
X149374234Y-101152827D01*
X149374233Y-101152827D01*
X149305086Y-101155000D01*
X149275549Y-101155000D01*
X149268666Y-101155869D01*
X149262849Y-101156326D01*
X149216273Y-101157790D01*
X149197029Y-101163381D01*
X149177978Y-101167325D01*
X149155510Y-101170163D01*
X149086533Y-101159035D01*
X149034521Y-101112381D01*
X149015989Y-101045014D01*
X149022039Y-101008826D01*
X149066723Y-100871305D01*
X149086509Y-100683049D01*
X149066723Y-100494793D01*
X149008228Y-100314765D01*
X148913582Y-100150833D01*
X148786920Y-100010161D01*
X148786919Y-100010160D01*
X148633783Y-99898900D01*
X148633778Y-99898897D01*
X148460856Y-99821906D01*
X148460851Y-99821904D01*
X148299058Y-99787515D01*
X148275695Y-99782549D01*
X148086403Y-99782549D01*
X148063040Y-99787515D01*
X147901246Y-99821904D01*
X147901241Y-99821906D01*
X147728319Y-99898897D01*
X147728314Y-99898900D01*
X147575179Y-100010159D01*
X147575175Y-100010163D01*
X147569449Y-100016523D01*
X147509962Y-100053170D01*
X147477301Y-100057549D01*
X147366694Y-100057549D01*
X147351073Y-100055824D01*
X147351046Y-100056110D01*
X147343284Y-100055375D01*
X147274123Y-100057549D01*
X147244600Y-100057549D01*
X147237729Y-100058416D01*
X147231910Y-100058874D01*
X147185325Y-100060338D01*
X147185319Y-100060339D01*
X147166077Y-100065929D01*
X147147038Y-100069872D01*
X147127168Y-100072383D01*
X147127161Y-100072384D01*
X147127159Y-100072385D01*
X147127156Y-100072385D01*
X147119607Y-100074325D01*
X147118863Y-100071428D01*
X147063194Y-100076500D01*
X147043858Y-100071026D01*
X146909488Y-100020910D01*
X146909484Y-100020909D01*
X146909483Y-100020909D01*
X146849873Y-100014500D01*
X146849864Y-100014500D01*
X146520449Y-100014500D01*
X146453410Y-99994815D01*
X146407655Y-99942011D01*
X146397711Y-99872853D01*
X146426736Y-99809297D01*
X146432740Y-99802848D01*
X147464785Y-98770803D01*
X147526104Y-98737321D01*
X147595796Y-98742305D01*
X147651729Y-98784177D01*
X147670167Y-98819480D01*
X147678451Y-98844479D01*
X147678457Y-98844492D01*
X147767424Y-98988728D01*
X147767427Y-98988732D01*
X147887267Y-99108572D01*
X147887271Y-99108575D01*
X148031507Y-99197542D01*
X148031518Y-99197547D01*
X148192393Y-99250855D01*
X148291683Y-99260999D01*
X148339999Y-99260998D01*
X148340000Y-99260998D01*
X148340000Y-98561000D01*
X148840000Y-98561000D01*
X148840000Y-99260999D01*
X148888308Y-99260999D01*
X148888322Y-99260998D01*
X148987607Y-99250855D01*
X149148481Y-99197547D01*
X149148492Y-99197542D01*
X149292728Y-99108575D01*
X149292732Y-99108572D01*
X149412572Y-98988732D01*
X149412575Y-98988728D01*
X149501542Y-98844492D01*
X149501547Y-98844481D01*
X149554855Y-98683606D01*
X149564999Y-98584322D01*
X149565000Y-98584309D01*
X149565000Y-98561000D01*
X148840000Y-98561000D01*
X148340000Y-98561000D01*
X148340000Y-98185000D01*
X148359685Y-98117961D01*
X148412489Y-98072206D01*
X148464000Y-98061000D01*
X149564999Y-98061000D01*
X149564999Y-98037692D01*
X149564998Y-98037677D01*
X149554855Y-97938392D01*
X149501547Y-97777518D01*
X149501542Y-97777507D01*
X149412575Y-97633271D01*
X149412572Y-97633267D01*
X149403339Y-97624034D01*
X149369854Y-97562711D01*
X149374838Y-97493019D01*
X149403343Y-97448668D01*
X149412968Y-97439044D01*
X149502003Y-97294697D01*
X149555349Y-97133708D01*
X149565500Y-97034345D01*
X149565499Y-96487656D01*
X149564954Y-96482325D01*
X149555349Y-96388292D01*
X149555348Y-96388289D01*
X149531051Y-96314966D01*
X149502003Y-96227303D01*
X149501999Y-96227297D01*
X149501998Y-96227294D01*
X149412970Y-96082959D01*
X149412967Y-96082955D01*
X149293044Y-95963032D01*
X149293040Y-95963029D01*
X149148705Y-95874001D01*
X149148699Y-95873998D01*
X149148697Y-95873997D01*
X149068378Y-95847382D01*
X148987709Y-95820651D01*
X148888346Y-95810500D01*
X148291662Y-95810500D01*
X148291644Y-95810501D01*
X148192292Y-95820650D01*
X148192289Y-95820651D01*
X148031305Y-95873996D01*
X148031294Y-95874001D01*
X147886959Y-95963029D01*
X147886955Y-95963032D01*
X147767032Y-96082955D01*
X147767029Y-96082959D01*
X147678001Y-96227294D01*
X147677996Y-96227305D01*
X147624651Y-96388290D01*
X147614500Y-96487647D01*
X147614500Y-96800546D01*
X147594815Y-96867585D01*
X147578181Y-96888227D01*
X144893208Y-99573199D01*
X144880951Y-99583020D01*
X144881134Y-99583241D01*
X144875123Y-99588213D01*
X144827772Y-99638636D01*
X144806889Y-99659519D01*
X144806877Y-99659532D01*
X144802621Y-99665017D01*
X144798837Y-99669447D01*
X144766937Y-99703418D01*
X144766936Y-99703420D01*
X144757284Y-99720976D01*
X144746610Y-99737226D01*
X144734329Y-99753061D01*
X144734324Y-99753068D01*
X144715815Y-99795839D01*
X144713247Y-99801079D01*
X144709835Y-99807287D01*
X144703111Y-99819518D01*
X144653564Y-99868781D01*
X144585248Y-99883436D01*
X144519854Y-99858831D01*
X144487719Y-99822899D01*
X144475170Y-99801680D01*
X144475165Y-99801674D01*
X144461006Y-99787515D01*
X144448368Y-99772719D01*
X144436594Y-99756513D01*
X144432421Y-99753061D01*
X144400688Y-99726809D01*
X144396376Y-99722886D01*
X143773101Y-99099610D01*
X143739616Y-99038287D01*
X143744600Y-98968595D01*
X143786472Y-98912662D01*
X143851936Y-98888245D01*
X143856872Y-98887990D01*
X143888127Y-98887009D01*
X143907369Y-98881417D01*
X143926412Y-98877474D01*
X143946292Y-98874964D01*
X143989622Y-98857807D01*
X143995146Y-98855917D01*
X143998896Y-98854827D01*
X144039890Y-98842918D01*
X144057129Y-98832722D01*
X144074603Y-98824162D01*
X144093227Y-98816788D01*
X144093227Y-98816787D01*
X144093232Y-98816786D01*
X144130949Y-98789382D01*
X144135805Y-98786192D01*
X144175920Y-98762470D01*
X144190089Y-98748299D01*
X144204879Y-98735668D01*
X144221087Y-98723894D01*
X144250799Y-98687976D01*
X144254712Y-98683676D01*
X146960788Y-95977601D01*
X146973042Y-95967786D01*
X146972859Y-95967564D01*
X146978866Y-95962592D01*
X146978877Y-95962586D01*
X147016507Y-95922514D01*
X147026227Y-95912164D01*
X147036671Y-95901718D01*
X147047120Y-95891271D01*
X147051379Y-95885778D01*
X147055152Y-95881361D01*
X147087062Y-95847382D01*
X147096713Y-95829824D01*
X147107396Y-95813561D01*
X147119673Y-95797736D01*
X147138185Y-95754953D01*
X147140738Y-95749741D01*
X147163197Y-95708892D01*
X147168180Y-95689480D01*
X147174481Y-95671080D01*
X147182437Y-95652696D01*
X147189729Y-95606652D01*
X147190906Y-95600971D01*
X147202500Y-95555819D01*
X147202500Y-95535783D01*
X147204027Y-95516382D01*
X147207160Y-95496604D01*
X147202775Y-95450216D01*
X147202500Y-95444380D01*
X147202500Y-95406438D01*
X147222182Y-95339402D01*
X147227212Y-95332154D01*
X147245796Y-95307331D01*
X147296091Y-95172483D01*
X147302500Y-95112873D01*
X147302499Y-93267128D01*
X147296091Y-93207517D01*
X147245796Y-93072669D01*
X147245795Y-93072668D01*
X147245793Y-93072664D01*
X147159547Y-92957455D01*
X147159544Y-92957452D01*
X147044335Y-92871206D01*
X147044328Y-92871202D01*
X146909482Y-92820908D01*
X146909483Y-92820908D01*
X146849883Y-92814501D01*
X146849881Y-92814500D01*
X146849873Y-92814500D01*
X146849865Y-92814500D01*
X146610351Y-92814500D01*
X146543312Y-92794815D01*
X146497557Y-92742011D01*
X146487613Y-92672853D01*
X146516638Y-92609297D01*
X146522670Y-92602819D01*
X147076009Y-92049480D01*
X147889787Y-91235701D01*
X147902042Y-91225886D01*
X147901859Y-91225664D01*
X147907866Y-91220692D01*
X147907877Y-91220686D01*
X147938775Y-91187782D01*
X147955227Y-91170264D01*
X147965671Y-91159818D01*
X147976120Y-91149371D01*
X147980379Y-91143878D01*
X147984152Y-91139461D01*
X148016062Y-91105482D01*
X148025715Y-91087920D01*
X148036389Y-91071670D01*
X148048673Y-91055836D01*
X148067180Y-91013067D01*
X148069744Y-91007831D01*
X148081299Y-90986815D01*
X148089028Y-90972758D01*
X148138576Y-90923496D01*
X148197688Y-90908499D01*
X149803871Y-90908499D01*
X149803872Y-90908499D01*
X149863483Y-90902091D01*
X149998331Y-90851796D01*
X150113546Y-90765546D01*
X150172346Y-90687000D01*
X150917001Y-90687000D01*
X150917001Y-90710322D01*
X150927144Y-90809607D01*
X150980452Y-90970481D01*
X150980457Y-90970492D01*
X151069424Y-91114728D01*
X151069427Y-91114732D01*
X151189267Y-91234572D01*
X151189271Y-91234575D01*
X151333507Y-91323542D01*
X151333518Y-91323547D01*
X151494393Y-91376855D01*
X151593683Y-91386999D01*
X151641999Y-91386998D01*
X151642000Y-91386998D01*
X151642000Y-90687000D01*
X150917001Y-90687000D01*
X150172346Y-90687000D01*
X150199796Y-90650331D01*
X150250091Y-90515483D01*
X150256500Y-90455873D01*
X150256499Y-90101300D01*
X150276183Y-90034262D01*
X150326574Y-89990597D01*
X150326571Y-89990592D01*
X150326601Y-89990573D01*
X150328987Y-89988507D01*
X150331256Y-89987498D01*
X150333282Y-89986620D01*
X150333290Y-89986618D01*
X150350529Y-89976422D01*
X150368003Y-89967862D01*
X150386627Y-89960488D01*
X150386627Y-89960487D01*
X150386632Y-89960486D01*
X150424349Y-89933082D01*
X150429205Y-89929892D01*
X150469320Y-89906170D01*
X150483489Y-89891999D01*
X150498279Y-89879368D01*
X150514487Y-89867594D01*
X150544195Y-89831681D01*
X150548118Y-89827371D01*
X150826673Y-89548818D01*
X150887997Y-89515334D01*
X150914354Y-89512500D01*
X150967453Y-89512500D01*
X151034492Y-89532185D01*
X151064724Y-89559595D01*
X151069036Y-89565049D01*
X151078659Y-89574672D01*
X151112144Y-89635995D01*
X151107160Y-89705687D01*
X151078665Y-89750028D01*
X151069430Y-89759264D01*
X151069424Y-89759271D01*
X150980457Y-89903507D01*
X150980452Y-89903518D01*
X150927144Y-90064393D01*
X150917000Y-90163677D01*
X150917000Y-90187000D01*
X152018000Y-90187000D01*
X152085039Y-90206685D01*
X152130794Y-90259489D01*
X152142000Y-90311000D01*
X152142000Y-91386999D01*
X152158500Y-91386999D01*
X152225539Y-91406684D01*
X152271294Y-91459488D01*
X152282500Y-91510999D01*
X152282500Y-96717547D01*
X152262815Y-96784586D01*
X152246181Y-96805228D01*
X150928228Y-98123181D01*
X150866905Y-98156666D01*
X150840547Y-98159500D01*
X150781354Y-98159500D01*
X150760564Y-98163919D01*
X150596197Y-98198855D01*
X150596192Y-98198857D01*
X150423270Y-98275848D01*
X150423265Y-98275851D01*
X150270129Y-98387111D01*
X150143466Y-98527785D01*
X150048821Y-98691715D01*
X150048818Y-98691722D01*
X149995203Y-98856733D01*
X149990326Y-98871744D01*
X149970540Y-99060000D01*
X149990326Y-99248256D01*
X149990327Y-99248259D01*
X150048818Y-99428277D01*
X150048821Y-99428284D01*
X150143467Y-99592216D01*
X150259403Y-99720976D01*
X150270129Y-99732888D01*
X150423265Y-99844148D01*
X150423270Y-99844151D01*
X150596192Y-99921142D01*
X150596197Y-99921144D01*
X150781354Y-99960500D01*
X150781355Y-99960500D01*
X150970644Y-99960500D01*
X150970646Y-99960500D01*
X151155803Y-99921144D01*
X151328730Y-99844151D01*
X151481871Y-99732888D01*
X151608533Y-99592216D01*
X151703179Y-99428284D01*
X151761674Y-99248256D01*
X151779321Y-99080344D01*
X151805904Y-99015734D01*
X151814951Y-99005638D01*
X153291788Y-97528801D01*
X153304042Y-97518986D01*
X153303859Y-97518764D01*
X153309866Y-97513792D01*
X153309877Y-97513786D01*
X153340775Y-97480882D01*
X153357227Y-97463364D01*
X153367671Y-97452918D01*
X153378120Y-97442471D01*
X153382379Y-97436978D01*
X153386152Y-97432561D01*
X153418062Y-97398582D01*
X153427715Y-97381020D01*
X153438389Y-97364770D01*
X153450673Y-97348936D01*
X153469180Y-97306167D01*
X153471749Y-97300924D01*
X153494196Y-97260093D01*
X153494197Y-97260092D01*
X153499177Y-97240691D01*
X153505478Y-97222288D01*
X153513438Y-97203896D01*
X153520730Y-97157849D01*
X153521911Y-97152152D01*
X153533500Y-97107019D01*
X153533500Y-97086982D01*
X153535027Y-97067582D01*
X153538160Y-97047804D01*
X153533775Y-97001415D01*
X153533500Y-96995577D01*
X153533500Y-89027002D01*
X157347647Y-89027002D01*
X157367021Y-89248457D01*
X157367022Y-89248465D01*
X157424558Y-89463191D01*
X157424559Y-89463193D01*
X157424560Y-89463196D01*
X157450681Y-89519213D01*
X157518511Y-89664676D01*
X157518513Y-89664679D01*
X157646023Y-89846781D01*
X157803219Y-90003977D01*
X157985323Y-90131488D01*
X158186804Y-90225440D01*
X158186811Y-90225442D01*
X158186814Y-90225443D01*
X158222313Y-90234955D01*
X158225422Y-90235875D01*
X158229745Y-90237279D01*
X158229755Y-90237283D01*
X158238158Y-90239200D01*
X158401537Y-90282978D01*
X158443378Y-90286638D01*
X158451778Y-90287957D01*
X158452179Y-90288049D01*
X158454917Y-90288674D01*
X158454939Y-90288678D01*
X158488563Y-90296351D01*
X158520475Y-90293383D01*
X158623000Y-90302353D01*
X158669024Y-90298326D01*
X158677186Y-90298154D01*
X158680093Y-90298285D01*
X158680098Y-90298284D01*
X158681448Y-90298345D01*
X158681461Y-90298345D01*
X158715036Y-90299853D01*
X158744627Y-90291712D01*
X158844463Y-90282978D01*
X158893183Y-90269923D01*
X158900886Y-90268377D01*
X158906173Y-90267661D01*
X158906175Y-90267660D01*
X158908724Y-90267315D01*
X158908742Y-90267312D01*
X158938510Y-90263279D01*
X158964954Y-90250692D01*
X159041600Y-90230154D01*
X159059186Y-90225443D01*
X159059188Y-90225442D01*
X159059196Y-90225440D01*
X159108821Y-90202299D01*
X159115841Y-90199534D01*
X159123150Y-90197160D01*
X159123156Y-90197156D01*
X159128442Y-90195439D01*
X159128454Y-90195435D01*
X159151940Y-90187803D01*
X159174599Y-90171626D01*
X159260677Y-90131488D01*
X159309124Y-90097564D01*
X159315284Y-90093768D01*
X159324053Y-90089050D01*
X159324056Y-90089047D01*
X159348587Y-90075847D01*
X159367028Y-90057019D01*
X159442781Y-90003977D01*
X159487779Y-89958978D01*
X159492935Y-89954370D01*
X159502423Y-89946805D01*
X159502424Y-89946802D01*
X159507636Y-89942647D01*
X159508654Y-89942231D01*
X159511146Y-89939849D01*
X159522298Y-89930955D01*
X159536294Y-89910463D01*
X159599977Y-89846781D01*
X159632623Y-89800157D01*
X159639105Y-89790901D01*
X159643196Y-89785676D01*
X159652528Y-89774996D01*
X159652531Y-89774990D01*
X159652709Y-89774787D01*
X159654954Y-89773356D01*
X159659873Y-89766586D01*
X159667621Y-89757717D01*
X159677165Y-89736544D01*
X159727488Y-89664677D01*
X159758324Y-89598548D01*
X159761270Y-89592991D01*
X159766608Y-89584057D01*
X159769634Y-89581257D01*
X159775270Y-89569556D01*
X159780005Y-89561630D01*
X159785296Y-89540706D01*
X159821440Y-89463196D01*
X159821440Y-89463194D01*
X159821442Y-89463191D01*
X159821442Y-89463190D01*
X159826314Y-89445007D01*
X159841583Y-89388021D01*
X159843406Y-89382337D01*
X159845697Y-89376233D01*
X159849010Y-89371827D01*
X159853628Y-89355097D01*
X159855953Y-89348902D01*
X159857384Y-89329051D01*
X159878976Y-89248469D01*
X159878977Y-89248465D01*
X159878978Y-89248463D01*
X159886198Y-89165930D01*
X159886951Y-89160317D01*
X159890444Y-89141072D01*
X159890444Y-89141067D01*
X159891311Y-89136291D01*
X159891314Y-89136269D01*
X159892694Y-89128660D01*
X159890998Y-89116304D01*
X159891112Y-89111216D01*
X159891326Y-89107314D01*
X159898353Y-89027000D01*
X159891326Y-88946690D01*
X159891112Y-88942780D01*
X159890999Y-88937697D01*
X159893353Y-88928969D01*
X159890746Y-88914600D01*
X159890741Y-88914568D01*
X159890444Y-88912932D01*
X159890444Y-88912928D01*
X159886951Y-88893682D01*
X159886198Y-88888069D01*
X159878978Y-88805537D01*
X159857383Y-88724944D01*
X159857742Y-88709863D01*
X159853629Y-88698905D01*
X159849892Y-88685363D01*
X159845686Y-88677736D01*
X159843410Y-88671671D01*
X159841572Y-88665938D01*
X159840691Y-88662651D01*
X159824185Y-88601049D01*
X159821442Y-88590811D01*
X159821439Y-88590802D01*
X159817329Y-88581989D01*
X159785296Y-88513294D01*
X159782838Y-88497109D01*
X159775267Y-88484437D01*
X159770728Y-88475013D01*
X159766606Y-88469938D01*
X159761279Y-88461022D01*
X159758309Y-88455419D01*
X159727488Y-88389324D01*
X159727487Y-88389322D01*
X159677166Y-88317456D01*
X159671534Y-88300757D01*
X159659872Y-88287409D01*
X159655927Y-88281979D01*
X159652715Y-88279217D01*
X159643193Y-88268318D01*
X159639100Y-88263093D01*
X159599977Y-88207219D01*
X159536295Y-88143537D01*
X159527268Y-88127005D01*
X159511145Y-88114148D01*
X159509158Y-88112248D01*
X159507641Y-88111354D01*
X159492944Y-88099634D01*
X159487754Y-88094996D01*
X159442782Y-88050023D01*
X159367029Y-87996981D01*
X159354536Y-87981352D01*
X159315297Y-87960237D01*
X159309110Y-87956424D01*
X159260682Y-87922515D01*
X159260680Y-87922514D01*
X159260679Y-87922513D01*
X159260677Y-87922512D01*
X159174599Y-87882373D01*
X159158732Y-87868402D01*
X159128007Y-87858418D01*
X159127998Y-87858416D01*
X159115844Y-87854465D01*
X159108801Y-87851690D01*
X159059195Y-87828559D01*
X158964952Y-87803307D01*
X158945955Y-87791728D01*
X158907197Y-87786477D01*
X158900891Y-87785622D01*
X158893165Y-87784070D01*
X158844467Y-87771023D01*
X158844465Y-87771022D01*
X158844463Y-87771022D01*
X158844461Y-87771021D01*
X158844457Y-87771021D01*
X158744623Y-87762287D01*
X158722904Y-87753791D01*
X158677190Y-87755844D01*
X158668998Y-87755670D01*
X158623004Y-87751647D01*
X158622998Y-87751647D01*
X158520463Y-87760617D01*
X158496582Y-87755817D01*
X158452180Y-87765950D01*
X158452179Y-87765951D01*
X158451786Y-87766040D01*
X158443391Y-87767359D01*
X158401540Y-87771021D01*
X158401534Y-87771022D01*
X158238172Y-87814796D01*
X158229744Y-87816719D01*
X158225408Y-87818127D01*
X158222315Y-87819043D01*
X158186806Y-87828558D01*
X158186803Y-87828559D01*
X157985323Y-87922512D01*
X157985319Y-87922514D01*
X157803217Y-88050023D01*
X157646023Y-88207217D01*
X157518514Y-88389319D01*
X157518512Y-88389323D01*
X157424561Y-88590800D01*
X157367022Y-88805535D01*
X157367021Y-88805542D01*
X157347647Y-89026997D01*
X157347647Y-89027002D01*
X153533500Y-89027002D01*
X153533500Y-88732920D01*
X153535224Y-88717306D01*
X153534938Y-88717279D01*
X153535672Y-88709516D01*
X153533500Y-88640385D01*
X153533500Y-88610834D01*
X153533500Y-88610833D01*
X153532629Y-88603942D01*
X153532172Y-88598128D01*
X153530709Y-88551557D01*
X153530709Y-88551555D01*
X153525120Y-88532320D01*
X153521174Y-88513267D01*
X153521056Y-88512334D01*
X153518664Y-88493391D01*
X153501501Y-88450042D01*
X153499614Y-88444529D01*
X153486617Y-88399793D01*
X153486616Y-88399791D01*
X153476421Y-88382552D01*
X153467860Y-88365076D01*
X153460486Y-88346452D01*
X153460486Y-88346450D01*
X153450474Y-88332671D01*
X153433083Y-88308733D01*
X153429900Y-88303888D01*
X153406170Y-88263762D01*
X153406165Y-88263756D01*
X153392005Y-88249596D01*
X153379370Y-88234803D01*
X153367593Y-88218595D01*
X153331693Y-88188896D01*
X153327381Y-88184973D01*
X152642619Y-87500211D01*
X152632797Y-87487950D01*
X152632576Y-87488134D01*
X152627603Y-87482123D01*
X152608976Y-87464631D01*
X152577181Y-87434773D01*
X152566736Y-87424328D01*
X152556292Y-87413883D01*
X152550803Y-87409625D01*
X152546378Y-87405847D01*
X152512399Y-87373938D01*
X152512397Y-87373936D01*
X152512394Y-87373935D01*
X152494846Y-87364288D01*
X152478580Y-87353604D01*
X152462750Y-87341325D01*
X152419985Y-87322818D01*
X152414739Y-87320248D01*
X152373910Y-87297803D01*
X152373909Y-87297802D01*
X152354510Y-87292822D01*
X152336098Y-87286518D01*
X152317715Y-87278562D01*
X152317709Y-87278560D01*
X152271691Y-87271272D01*
X152265969Y-87270087D01*
X152220838Y-87258500D01*
X152220836Y-87258500D01*
X152200801Y-87258500D01*
X152181403Y-87256973D01*
X152173979Y-87255797D01*
X152161622Y-87253840D01*
X152161621Y-87253840D01*
X152115233Y-87258225D01*
X152109395Y-87258500D01*
X132670743Y-87258500D01*
X132655122Y-87256775D01*
X132655095Y-87257061D01*
X132647333Y-87256326D01*
X132578172Y-87258500D01*
X132548649Y-87258500D01*
X132541778Y-87259367D01*
X132535959Y-87259825D01*
X132489374Y-87261289D01*
X132489368Y-87261290D01*
X132470126Y-87266880D01*
X132451087Y-87270823D01*
X132431217Y-87273334D01*
X132431200Y-87273338D01*
X132387882Y-87290488D01*
X132382358Y-87292379D01*
X132337607Y-87305383D01*
X132337604Y-87305384D01*
X132320358Y-87315583D01*
X132302893Y-87324139D01*
X132297010Y-87326468D01*
X132284266Y-87331514D01*
X132246572Y-87358899D01*
X132241691Y-87362105D01*
X132201580Y-87385828D01*
X132187408Y-87400000D01*
X132172623Y-87412628D01*
X132156412Y-87424407D01*
X132126709Y-87460310D01*
X132122777Y-87464631D01*
X128065308Y-91522099D01*
X128053051Y-91531920D01*
X128053234Y-91532141D01*
X128047223Y-91537113D01*
X127999872Y-91587536D01*
X127978989Y-91608419D01*
X127978977Y-91608432D01*
X127974721Y-91613917D01*
X127970937Y-91618347D01*
X127939037Y-91652318D01*
X127939036Y-91652320D01*
X127929384Y-91669876D01*
X127918710Y-91686126D01*
X127906429Y-91701961D01*
X127906424Y-91701968D01*
X127887915Y-91744738D01*
X127885345Y-91749984D01*
X127862903Y-91790806D01*
X127857922Y-91810207D01*
X127851621Y-91828610D01*
X127843662Y-91847002D01*
X127843661Y-91847005D01*
X127836371Y-91893027D01*
X127835187Y-91898746D01*
X127823601Y-91943872D01*
X127823600Y-91943882D01*
X127823600Y-91963916D01*
X127822073Y-91983316D01*
X127818939Y-92003094D01*
X124460000Y-92003094D01*
X124460000Y-90333837D01*
X124460475Y-90326190D01*
X124469948Y-90250188D01*
X124496952Y-90045082D01*
X124497740Y-90040456D01*
X124497741Y-90040455D01*
X124542813Y-89825492D01*
X124546276Y-89809875D01*
X124587665Y-89623181D01*
X124588756Y-89618970D01*
X124651452Y-89408380D01*
X124713834Y-89210529D01*
X124715182Y-89206702D01*
X124785302Y-89027002D01*
X126867647Y-89027002D01*
X126887021Y-89248457D01*
X126887022Y-89248465D01*
X126944558Y-89463191D01*
X126944559Y-89463193D01*
X126944560Y-89463196D01*
X126970681Y-89519213D01*
X127038511Y-89664676D01*
X127038513Y-89664679D01*
X127166023Y-89846781D01*
X127323219Y-90003977D01*
X127505323Y-90131488D01*
X127706804Y-90225440D01*
X127706811Y-90225442D01*
X127706814Y-90225443D01*
X127742313Y-90234955D01*
X127745422Y-90235875D01*
X127749745Y-90237279D01*
X127749755Y-90237283D01*
X127758158Y-90239200D01*
X127921537Y-90282978D01*
X127963378Y-90286638D01*
X127971778Y-90287957D01*
X127972179Y-90288049D01*
X127974917Y-90288674D01*
X127974939Y-90288678D01*
X128008563Y-90296351D01*
X128040475Y-90293383D01*
X128143000Y-90302353D01*
X128189024Y-90298326D01*
X128197186Y-90298154D01*
X128200093Y-90298285D01*
X128200098Y-90298284D01*
X128201448Y-90298345D01*
X128201461Y-90298345D01*
X128235036Y-90299853D01*
X128264627Y-90291712D01*
X128364463Y-90282978D01*
X128413183Y-90269923D01*
X128420886Y-90268377D01*
X128426173Y-90267661D01*
X128426175Y-90267660D01*
X128428724Y-90267315D01*
X128428742Y-90267312D01*
X128458510Y-90263279D01*
X128484954Y-90250692D01*
X128561600Y-90230154D01*
X128579186Y-90225443D01*
X128579188Y-90225442D01*
X128579196Y-90225440D01*
X128628821Y-90202299D01*
X128635841Y-90199534D01*
X128643150Y-90197160D01*
X128643156Y-90197156D01*
X128648442Y-90195439D01*
X128648454Y-90195435D01*
X128671940Y-90187803D01*
X128694599Y-90171626D01*
X128780677Y-90131488D01*
X128829124Y-90097564D01*
X128835284Y-90093768D01*
X128844053Y-90089050D01*
X128844056Y-90089047D01*
X128868587Y-90075847D01*
X128887028Y-90057019D01*
X128962781Y-90003977D01*
X129007779Y-89958978D01*
X129012935Y-89954370D01*
X129022423Y-89946805D01*
X129022424Y-89946802D01*
X129027636Y-89942647D01*
X129028654Y-89942231D01*
X129031146Y-89939849D01*
X129042298Y-89930955D01*
X129056294Y-89910463D01*
X129119977Y-89846781D01*
X129152623Y-89800157D01*
X129159105Y-89790901D01*
X129163196Y-89785676D01*
X129172528Y-89774996D01*
X129172531Y-89774990D01*
X129172709Y-89774787D01*
X129174954Y-89773356D01*
X129179873Y-89766586D01*
X129187621Y-89757717D01*
X129197165Y-89736544D01*
X129247488Y-89664677D01*
X129278324Y-89598548D01*
X129281270Y-89592991D01*
X129286608Y-89584057D01*
X129289634Y-89581257D01*
X129295270Y-89569556D01*
X129300005Y-89561630D01*
X129305296Y-89540706D01*
X129341440Y-89463196D01*
X129341440Y-89463194D01*
X129341442Y-89463191D01*
X129341442Y-89463190D01*
X129346314Y-89445007D01*
X129361583Y-89388021D01*
X129363406Y-89382337D01*
X129365697Y-89376233D01*
X129369010Y-89371827D01*
X129373628Y-89355097D01*
X129375953Y-89348902D01*
X129377384Y-89329051D01*
X129398976Y-89248469D01*
X129398977Y-89248465D01*
X129398978Y-89248463D01*
X129406198Y-89165930D01*
X129406951Y-89160317D01*
X129410444Y-89141072D01*
X129410444Y-89141067D01*
X129411311Y-89136291D01*
X129411314Y-89136269D01*
X129412694Y-89128660D01*
X129410998Y-89116304D01*
X129411112Y-89111216D01*
X129411326Y-89107314D01*
X129418353Y-89027000D01*
X129411326Y-88946690D01*
X129411112Y-88942780D01*
X129410999Y-88937697D01*
X129413353Y-88928969D01*
X129410746Y-88914600D01*
X129410741Y-88914568D01*
X129410444Y-88912932D01*
X129410444Y-88912928D01*
X129406951Y-88893682D01*
X129406198Y-88888069D01*
X129398978Y-88805537D01*
X129377383Y-88724944D01*
X129377742Y-88709863D01*
X129373629Y-88698905D01*
X129369892Y-88685363D01*
X129365686Y-88677736D01*
X129363410Y-88671671D01*
X129361572Y-88665938D01*
X129360691Y-88662651D01*
X129344185Y-88601049D01*
X129341442Y-88590811D01*
X129341439Y-88590802D01*
X129337329Y-88581989D01*
X129305296Y-88513294D01*
X129302838Y-88497109D01*
X129295267Y-88484437D01*
X129290728Y-88475013D01*
X129286606Y-88469938D01*
X129281279Y-88461022D01*
X129278309Y-88455419D01*
X129247488Y-88389324D01*
X129247487Y-88389322D01*
X129197166Y-88317456D01*
X129191534Y-88300757D01*
X129179872Y-88287409D01*
X129175927Y-88281979D01*
X129172715Y-88279217D01*
X129163193Y-88268318D01*
X129159100Y-88263093D01*
X129119977Y-88207219D01*
X129056295Y-88143537D01*
X129047268Y-88127005D01*
X129031145Y-88114148D01*
X129029158Y-88112248D01*
X129027641Y-88111354D01*
X129012944Y-88099634D01*
X129007754Y-88094996D01*
X128962782Y-88050023D01*
X128887029Y-87996981D01*
X128874536Y-87981352D01*
X128835297Y-87960237D01*
X128829110Y-87956424D01*
X128780682Y-87922515D01*
X128780680Y-87922514D01*
X128780679Y-87922513D01*
X128780677Y-87922512D01*
X128694599Y-87882373D01*
X128678732Y-87868402D01*
X128648007Y-87858418D01*
X128647998Y-87858416D01*
X128635844Y-87854465D01*
X128628801Y-87851690D01*
X128579195Y-87828559D01*
X128484952Y-87803307D01*
X128465955Y-87791728D01*
X128427197Y-87786477D01*
X128420891Y-87785622D01*
X128413165Y-87784070D01*
X128364467Y-87771023D01*
X128364465Y-87771022D01*
X128364463Y-87771022D01*
X128364461Y-87771021D01*
X128364457Y-87771021D01*
X128264623Y-87762287D01*
X128242904Y-87753791D01*
X128197190Y-87755844D01*
X128188998Y-87755670D01*
X128143004Y-87751647D01*
X128142998Y-87751647D01*
X128040463Y-87760617D01*
X128016582Y-87755817D01*
X127972180Y-87765950D01*
X127972179Y-87765951D01*
X127971786Y-87766040D01*
X127963391Y-87767359D01*
X127921540Y-87771021D01*
X127921534Y-87771022D01*
X127758172Y-87814796D01*
X127749744Y-87816719D01*
X127745408Y-87818127D01*
X127742315Y-87819043D01*
X127706806Y-87828558D01*
X127706803Y-87828559D01*
X127505323Y-87922512D01*
X127505319Y-87922514D01*
X127323217Y-88050023D01*
X127166023Y-88207217D01*
X127038514Y-88389319D01*
X127038512Y-88389323D01*
X126944561Y-88590800D01*
X126887022Y-88805535D01*
X126887021Y-88805542D01*
X126867647Y-89026997D01*
X126867647Y-89027002D01*
X124785302Y-89027002D01*
X124795067Y-89001976D01*
X124874539Y-88810114D01*
X124876100Y-88806653D01*
X124972648Y-88609164D01*
X125068630Y-88424784D01*
X125070319Y-88421755D01*
X125182919Y-88232786D01*
X125294696Y-88057333D01*
X125296452Y-88054729D01*
X125424351Y-87875598D01*
X125551097Y-87710419D01*
X125552874Y-87708214D01*
X125695238Y-87540126D01*
X125836830Y-87385605D01*
X125993596Y-87228839D01*
X126148136Y-87087230D01*
X126316214Y-86944874D01*
X126318419Y-86943097D01*
X126483582Y-86816361D01*
X126662729Y-86688452D01*
X126665333Y-86686696D01*
X126840786Y-86574919D01*
X127029755Y-86462319D01*
X127032784Y-86460630D01*
X127217143Y-86364657D01*
X127414653Y-86268100D01*
X127418114Y-86266539D01*
X127609976Y-86187067D01*
X127814702Y-86107182D01*
X127818529Y-86105834D01*
X128016391Y-86043448D01*
X128226970Y-85980756D01*
X128231181Y-85979665D01*
X128433463Y-85934819D01*
X128648466Y-85889738D01*
X128653082Y-85888952D01*
X128858136Y-85861955D01*
X128934187Y-85852475D01*
X128941857Y-85852000D01*
X158005941Y-85852000D01*
X158013617Y-85852477D01*
G37*
%TD.AperFunction*%
%TD*%
M02*
