M48
; DRILL file {KiCad 7.0.7} date Sun Apr 13 10:38:41 2025
; FORMAT={-:-/ absolute / inch / decimal}
; #@! TF.CreationDate,2025-04-13T10:38:41+09:30
; #@! TF.GenerationSoftware,Kicad,Pcbnew,7.0.7
; #@! TF.FileFunction,MixedPlating,1,2
FMAT,2
INCH
; #@! TA.AperFunction,Plated,PTH,ViaDrill
T1C0.0157
; #@! TA.AperFunction,Plated,PTH,ComponentDrill
T2C0.0394
%
G90
G05
T1
X5.1036Y-3.6476
X5.1446Y-3.8602
X5.1448Y-3.6076
X5.2187Y-3.8055
X5.3669Y-3.8757
X5.4196Y-3.8382
X5.4437Y-3.7209
X5.4499Y-4.2415
X5.5272Y-3.8724
X5.5272Y-4.096
X5.5514Y-3.7851
X5.5559Y-3.9333
X5.5684Y-3.6491
X5.5854Y-3.8096
X5.5905Y-3.8687
X5.8035Y-4.0225
X5.8339Y-3.9639
X5.94Y-3.9
X5.95Y-4.23
X6.06Y-4.23
T2
X5.2Y-4.41
X5.3Y-4.41
X5.4Y-4.41
X5.5Y-4.41
X5.6Y-4.41
X5.7Y-4.41
X5.8Y-4.41
X5.9Y-4.41
X6.0Y-4.41
X6.1Y-4.41
T0
M30
