%TF.GenerationSoftware,KiCad,Pcbnew,7.0.7*%
%TF.CreationDate,2025-04-13T10:38:35+09:30*%
%TF.ProjectId,MCP3909_Breakout,4d435033-3930-4395-9f42-7265616b6f75,rev?*%
%TF.SameCoordinates,Original*%
%TF.FileFunction,Paste,Top*%
%TF.FilePolarity,Positive*%
%FSLAX46Y46*%
G04 Gerber Fmt 4.6, Leading zero omitted, Abs format (unit mm)*
G04 Created by KiCad (PCBNEW 7.0.7) date 2025-04-13 10:38:35*
%MOMM*%
%LPD*%
G01*
G04 APERTURE LIST*
G04 Aperture macros list*
%AMRoundRect*
0 Rectangle with rounded corners*
0 $1 Rounding radius*
0 $2 $3 $4 $5 $6 $7 $8 $9 X,Y pos of 4 corners*
0 Add a 4 corners polygon primitive as box body*
4,1,4,$2,$3,$4,$5,$6,$7,$8,$9,$2,$3,0*
0 Add four circle primitives for the rounded corners*
1,1,$1+$1,$2,$3*
1,1,$1+$1,$4,$5*
1,1,$1+$1,$6,$7*
1,1,$1+$1,$8,$9*
0 Add four rect primitives between the rounded corners*
20,1,$1+$1,$2,$3,$4,$5,0*
20,1,$1+$1,$4,$5,$6,$7,0*
20,1,$1+$1,$6,$7,$8,$9,0*
20,1,$1+$1,$8,$9,$2,$3,0*%
G04 Aperture macros list end*
%ADD10RoundRect,0.225000X-0.250000X0.225000X-0.250000X-0.225000X0.250000X-0.225000X0.250000X0.225000X0*%
%ADD11RoundRect,0.200000X0.200000X0.275000X-0.200000X0.275000X-0.200000X-0.275000X0.200000X-0.275000X0*%
%ADD12RoundRect,0.200000X0.275000X-0.200000X0.275000X0.200000X-0.275000X0.200000X-0.275000X-0.200000X0*%
%ADD13RoundRect,0.250000X-0.475000X0.250000X-0.475000X-0.250000X0.475000X-0.250000X0.475000X0.250000X0*%
%ADD14RoundRect,0.200000X-0.200000X-0.275000X0.200000X-0.275000X0.200000X0.275000X-0.200000X0.275000X0*%
%ADD15RoundRect,0.225000X0.225000X0.250000X-0.225000X0.250000X-0.225000X-0.250000X0.225000X-0.250000X0*%
%ADD16R,4.500000X2.000000*%
%ADD17RoundRect,0.218750X-0.256250X0.218750X-0.256250X-0.218750X0.256250X-0.218750X0.256250X0.218750X0*%
%ADD18RoundRect,0.225000X0.250000X-0.225000X0.250000X0.225000X-0.250000X0.225000X-0.250000X-0.225000X0*%
%ADD19R,0.450000X1.750000*%
G04 APERTURE END LIST*
D10*
%TO.C,C9*%
X151892000Y-88887000D03*
X151892000Y-90437000D03*
%TD*%
D11*
%TO.C,R4*%
X141096000Y-107696000D03*
X139446000Y-107696000D03*
%TD*%
D12*
%TO.C,R5*%
X153924000Y-106235000D03*
X153924000Y-104585000D03*
%TD*%
D13*
%TO.C,C8*%
X134112000Y-93538000D03*
X134112000Y-95438000D03*
%TD*%
D14*
%TO.C,R1*%
X148527000Y-108458000D03*
X150177000Y-108458000D03*
%TD*%
D10*
%TO.C,C7*%
X136652000Y-93967000D03*
X136652000Y-95517000D03*
%TD*%
D12*
%TO.C,R6*%
X148590000Y-106235000D03*
X148590000Y-104585000D03*
%TD*%
D10*
%TO.C,C10*%
X134620000Y-88887000D03*
X134620000Y-90437000D03*
%TD*%
D15*
%TO.C,C5*%
X151905000Y-102616000D03*
X150355000Y-102616000D03*
%TD*%
D13*
%TO.C,C11*%
X134112000Y-100650000D03*
X134112000Y-102550000D03*
%TD*%
D15*
%TO.C,C3*%
X144348000Y-105918000D03*
X142798000Y-105918000D03*
%TD*%
D10*
%TO.C,C6*%
X148590000Y-96761000D03*
X148590000Y-98311000D03*
%TD*%
D16*
%TO.C,Y1*%
X147506000Y-89408000D03*
X139006000Y-89408000D03*
%TD*%
D14*
%TO.C,R3*%
X142748000Y-107696000D03*
X144398000Y-107696000D03*
%TD*%
D17*
%TO.C,FB1*%
X134112000Y-97256500D03*
X134112000Y-98831500D03*
%TD*%
D10*
%TO.C,C1*%
X152146000Y-104635000D03*
X152146000Y-106185000D03*
%TD*%
D18*
%TO.C,C2*%
X150368000Y-106185000D03*
X150368000Y-104635000D03*
%TD*%
D17*
%TO.C,FB2*%
X131572000Y-97256500D03*
X131572000Y-98831500D03*
%TD*%
D15*
%TO.C,C4*%
X141046000Y-105918000D03*
X139496000Y-105918000D03*
%TD*%
D19*
%TO.C,U1*%
X139427000Y-101390000D03*
X140077000Y-101390000D03*
X140727000Y-101390000D03*
X141377000Y-101390000D03*
X142027000Y-101390000D03*
X142677000Y-101390000D03*
X143327000Y-101390000D03*
X143977000Y-101390000D03*
X144627000Y-101390000D03*
X145277000Y-101390000D03*
X145927000Y-101390000D03*
X146577000Y-101390000D03*
X146577000Y-94190000D03*
X145927000Y-94190000D03*
X145277000Y-94190000D03*
X144627000Y-94190000D03*
X143977000Y-94190000D03*
X143327000Y-94190000D03*
X142677000Y-94190000D03*
X142027000Y-94190000D03*
X141377000Y-94190000D03*
X140727000Y-94190000D03*
X140077000Y-94190000D03*
X139427000Y-94190000D03*
%TD*%
D10*
%TO.C,C12*%
X136652000Y-100571000D03*
X136652000Y-102121000D03*
%TD*%
D14*
%TO.C,R2*%
X152337000Y-108458000D03*
X153987000Y-108458000D03*
%TD*%
M02*
