%TF.GenerationSoftware,KiCad,Pcbnew,7.0.7*%
%TF.CreationDate,2025-04-13T10:38:35+09:30*%
%TF.ProjectId,MCP3909_Breakout,4d435033-3930-4395-9f42-7265616b6f75,rev?*%
%TF.SameCoordinates,Original*%
%TF.FileFunction,Legend,Top*%
%TF.FilePolarity,Positive*%
%FSLAX46Y46*%
G04 Gerber Fmt 4.6, Leading zero omitted, Abs format (unit mm)*
G04 Created by KiCad (PCBNEW 7.0.7) date 2025-04-13 10:38:35*
%MOMM*%
%LPD*%
G01*
G04 APERTURE LIST*
%ADD10C,0.150000*%
%ADD11C,0.200000*%
%ADD12C,0.120000*%
G04 APERTURE END LIST*
D10*
X140059210Y-99314000D02*
G75*
G03*
X140059210Y-99314000I-359210J0D01*
G01*
D11*
X146626054Y-109581695D02*
X146626054Y-110229314D01*
X146626054Y-110229314D02*
X146664149Y-110305504D01*
X146664149Y-110305504D02*
X146702244Y-110343600D01*
X146702244Y-110343600D02*
X146778435Y-110381695D01*
X146778435Y-110381695D02*
X146930816Y-110381695D01*
X146930816Y-110381695D02*
X147007006Y-110343600D01*
X147007006Y-110343600D02*
X147045101Y-110305504D01*
X147045101Y-110305504D02*
X147083197Y-110229314D01*
X147083197Y-110229314D02*
X147083197Y-109581695D01*
X147464149Y-110381695D02*
X147464149Y-109581695D01*
X147464149Y-109581695D02*
X147921292Y-110381695D01*
X147921292Y-110381695D02*
X147921292Y-109581695D01*
X158605695Y-107881945D02*
X157805695Y-107881945D01*
X157805695Y-107881945D02*
X158377123Y-107615279D01*
X158377123Y-107615279D02*
X157805695Y-107348612D01*
X157805695Y-107348612D02*
X158605695Y-107348612D01*
X158377123Y-107005755D02*
X158377123Y-106624802D01*
X158605695Y-107081945D02*
X157805695Y-106815278D01*
X157805695Y-106815278D02*
X158605695Y-106548612D01*
X157805695Y-106358136D02*
X158605695Y-105824802D01*
X157805695Y-105824802D02*
X158605695Y-106358136D01*
X157805695Y-105024802D02*
X158605695Y-104758135D01*
X158605695Y-104758135D02*
X157805695Y-104491469D01*
X158605695Y-104224802D02*
X158072361Y-104224802D01*
X158224742Y-104224802D02*
X158148552Y-104186707D01*
X158148552Y-104186707D02*
X158110457Y-104148612D01*
X158110457Y-104148612D02*
X158072361Y-104072421D01*
X158072361Y-104072421D02*
X158072361Y-103996231D01*
X158605695Y-103729564D02*
X158072361Y-103729564D01*
X158148552Y-103729564D02*
X158110457Y-103691469D01*
X158110457Y-103691469D02*
X158072361Y-103615279D01*
X158072361Y-103615279D02*
X158072361Y-103500993D01*
X158072361Y-103500993D02*
X158110457Y-103424802D01*
X158110457Y-103424802D02*
X158186647Y-103386707D01*
X158186647Y-103386707D02*
X158605695Y-103386707D01*
X158186647Y-103386707D02*
X158110457Y-103348612D01*
X158110457Y-103348612D02*
X158072361Y-103272421D01*
X158072361Y-103272421D02*
X158072361Y-103158136D01*
X158072361Y-103158136D02*
X158110457Y-103081945D01*
X158110457Y-103081945D02*
X158186647Y-103043850D01*
X158186647Y-103043850D02*
X158605695Y-103043850D01*
X158567600Y-102700993D02*
X158605695Y-102624802D01*
X158605695Y-102624802D02*
X158605695Y-102472421D01*
X158605695Y-102472421D02*
X158567600Y-102396231D01*
X158567600Y-102396231D02*
X158491409Y-102358135D01*
X158491409Y-102358135D02*
X158453314Y-102358135D01*
X158453314Y-102358135D02*
X158377123Y-102396231D01*
X158377123Y-102396231D02*
X158339028Y-102472421D01*
X158339028Y-102472421D02*
X158339028Y-102586707D01*
X158339028Y-102586707D02*
X158300933Y-102662897D01*
X158300933Y-102662897D02*
X158224742Y-102700993D01*
X158224742Y-102700993D02*
X158186647Y-102700993D01*
X158186647Y-102700993D02*
X158110457Y-102662897D01*
X158110457Y-102662897D02*
X158072361Y-102586707D01*
X158072361Y-102586707D02*
X158072361Y-102472421D01*
X158072361Y-102472421D02*
X158110457Y-102396231D01*
X158186647Y-101405754D02*
X158186647Y-100796231D01*
X158415219Y-100796231D02*
X158415219Y-101405754D01*
X158072361Y-99462897D02*
X158605695Y-99462897D01*
X157767600Y-99653373D02*
X158339028Y-99843850D01*
X158339028Y-99843850D02*
X158339028Y-99348611D01*
X157805695Y-99120040D02*
X157805695Y-98586706D01*
X157805695Y-98586706D02*
X158605695Y-98929564D01*
X157805695Y-98129563D02*
X157805695Y-98053373D01*
X157805695Y-98053373D02*
X157843790Y-97977182D01*
X157843790Y-97977182D02*
X157881885Y-97939087D01*
X157881885Y-97939087D02*
X157958076Y-97900992D01*
X157958076Y-97900992D02*
X158110457Y-97862897D01*
X158110457Y-97862897D02*
X158300933Y-97862897D01*
X158300933Y-97862897D02*
X158453314Y-97900992D01*
X158453314Y-97900992D02*
X158529504Y-97939087D01*
X158529504Y-97939087D02*
X158567600Y-97977182D01*
X158567600Y-97977182D02*
X158605695Y-98053373D01*
X158605695Y-98053373D02*
X158605695Y-98129563D01*
X158605695Y-98129563D02*
X158567600Y-98205754D01*
X158567600Y-98205754D02*
X158529504Y-98243849D01*
X158529504Y-98243849D02*
X158453314Y-98281944D01*
X158453314Y-98281944D02*
X158300933Y-98320040D01*
X158300933Y-98320040D02*
X158110457Y-98320040D01*
X158110457Y-98320040D02*
X157958076Y-98281944D01*
X157958076Y-98281944D02*
X157881885Y-98243849D01*
X157881885Y-98243849D02*
X157843790Y-98205754D01*
X157843790Y-98205754D02*
X157805695Y-98129563D01*
X158605695Y-97520039D02*
X158072361Y-97520039D01*
X158148552Y-97520039D02*
X158110457Y-97481944D01*
X158110457Y-97481944D02*
X158072361Y-97405754D01*
X158072361Y-97405754D02*
X158072361Y-97291468D01*
X158072361Y-97291468D02*
X158110457Y-97215277D01*
X158110457Y-97215277D02*
X158186647Y-97177182D01*
X158186647Y-97177182D02*
X158605695Y-97177182D01*
X158186647Y-97177182D02*
X158110457Y-97139087D01*
X158110457Y-97139087D02*
X158072361Y-97062896D01*
X158072361Y-97062896D02*
X158072361Y-96948611D01*
X158072361Y-96948611D02*
X158110457Y-96872420D01*
X158110457Y-96872420D02*
X158186647Y-96834325D01*
X158186647Y-96834325D02*
X158605695Y-96834325D01*
X157805695Y-96567658D02*
X158605695Y-96300991D01*
X158605695Y-96300991D02*
X157805695Y-96034325D01*
X158300933Y-95158134D02*
X158300933Y-94548611D01*
X158529504Y-93100991D02*
X158567600Y-93139087D01*
X158567600Y-93139087D02*
X158605695Y-93253372D01*
X158605695Y-93253372D02*
X158605695Y-93329563D01*
X158605695Y-93329563D02*
X158567600Y-93443849D01*
X158567600Y-93443849D02*
X158491409Y-93520039D01*
X158491409Y-93520039D02*
X158415219Y-93558134D01*
X158415219Y-93558134D02*
X158262838Y-93596230D01*
X158262838Y-93596230D02*
X158148552Y-93596230D01*
X158148552Y-93596230D02*
X157996171Y-93558134D01*
X157996171Y-93558134D02*
X157919980Y-93520039D01*
X157919980Y-93520039D02*
X157843790Y-93443849D01*
X157843790Y-93443849D02*
X157805695Y-93329563D01*
X157805695Y-93329563D02*
X157805695Y-93253372D01*
X157805695Y-93253372D02*
X157843790Y-93139087D01*
X157843790Y-93139087D02*
X157881885Y-93100991D01*
X158605695Y-92758134D02*
X157805695Y-92758134D01*
X158605695Y-92415277D02*
X158186647Y-92415277D01*
X158186647Y-92415277D02*
X158110457Y-92453372D01*
X158110457Y-92453372D02*
X158072361Y-92529563D01*
X158072361Y-92529563D02*
X158072361Y-92643849D01*
X158072361Y-92643849D02*
X158110457Y-92720039D01*
X158110457Y-92720039D02*
X158148552Y-92758134D01*
X157805695Y-91881943D02*
X157805695Y-91805753D01*
X157805695Y-91805753D02*
X157843790Y-91729562D01*
X157843790Y-91729562D02*
X157881885Y-91691467D01*
X157881885Y-91691467D02*
X157958076Y-91653372D01*
X157958076Y-91653372D02*
X158110457Y-91615277D01*
X158110457Y-91615277D02*
X158300933Y-91615277D01*
X158300933Y-91615277D02*
X158453314Y-91653372D01*
X158453314Y-91653372D02*
X158529504Y-91691467D01*
X158529504Y-91691467D02*
X158567600Y-91729562D01*
X158567600Y-91729562D02*
X158605695Y-91805753D01*
X158605695Y-91805753D02*
X158605695Y-91881943D01*
X158605695Y-91881943D02*
X158567600Y-91958134D01*
X158567600Y-91958134D02*
X158529504Y-91996229D01*
X158529504Y-91996229D02*
X158453314Y-92034324D01*
X158453314Y-92034324D02*
X158300933Y-92072420D01*
X158300933Y-92072420D02*
X158110457Y-92072420D01*
X158110457Y-92072420D02*
X157958076Y-92034324D01*
X157958076Y-92034324D02*
X157881885Y-91996229D01*
X157881885Y-91996229D02*
X157843790Y-91958134D01*
X157843790Y-91958134D02*
X157805695Y-91881943D01*
X159893695Y-107881945D02*
X159093695Y-107881945D01*
X159093695Y-107881945D02*
X159665123Y-107615279D01*
X159665123Y-107615279D02*
X159093695Y-107348612D01*
X159093695Y-107348612D02*
X159893695Y-107348612D01*
X159665123Y-107005755D02*
X159665123Y-106624802D01*
X159893695Y-107081945D02*
X159093695Y-106815278D01*
X159093695Y-106815278D02*
X159893695Y-106548612D01*
X159093695Y-106358136D02*
X159893695Y-105824802D01*
X159093695Y-105824802D02*
X159893695Y-106358136D01*
X159093695Y-105024802D02*
X159893695Y-104758135D01*
X159893695Y-104758135D02*
X159093695Y-104491469D01*
X159893695Y-104224802D02*
X159360361Y-104224802D01*
X159512742Y-104224802D02*
X159436552Y-104186707D01*
X159436552Y-104186707D02*
X159398457Y-104148612D01*
X159398457Y-104148612D02*
X159360361Y-104072421D01*
X159360361Y-104072421D02*
X159360361Y-103996231D01*
X159893695Y-103729564D02*
X159360361Y-103729564D01*
X159436552Y-103729564D02*
X159398457Y-103691469D01*
X159398457Y-103691469D02*
X159360361Y-103615279D01*
X159360361Y-103615279D02*
X159360361Y-103500993D01*
X159360361Y-103500993D02*
X159398457Y-103424802D01*
X159398457Y-103424802D02*
X159474647Y-103386707D01*
X159474647Y-103386707D02*
X159893695Y-103386707D01*
X159474647Y-103386707D02*
X159398457Y-103348612D01*
X159398457Y-103348612D02*
X159360361Y-103272421D01*
X159360361Y-103272421D02*
X159360361Y-103158136D01*
X159360361Y-103158136D02*
X159398457Y-103081945D01*
X159398457Y-103081945D02*
X159474647Y-103043850D01*
X159474647Y-103043850D02*
X159893695Y-103043850D01*
X159855600Y-102700993D02*
X159893695Y-102624802D01*
X159893695Y-102624802D02*
X159893695Y-102472421D01*
X159893695Y-102472421D02*
X159855600Y-102396231D01*
X159855600Y-102396231D02*
X159779409Y-102358135D01*
X159779409Y-102358135D02*
X159741314Y-102358135D01*
X159741314Y-102358135D02*
X159665123Y-102396231D01*
X159665123Y-102396231D02*
X159627028Y-102472421D01*
X159627028Y-102472421D02*
X159627028Y-102586707D01*
X159627028Y-102586707D02*
X159588933Y-102662897D01*
X159588933Y-102662897D02*
X159512742Y-102700993D01*
X159512742Y-102700993D02*
X159474647Y-102700993D01*
X159474647Y-102700993D02*
X159398457Y-102662897D01*
X159398457Y-102662897D02*
X159360361Y-102586707D01*
X159360361Y-102586707D02*
X159360361Y-102472421D01*
X159360361Y-102472421D02*
X159398457Y-102396231D01*
X159474647Y-101405754D02*
X159474647Y-100796231D01*
X159703219Y-100796231D02*
X159703219Y-101405754D01*
X159093695Y-99462897D02*
X159093695Y-99615278D01*
X159093695Y-99615278D02*
X159131790Y-99691469D01*
X159131790Y-99691469D02*
X159169885Y-99729564D01*
X159169885Y-99729564D02*
X159284171Y-99805754D01*
X159284171Y-99805754D02*
X159436552Y-99843850D01*
X159436552Y-99843850D02*
X159741314Y-99843850D01*
X159741314Y-99843850D02*
X159817504Y-99805754D01*
X159817504Y-99805754D02*
X159855600Y-99767659D01*
X159855600Y-99767659D02*
X159893695Y-99691469D01*
X159893695Y-99691469D02*
X159893695Y-99539088D01*
X159893695Y-99539088D02*
X159855600Y-99462897D01*
X159855600Y-99462897D02*
X159817504Y-99424802D01*
X159817504Y-99424802D02*
X159741314Y-99386707D01*
X159741314Y-99386707D02*
X159550838Y-99386707D01*
X159550838Y-99386707D02*
X159474647Y-99424802D01*
X159474647Y-99424802D02*
X159436552Y-99462897D01*
X159436552Y-99462897D02*
X159398457Y-99539088D01*
X159398457Y-99539088D02*
X159398457Y-99691469D01*
X159398457Y-99691469D02*
X159436552Y-99767659D01*
X159436552Y-99767659D02*
X159474647Y-99805754D01*
X159474647Y-99805754D02*
X159550838Y-99843850D01*
X159093695Y-98700992D02*
X159093695Y-98853373D01*
X159093695Y-98853373D02*
X159131790Y-98929564D01*
X159131790Y-98929564D02*
X159169885Y-98967659D01*
X159169885Y-98967659D02*
X159284171Y-99043849D01*
X159284171Y-99043849D02*
X159436552Y-99081945D01*
X159436552Y-99081945D02*
X159741314Y-99081945D01*
X159741314Y-99081945D02*
X159817504Y-99043849D01*
X159817504Y-99043849D02*
X159855600Y-99005754D01*
X159855600Y-99005754D02*
X159893695Y-98929564D01*
X159893695Y-98929564D02*
X159893695Y-98777183D01*
X159893695Y-98777183D02*
X159855600Y-98700992D01*
X159855600Y-98700992D02*
X159817504Y-98662897D01*
X159817504Y-98662897D02*
X159741314Y-98624802D01*
X159741314Y-98624802D02*
X159550838Y-98624802D01*
X159550838Y-98624802D02*
X159474647Y-98662897D01*
X159474647Y-98662897D02*
X159436552Y-98700992D01*
X159436552Y-98700992D02*
X159398457Y-98777183D01*
X159398457Y-98777183D02*
X159398457Y-98929564D01*
X159398457Y-98929564D02*
X159436552Y-99005754D01*
X159436552Y-99005754D02*
X159474647Y-99043849D01*
X159474647Y-99043849D02*
X159550838Y-99081945D01*
X159093695Y-98129563D02*
X159093695Y-98053373D01*
X159093695Y-98053373D02*
X159131790Y-97977182D01*
X159131790Y-97977182D02*
X159169885Y-97939087D01*
X159169885Y-97939087D02*
X159246076Y-97900992D01*
X159246076Y-97900992D02*
X159398457Y-97862897D01*
X159398457Y-97862897D02*
X159588933Y-97862897D01*
X159588933Y-97862897D02*
X159741314Y-97900992D01*
X159741314Y-97900992D02*
X159817504Y-97939087D01*
X159817504Y-97939087D02*
X159855600Y-97977182D01*
X159855600Y-97977182D02*
X159893695Y-98053373D01*
X159893695Y-98053373D02*
X159893695Y-98129563D01*
X159893695Y-98129563D02*
X159855600Y-98205754D01*
X159855600Y-98205754D02*
X159817504Y-98243849D01*
X159817504Y-98243849D02*
X159741314Y-98281944D01*
X159741314Y-98281944D02*
X159588933Y-98320040D01*
X159588933Y-98320040D02*
X159398457Y-98320040D01*
X159398457Y-98320040D02*
X159246076Y-98281944D01*
X159246076Y-98281944D02*
X159169885Y-98243849D01*
X159169885Y-98243849D02*
X159131790Y-98205754D01*
X159131790Y-98205754D02*
X159093695Y-98129563D01*
X159893695Y-97520039D02*
X159360361Y-97520039D01*
X159436552Y-97520039D02*
X159398457Y-97481944D01*
X159398457Y-97481944D02*
X159360361Y-97405754D01*
X159360361Y-97405754D02*
X159360361Y-97291468D01*
X159360361Y-97291468D02*
X159398457Y-97215277D01*
X159398457Y-97215277D02*
X159474647Y-97177182D01*
X159474647Y-97177182D02*
X159893695Y-97177182D01*
X159474647Y-97177182D02*
X159398457Y-97139087D01*
X159398457Y-97139087D02*
X159360361Y-97062896D01*
X159360361Y-97062896D02*
X159360361Y-96948611D01*
X159360361Y-96948611D02*
X159398457Y-96872420D01*
X159398457Y-96872420D02*
X159474647Y-96834325D01*
X159474647Y-96834325D02*
X159893695Y-96834325D01*
X159093695Y-96567658D02*
X159893695Y-96300991D01*
X159893695Y-96300991D02*
X159093695Y-96034325D01*
X159588933Y-95158134D02*
X159588933Y-94548611D01*
X159817504Y-93100991D02*
X159855600Y-93139087D01*
X159855600Y-93139087D02*
X159893695Y-93253372D01*
X159893695Y-93253372D02*
X159893695Y-93329563D01*
X159893695Y-93329563D02*
X159855600Y-93443849D01*
X159855600Y-93443849D02*
X159779409Y-93520039D01*
X159779409Y-93520039D02*
X159703219Y-93558134D01*
X159703219Y-93558134D02*
X159550838Y-93596230D01*
X159550838Y-93596230D02*
X159436552Y-93596230D01*
X159436552Y-93596230D02*
X159284171Y-93558134D01*
X159284171Y-93558134D02*
X159207980Y-93520039D01*
X159207980Y-93520039D02*
X159131790Y-93443849D01*
X159131790Y-93443849D02*
X159093695Y-93329563D01*
X159093695Y-93329563D02*
X159093695Y-93253372D01*
X159093695Y-93253372D02*
X159131790Y-93139087D01*
X159131790Y-93139087D02*
X159169885Y-93100991D01*
X159893695Y-92758134D02*
X159093695Y-92758134D01*
X159893695Y-92415277D02*
X159474647Y-92415277D01*
X159474647Y-92415277D02*
X159398457Y-92453372D01*
X159398457Y-92453372D02*
X159360361Y-92529563D01*
X159360361Y-92529563D02*
X159360361Y-92643849D01*
X159360361Y-92643849D02*
X159398457Y-92720039D01*
X159398457Y-92720039D02*
X159436552Y-92758134D01*
X159893695Y-91615277D02*
X159893695Y-92072420D01*
X159893695Y-91843848D02*
X159093695Y-91843848D01*
X159093695Y-91843848D02*
X159207980Y-91920039D01*
X159207980Y-91920039D02*
X159284171Y-91996229D01*
X159284171Y-91996229D02*
X159322266Y-92072420D01*
X161181695Y-107881945D02*
X160381695Y-107881945D01*
X160381695Y-107881945D02*
X160953123Y-107615279D01*
X160953123Y-107615279D02*
X160381695Y-107348612D01*
X160381695Y-107348612D02*
X161181695Y-107348612D01*
X161105504Y-106510516D02*
X161143600Y-106548612D01*
X161143600Y-106548612D02*
X161181695Y-106662897D01*
X161181695Y-106662897D02*
X161181695Y-106739088D01*
X161181695Y-106739088D02*
X161143600Y-106853374D01*
X161143600Y-106853374D02*
X161067409Y-106929564D01*
X161067409Y-106929564D02*
X160991219Y-106967659D01*
X160991219Y-106967659D02*
X160838838Y-107005755D01*
X160838838Y-107005755D02*
X160724552Y-107005755D01*
X160724552Y-107005755D02*
X160572171Y-106967659D01*
X160572171Y-106967659D02*
X160495980Y-106929564D01*
X160495980Y-106929564D02*
X160419790Y-106853374D01*
X160419790Y-106853374D02*
X160381695Y-106739088D01*
X160381695Y-106739088D02*
X160381695Y-106662897D01*
X160381695Y-106662897D02*
X160419790Y-106548612D01*
X160419790Y-106548612D02*
X160457885Y-106510516D01*
X161181695Y-106167659D02*
X160381695Y-106167659D01*
X160381695Y-106167659D02*
X160381695Y-105862897D01*
X160381695Y-105862897D02*
X160419790Y-105786707D01*
X160419790Y-105786707D02*
X160457885Y-105748612D01*
X160457885Y-105748612D02*
X160534076Y-105710516D01*
X160534076Y-105710516D02*
X160648361Y-105710516D01*
X160648361Y-105710516D02*
X160724552Y-105748612D01*
X160724552Y-105748612D02*
X160762647Y-105786707D01*
X160762647Y-105786707D02*
X160800742Y-105862897D01*
X160800742Y-105862897D02*
X160800742Y-106167659D01*
X160381695Y-105443850D02*
X160381695Y-104948612D01*
X160381695Y-104948612D02*
X160686457Y-105215278D01*
X160686457Y-105215278D02*
X160686457Y-105100993D01*
X160686457Y-105100993D02*
X160724552Y-105024802D01*
X160724552Y-105024802D02*
X160762647Y-104986707D01*
X160762647Y-104986707D02*
X160838838Y-104948612D01*
X160838838Y-104948612D02*
X161029314Y-104948612D01*
X161029314Y-104948612D02*
X161105504Y-104986707D01*
X161105504Y-104986707D02*
X161143600Y-105024802D01*
X161143600Y-105024802D02*
X161181695Y-105100993D01*
X161181695Y-105100993D02*
X161181695Y-105329564D01*
X161181695Y-105329564D02*
X161143600Y-105405755D01*
X161143600Y-105405755D02*
X161105504Y-105443850D01*
X161181695Y-104567659D02*
X161181695Y-104415278D01*
X161181695Y-104415278D02*
X161143600Y-104339088D01*
X161143600Y-104339088D02*
X161105504Y-104300992D01*
X161105504Y-104300992D02*
X160991219Y-104224802D01*
X160991219Y-104224802D02*
X160838838Y-104186707D01*
X160838838Y-104186707D02*
X160534076Y-104186707D01*
X160534076Y-104186707D02*
X160457885Y-104224802D01*
X160457885Y-104224802D02*
X160419790Y-104262897D01*
X160419790Y-104262897D02*
X160381695Y-104339088D01*
X160381695Y-104339088D02*
X160381695Y-104491469D01*
X160381695Y-104491469D02*
X160419790Y-104567659D01*
X160419790Y-104567659D02*
X160457885Y-104605754D01*
X160457885Y-104605754D02*
X160534076Y-104643850D01*
X160534076Y-104643850D02*
X160724552Y-104643850D01*
X160724552Y-104643850D02*
X160800742Y-104605754D01*
X160800742Y-104605754D02*
X160838838Y-104567659D01*
X160838838Y-104567659D02*
X160876933Y-104491469D01*
X160876933Y-104491469D02*
X160876933Y-104339088D01*
X160876933Y-104339088D02*
X160838838Y-104262897D01*
X160838838Y-104262897D02*
X160800742Y-104224802D01*
X160800742Y-104224802D02*
X160724552Y-104186707D01*
X160381695Y-103691468D02*
X160381695Y-103615278D01*
X160381695Y-103615278D02*
X160419790Y-103539087D01*
X160419790Y-103539087D02*
X160457885Y-103500992D01*
X160457885Y-103500992D02*
X160534076Y-103462897D01*
X160534076Y-103462897D02*
X160686457Y-103424802D01*
X160686457Y-103424802D02*
X160876933Y-103424802D01*
X160876933Y-103424802D02*
X161029314Y-103462897D01*
X161029314Y-103462897D02*
X161105504Y-103500992D01*
X161105504Y-103500992D02*
X161143600Y-103539087D01*
X161143600Y-103539087D02*
X161181695Y-103615278D01*
X161181695Y-103615278D02*
X161181695Y-103691468D01*
X161181695Y-103691468D02*
X161143600Y-103767659D01*
X161143600Y-103767659D02*
X161105504Y-103805754D01*
X161105504Y-103805754D02*
X161029314Y-103843849D01*
X161029314Y-103843849D02*
X160876933Y-103881945D01*
X160876933Y-103881945D02*
X160686457Y-103881945D01*
X160686457Y-103881945D02*
X160534076Y-103843849D01*
X160534076Y-103843849D02*
X160457885Y-103805754D01*
X160457885Y-103805754D02*
X160419790Y-103767659D01*
X160419790Y-103767659D02*
X160381695Y-103691468D01*
X161181695Y-103043849D02*
X161181695Y-102891468D01*
X161181695Y-102891468D02*
X161143600Y-102815278D01*
X161143600Y-102815278D02*
X161105504Y-102777182D01*
X161105504Y-102777182D02*
X160991219Y-102700992D01*
X160991219Y-102700992D02*
X160838838Y-102662897D01*
X160838838Y-102662897D02*
X160534076Y-102662897D01*
X160534076Y-102662897D02*
X160457885Y-102700992D01*
X160457885Y-102700992D02*
X160419790Y-102739087D01*
X160419790Y-102739087D02*
X160381695Y-102815278D01*
X160381695Y-102815278D02*
X160381695Y-102967659D01*
X160381695Y-102967659D02*
X160419790Y-103043849D01*
X160419790Y-103043849D02*
X160457885Y-103081944D01*
X160457885Y-103081944D02*
X160534076Y-103120040D01*
X160534076Y-103120040D02*
X160724552Y-103120040D01*
X160724552Y-103120040D02*
X160800742Y-103081944D01*
X160800742Y-103081944D02*
X160838838Y-103043849D01*
X160838838Y-103043849D02*
X160876933Y-102967659D01*
X160876933Y-102967659D02*
X160876933Y-102815278D01*
X160876933Y-102815278D02*
X160838838Y-102739087D01*
X160838838Y-102739087D02*
X160800742Y-102700992D01*
X160800742Y-102700992D02*
X160724552Y-102662897D01*
X160762647Y-101443849D02*
X160800742Y-101329563D01*
X160800742Y-101329563D02*
X160838838Y-101291468D01*
X160838838Y-101291468D02*
X160915028Y-101253372D01*
X160915028Y-101253372D02*
X161029314Y-101253372D01*
X161029314Y-101253372D02*
X161105504Y-101291468D01*
X161105504Y-101291468D02*
X161143600Y-101329563D01*
X161143600Y-101329563D02*
X161181695Y-101405753D01*
X161181695Y-101405753D02*
X161181695Y-101710515D01*
X161181695Y-101710515D02*
X160381695Y-101710515D01*
X160381695Y-101710515D02*
X160381695Y-101443849D01*
X160381695Y-101443849D02*
X160419790Y-101367658D01*
X160419790Y-101367658D02*
X160457885Y-101329563D01*
X160457885Y-101329563D02*
X160534076Y-101291468D01*
X160534076Y-101291468D02*
X160610266Y-101291468D01*
X160610266Y-101291468D02*
X160686457Y-101329563D01*
X160686457Y-101329563D02*
X160724552Y-101367658D01*
X160724552Y-101367658D02*
X160762647Y-101443849D01*
X160762647Y-101443849D02*
X160762647Y-101710515D01*
X161181695Y-100910515D02*
X160648361Y-100910515D01*
X160800742Y-100910515D02*
X160724552Y-100872420D01*
X160724552Y-100872420D02*
X160686457Y-100834325D01*
X160686457Y-100834325D02*
X160648361Y-100758134D01*
X160648361Y-100758134D02*
X160648361Y-100681944D01*
X161143600Y-100110515D02*
X161181695Y-100186706D01*
X161181695Y-100186706D02*
X161181695Y-100339087D01*
X161181695Y-100339087D02*
X161143600Y-100415277D01*
X161143600Y-100415277D02*
X161067409Y-100453373D01*
X161067409Y-100453373D02*
X160762647Y-100453373D01*
X160762647Y-100453373D02*
X160686457Y-100415277D01*
X160686457Y-100415277D02*
X160648361Y-100339087D01*
X160648361Y-100339087D02*
X160648361Y-100186706D01*
X160648361Y-100186706D02*
X160686457Y-100110515D01*
X160686457Y-100110515D02*
X160762647Y-100072420D01*
X160762647Y-100072420D02*
X160838838Y-100072420D01*
X160838838Y-100072420D02*
X160915028Y-100453373D01*
X161181695Y-99386706D02*
X160762647Y-99386706D01*
X160762647Y-99386706D02*
X160686457Y-99424801D01*
X160686457Y-99424801D02*
X160648361Y-99500992D01*
X160648361Y-99500992D02*
X160648361Y-99653373D01*
X160648361Y-99653373D02*
X160686457Y-99729563D01*
X161143600Y-99386706D02*
X161181695Y-99462897D01*
X161181695Y-99462897D02*
X161181695Y-99653373D01*
X161181695Y-99653373D02*
X161143600Y-99729563D01*
X161143600Y-99729563D02*
X161067409Y-99767659D01*
X161067409Y-99767659D02*
X160991219Y-99767659D01*
X160991219Y-99767659D02*
X160915028Y-99729563D01*
X160915028Y-99729563D02*
X160876933Y-99653373D01*
X160876933Y-99653373D02*
X160876933Y-99462897D01*
X160876933Y-99462897D02*
X160838838Y-99386706D01*
X161181695Y-99005753D02*
X160381695Y-99005753D01*
X160876933Y-98929563D02*
X161181695Y-98700991D01*
X160648361Y-98700991D02*
X160953123Y-99005753D01*
X161181695Y-98243849D02*
X161143600Y-98320039D01*
X161143600Y-98320039D02*
X161105504Y-98358134D01*
X161105504Y-98358134D02*
X161029314Y-98396230D01*
X161029314Y-98396230D02*
X160800742Y-98396230D01*
X160800742Y-98396230D02*
X160724552Y-98358134D01*
X160724552Y-98358134D02*
X160686457Y-98320039D01*
X160686457Y-98320039D02*
X160648361Y-98243849D01*
X160648361Y-98243849D02*
X160648361Y-98129563D01*
X160648361Y-98129563D02*
X160686457Y-98053372D01*
X160686457Y-98053372D02*
X160724552Y-98015277D01*
X160724552Y-98015277D02*
X160800742Y-97977182D01*
X160800742Y-97977182D02*
X161029314Y-97977182D01*
X161029314Y-97977182D02*
X161105504Y-98015277D01*
X161105504Y-98015277D02*
X161143600Y-98053372D01*
X161143600Y-98053372D02*
X161181695Y-98129563D01*
X161181695Y-98129563D02*
X161181695Y-98243849D01*
X160648361Y-97291467D02*
X161181695Y-97291467D01*
X160648361Y-97634324D02*
X161067409Y-97634324D01*
X161067409Y-97634324D02*
X161143600Y-97596229D01*
X161143600Y-97596229D02*
X161181695Y-97520039D01*
X161181695Y-97520039D02*
X161181695Y-97405753D01*
X161181695Y-97405753D02*
X161143600Y-97329562D01*
X161143600Y-97329562D02*
X161105504Y-97291467D01*
X160648361Y-97024800D02*
X160648361Y-96720038D01*
X160381695Y-96910514D02*
X161067409Y-96910514D01*
X161067409Y-96910514D02*
X161143600Y-96872419D01*
X161143600Y-96872419D02*
X161181695Y-96796229D01*
X161181695Y-96796229D02*
X161181695Y-96720038D01*
X135665958Y-110343600D02*
X135780244Y-110381695D01*
X135780244Y-110381695D02*
X135970720Y-110381695D01*
X135970720Y-110381695D02*
X136046911Y-110343600D01*
X136046911Y-110343600D02*
X136085006Y-110305504D01*
X136085006Y-110305504D02*
X136123101Y-110229314D01*
X136123101Y-110229314D02*
X136123101Y-110153123D01*
X136123101Y-110153123D02*
X136085006Y-110076933D01*
X136085006Y-110076933D02*
X136046911Y-110038838D01*
X136046911Y-110038838D02*
X135970720Y-110000742D01*
X135970720Y-110000742D02*
X135818339Y-109962647D01*
X135818339Y-109962647D02*
X135742149Y-109924552D01*
X135742149Y-109924552D02*
X135704054Y-109886457D01*
X135704054Y-109886457D02*
X135665958Y-109810266D01*
X135665958Y-109810266D02*
X135665958Y-109734076D01*
X135665958Y-109734076D02*
X135704054Y-109657885D01*
X135704054Y-109657885D02*
X135742149Y-109619790D01*
X135742149Y-109619790D02*
X135818339Y-109581695D01*
X135818339Y-109581695D02*
X136008816Y-109581695D01*
X136008816Y-109581695D02*
X136123101Y-109619790D01*
X136923102Y-110305504D02*
X136885006Y-110343600D01*
X136885006Y-110343600D02*
X136770721Y-110381695D01*
X136770721Y-110381695D02*
X136694530Y-110381695D01*
X136694530Y-110381695D02*
X136580244Y-110343600D01*
X136580244Y-110343600D02*
X136504054Y-110267409D01*
X136504054Y-110267409D02*
X136465959Y-110191219D01*
X136465959Y-110191219D02*
X136427863Y-110038838D01*
X136427863Y-110038838D02*
X136427863Y-109924552D01*
X136427863Y-109924552D02*
X136465959Y-109772171D01*
X136465959Y-109772171D02*
X136504054Y-109695980D01*
X136504054Y-109695980D02*
X136580244Y-109619790D01*
X136580244Y-109619790D02*
X136694530Y-109581695D01*
X136694530Y-109581695D02*
X136770721Y-109581695D01*
X136770721Y-109581695D02*
X136885006Y-109619790D01*
X136885006Y-109619790D02*
X136923102Y-109657885D01*
X137265959Y-110381695D02*
X137265959Y-109581695D01*
X137723102Y-110381695D02*
X137380244Y-109924552D01*
X137723102Y-109581695D02*
X137265959Y-110038838D01*
X144340054Y-109581695D02*
X144340054Y-110229314D01*
X144340054Y-110229314D02*
X144378149Y-110305504D01*
X144378149Y-110305504D02*
X144416244Y-110343600D01*
X144416244Y-110343600D02*
X144492435Y-110381695D01*
X144492435Y-110381695D02*
X144644816Y-110381695D01*
X144644816Y-110381695D02*
X144721006Y-110343600D01*
X144721006Y-110343600D02*
X144759101Y-110305504D01*
X144759101Y-110305504D02*
X144797197Y-110229314D01*
X144797197Y-110229314D02*
X144797197Y-109581695D01*
X145178149Y-110381695D02*
X145178149Y-109581695D01*
X145178149Y-109581695D02*
X145482911Y-109581695D01*
X145482911Y-109581695D02*
X145559101Y-109619790D01*
X145559101Y-109619790D02*
X145597196Y-109657885D01*
X145597196Y-109657885D02*
X145635292Y-109734076D01*
X145635292Y-109734076D02*
X145635292Y-109848361D01*
X145635292Y-109848361D02*
X145597196Y-109924552D01*
X145597196Y-109924552D02*
X145559101Y-109962647D01*
X145559101Y-109962647D02*
X145482911Y-110000742D01*
X145482911Y-110000742D02*
X145178149Y-110000742D01*
X141292054Y-110381695D02*
X141292054Y-109581695D01*
X141292054Y-109581695D02*
X141558720Y-110153123D01*
X141558720Y-110153123D02*
X141825387Y-109581695D01*
X141825387Y-109581695D02*
X141825387Y-110381695D01*
X142206340Y-110381695D02*
X142206340Y-109581695D01*
X142549196Y-110343600D02*
X142663482Y-110381695D01*
X142663482Y-110381695D02*
X142853958Y-110381695D01*
X142853958Y-110381695D02*
X142930149Y-110343600D01*
X142930149Y-110343600D02*
X142968244Y-110305504D01*
X142968244Y-110305504D02*
X143006339Y-110229314D01*
X143006339Y-110229314D02*
X143006339Y-110153123D01*
X143006339Y-110153123D02*
X142968244Y-110076933D01*
X142968244Y-110076933D02*
X142930149Y-110038838D01*
X142930149Y-110038838D02*
X142853958Y-110000742D01*
X142853958Y-110000742D02*
X142701577Y-109962647D01*
X142701577Y-109962647D02*
X142625387Y-109924552D01*
X142625387Y-109924552D02*
X142587292Y-109886457D01*
X142587292Y-109886457D02*
X142549196Y-109810266D01*
X142549196Y-109810266D02*
X142549196Y-109734076D01*
X142549196Y-109734076D02*
X142587292Y-109657885D01*
X142587292Y-109657885D02*
X142625387Y-109619790D01*
X142625387Y-109619790D02*
X142701577Y-109581695D01*
X142701577Y-109581695D02*
X142892054Y-109581695D01*
X142892054Y-109581695D02*
X143006339Y-109619790D01*
X143501578Y-109581695D02*
X143653959Y-109581695D01*
X143653959Y-109581695D02*
X143730149Y-109619790D01*
X143730149Y-109619790D02*
X143806340Y-109695980D01*
X143806340Y-109695980D02*
X143844435Y-109848361D01*
X143844435Y-109848361D02*
X143844435Y-110115028D01*
X143844435Y-110115028D02*
X143806340Y-110267409D01*
X143806340Y-110267409D02*
X143730149Y-110343600D01*
X143730149Y-110343600D02*
X143653959Y-110381695D01*
X143653959Y-110381695D02*
X143501578Y-110381695D01*
X143501578Y-110381695D02*
X143425387Y-110343600D01*
X143425387Y-110343600D02*
X143349197Y-110267409D01*
X143349197Y-110267409D02*
X143311101Y-110115028D01*
X143311101Y-110115028D02*
X143311101Y-109848361D01*
X143311101Y-109848361D02*
X143349197Y-109695980D01*
X143349197Y-109695980D02*
X143425387Y-109619790D01*
X143425387Y-109619790D02*
X143501578Y-109581695D01*
X138244054Y-110381695D02*
X138244054Y-109581695D01*
X138244054Y-109581695D02*
X138510720Y-110153123D01*
X138510720Y-110153123D02*
X138777387Y-109581695D01*
X138777387Y-109581695D02*
X138777387Y-110381695D01*
X139310721Y-109581695D02*
X139463102Y-109581695D01*
X139463102Y-109581695D02*
X139539292Y-109619790D01*
X139539292Y-109619790D02*
X139615483Y-109695980D01*
X139615483Y-109695980D02*
X139653578Y-109848361D01*
X139653578Y-109848361D02*
X139653578Y-110115028D01*
X139653578Y-110115028D02*
X139615483Y-110267409D01*
X139615483Y-110267409D02*
X139539292Y-110343600D01*
X139539292Y-110343600D02*
X139463102Y-110381695D01*
X139463102Y-110381695D02*
X139310721Y-110381695D01*
X139310721Y-110381695D02*
X139234530Y-110343600D01*
X139234530Y-110343600D02*
X139158340Y-110267409D01*
X139158340Y-110267409D02*
X139120244Y-110115028D01*
X139120244Y-110115028D02*
X139120244Y-109848361D01*
X139120244Y-109848361D02*
X139158340Y-109695980D01*
X139158340Y-109695980D02*
X139234530Y-109619790D01*
X139234530Y-109619790D02*
X139310721Y-109581695D01*
X139958339Y-110343600D02*
X140072625Y-110381695D01*
X140072625Y-110381695D02*
X140263101Y-110381695D01*
X140263101Y-110381695D02*
X140339292Y-110343600D01*
X140339292Y-110343600D02*
X140377387Y-110305504D01*
X140377387Y-110305504D02*
X140415482Y-110229314D01*
X140415482Y-110229314D02*
X140415482Y-110153123D01*
X140415482Y-110153123D02*
X140377387Y-110076933D01*
X140377387Y-110076933D02*
X140339292Y-110038838D01*
X140339292Y-110038838D02*
X140263101Y-110000742D01*
X140263101Y-110000742D02*
X140110720Y-109962647D01*
X140110720Y-109962647D02*
X140034530Y-109924552D01*
X140034530Y-109924552D02*
X139996435Y-109886457D01*
X139996435Y-109886457D02*
X139958339Y-109810266D01*
X139958339Y-109810266D02*
X139958339Y-109734076D01*
X139958339Y-109734076D02*
X139996435Y-109657885D01*
X139996435Y-109657885D02*
X140034530Y-109619790D01*
X140034530Y-109619790D02*
X140110720Y-109581695D01*
X140110720Y-109581695D02*
X140301197Y-109581695D01*
X140301197Y-109581695D02*
X140415482Y-109619790D01*
X140758340Y-110381695D02*
X140758340Y-109581695D01*
X151960054Y-110381695D02*
X151960054Y-109581695D01*
X152302910Y-110153123D02*
X152683863Y-110153123D01*
X152226720Y-110381695D02*
X152493387Y-109581695D01*
X152493387Y-109581695D02*
X152760053Y-110381695D01*
X153026720Y-110381695D02*
X153026720Y-109581695D01*
X153026720Y-109581695D02*
X153331482Y-109581695D01*
X153331482Y-109581695D02*
X153407672Y-109619790D01*
X153407672Y-109619790D02*
X153445767Y-109657885D01*
X153445767Y-109657885D02*
X153483863Y-109734076D01*
X153483863Y-109734076D02*
X153483863Y-109848361D01*
X153483863Y-109848361D02*
X153445767Y-109924552D01*
X153445767Y-109924552D02*
X153407672Y-109962647D01*
X153407672Y-109962647D02*
X153331482Y-110000742D01*
X153331482Y-110000742D02*
X153026720Y-110000742D01*
X131271768Y-109581695D02*
X131538435Y-110381695D01*
X131538435Y-110381695D02*
X131805101Y-109581695D01*
X132071768Y-110381695D02*
X132071768Y-109581695D01*
X132452720Y-110381695D02*
X132452720Y-109581695D01*
X132452720Y-109581695D02*
X132909863Y-110381695D01*
X132909863Y-110381695D02*
X132909863Y-109581695D01*
X149166054Y-110381695D02*
X149166054Y-109581695D01*
X149508910Y-110153123D02*
X149889863Y-110153123D01*
X149432720Y-110381695D02*
X149699387Y-109581695D01*
X149699387Y-109581695D02*
X149966053Y-110381695D01*
X150232720Y-110381695D02*
X150232720Y-109581695D01*
X150232720Y-109581695D02*
X150689863Y-110381695D01*
X150689863Y-110381695D02*
X150689863Y-109581695D01*
X154411101Y-109619790D02*
X154334911Y-109581695D01*
X154334911Y-109581695D02*
X154220625Y-109581695D01*
X154220625Y-109581695D02*
X154106339Y-109619790D01*
X154106339Y-109619790D02*
X154030149Y-109695980D01*
X154030149Y-109695980D02*
X153992054Y-109772171D01*
X153992054Y-109772171D02*
X153953958Y-109924552D01*
X153953958Y-109924552D02*
X153953958Y-110038838D01*
X153953958Y-110038838D02*
X153992054Y-110191219D01*
X153992054Y-110191219D02*
X154030149Y-110267409D01*
X154030149Y-110267409D02*
X154106339Y-110343600D01*
X154106339Y-110343600D02*
X154220625Y-110381695D01*
X154220625Y-110381695D02*
X154296816Y-110381695D01*
X154296816Y-110381695D02*
X154411101Y-110343600D01*
X154411101Y-110343600D02*
X154449197Y-110305504D01*
X154449197Y-110305504D02*
X154449197Y-110038838D01*
X154449197Y-110038838D02*
X154296816Y-110038838D01*
X154792054Y-110381695D02*
X154792054Y-109581695D01*
X154792054Y-109581695D02*
X155249197Y-110381695D01*
X155249197Y-110381695D02*
X155249197Y-109581695D01*
X155630149Y-110381695D02*
X155630149Y-109581695D01*
X155630149Y-109581695D02*
X155820625Y-109581695D01*
X155820625Y-109581695D02*
X155934911Y-109619790D01*
X155934911Y-109619790D02*
X156011101Y-109695980D01*
X156011101Y-109695980D02*
X156049196Y-109772171D01*
X156049196Y-109772171D02*
X156087292Y-109924552D01*
X156087292Y-109924552D02*
X156087292Y-110038838D01*
X156087292Y-110038838D02*
X156049196Y-110191219D01*
X156049196Y-110191219D02*
X156011101Y-110267409D01*
X156011101Y-110267409D02*
X155934911Y-110343600D01*
X155934911Y-110343600D02*
X155820625Y-110381695D01*
X155820625Y-110381695D02*
X155630149Y-110381695D01*
X134383197Y-110305504D02*
X134345101Y-110343600D01*
X134345101Y-110343600D02*
X134230816Y-110381695D01*
X134230816Y-110381695D02*
X134154625Y-110381695D01*
X134154625Y-110381695D02*
X134040339Y-110343600D01*
X134040339Y-110343600D02*
X133964149Y-110267409D01*
X133964149Y-110267409D02*
X133926054Y-110191219D01*
X133926054Y-110191219D02*
X133887958Y-110038838D01*
X133887958Y-110038838D02*
X133887958Y-109924552D01*
X133887958Y-109924552D02*
X133926054Y-109772171D01*
X133926054Y-109772171D02*
X133964149Y-109695980D01*
X133964149Y-109695980D02*
X134040339Y-109619790D01*
X134040339Y-109619790D02*
X134154625Y-109581695D01*
X134154625Y-109581695D02*
X134230816Y-109581695D01*
X134230816Y-109581695D02*
X134345101Y-109619790D01*
X134345101Y-109619790D02*
X134383197Y-109657885D01*
X134687958Y-110343600D02*
X134802244Y-110381695D01*
X134802244Y-110381695D02*
X134992720Y-110381695D01*
X134992720Y-110381695D02*
X135068911Y-110343600D01*
X135068911Y-110343600D02*
X135107006Y-110305504D01*
X135107006Y-110305504D02*
X135145101Y-110229314D01*
X135145101Y-110229314D02*
X135145101Y-110153123D01*
X135145101Y-110153123D02*
X135107006Y-110076933D01*
X135107006Y-110076933D02*
X135068911Y-110038838D01*
X135068911Y-110038838D02*
X134992720Y-110000742D01*
X134992720Y-110000742D02*
X134840339Y-109962647D01*
X134840339Y-109962647D02*
X134764149Y-109924552D01*
X134764149Y-109924552D02*
X134726054Y-109886457D01*
X134726054Y-109886457D02*
X134687958Y-109810266D01*
X134687958Y-109810266D02*
X134687958Y-109734076D01*
X134687958Y-109734076D02*
X134726054Y-109657885D01*
X134726054Y-109657885D02*
X134764149Y-109619790D01*
X134764149Y-109619790D02*
X134840339Y-109581695D01*
X134840339Y-109581695D02*
X135030816Y-109581695D01*
X135030816Y-109581695D02*
X135145101Y-109619790D01*
X133815578Y-109359600D02*
X135217483Y-109359600D01*
X153699504Y-89795332D02*
X153737600Y-89833428D01*
X153737600Y-89833428D02*
X153775695Y-89947713D01*
X153775695Y-89947713D02*
X153775695Y-90023904D01*
X153775695Y-90023904D02*
X153737600Y-90138190D01*
X153737600Y-90138190D02*
X153661409Y-90214380D01*
X153661409Y-90214380D02*
X153585219Y-90252475D01*
X153585219Y-90252475D02*
X153432838Y-90290571D01*
X153432838Y-90290571D02*
X153318552Y-90290571D01*
X153318552Y-90290571D02*
X153166171Y-90252475D01*
X153166171Y-90252475D02*
X153089980Y-90214380D01*
X153089980Y-90214380D02*
X153013790Y-90138190D01*
X153013790Y-90138190D02*
X152975695Y-90023904D01*
X152975695Y-90023904D02*
X152975695Y-89947713D01*
X152975695Y-89947713D02*
X153013790Y-89833428D01*
X153013790Y-89833428D02*
X153051885Y-89795332D01*
X153775695Y-89414380D02*
X153775695Y-89261999D01*
X153775695Y-89261999D02*
X153737600Y-89185809D01*
X153737600Y-89185809D02*
X153699504Y-89147713D01*
X153699504Y-89147713D02*
X153585219Y-89071523D01*
X153585219Y-89071523D02*
X153432838Y-89033428D01*
X153432838Y-89033428D02*
X153128076Y-89033428D01*
X153128076Y-89033428D02*
X153051885Y-89071523D01*
X153051885Y-89071523D02*
X153013790Y-89109618D01*
X153013790Y-89109618D02*
X152975695Y-89185809D01*
X152975695Y-89185809D02*
X152975695Y-89338190D01*
X152975695Y-89338190D02*
X153013790Y-89414380D01*
X153013790Y-89414380D02*
X153051885Y-89452475D01*
X153051885Y-89452475D02*
X153128076Y-89490571D01*
X153128076Y-89490571D02*
X153318552Y-89490571D01*
X153318552Y-89490571D02*
X153394742Y-89452475D01*
X153394742Y-89452475D02*
X153432838Y-89414380D01*
X153432838Y-89414380D02*
X153470933Y-89338190D01*
X153470933Y-89338190D02*
X153470933Y-89185809D01*
X153470933Y-89185809D02*
X153432838Y-89109618D01*
X153432838Y-89109618D02*
X153394742Y-89071523D01*
X153394742Y-89071523D02*
X153318552Y-89033428D01*
X137534667Y-107547695D02*
X137268000Y-107166742D01*
X137077524Y-107547695D02*
X137077524Y-106747695D01*
X137077524Y-106747695D02*
X137382286Y-106747695D01*
X137382286Y-106747695D02*
X137458476Y-106785790D01*
X137458476Y-106785790D02*
X137496571Y-106823885D01*
X137496571Y-106823885D02*
X137534667Y-106900076D01*
X137534667Y-106900076D02*
X137534667Y-107014361D01*
X137534667Y-107014361D02*
X137496571Y-107090552D01*
X137496571Y-107090552D02*
X137458476Y-107128647D01*
X137458476Y-107128647D02*
X137382286Y-107166742D01*
X137382286Y-107166742D02*
X137077524Y-107166742D01*
X138220381Y-107014361D02*
X138220381Y-107547695D01*
X138029905Y-106709600D02*
X137839428Y-107281028D01*
X137839428Y-107281028D02*
X138334667Y-107281028D01*
X157077695Y-105543332D02*
X156696742Y-105809999D01*
X157077695Y-106000475D02*
X156277695Y-106000475D01*
X156277695Y-106000475D02*
X156277695Y-105695713D01*
X156277695Y-105695713D02*
X156315790Y-105619523D01*
X156315790Y-105619523D02*
X156353885Y-105581428D01*
X156353885Y-105581428D02*
X156430076Y-105543332D01*
X156430076Y-105543332D02*
X156544361Y-105543332D01*
X156544361Y-105543332D02*
X156620552Y-105581428D01*
X156620552Y-105581428D02*
X156658647Y-105619523D01*
X156658647Y-105619523D02*
X156696742Y-105695713D01*
X156696742Y-105695713D02*
X156696742Y-106000475D01*
X156277695Y-104819523D02*
X156277695Y-105200475D01*
X156277695Y-105200475D02*
X156658647Y-105238571D01*
X156658647Y-105238571D02*
X156620552Y-105200475D01*
X156620552Y-105200475D02*
X156582457Y-105124285D01*
X156582457Y-105124285D02*
X156582457Y-104933809D01*
X156582457Y-104933809D02*
X156620552Y-104857618D01*
X156620552Y-104857618D02*
X156658647Y-104819523D01*
X156658647Y-104819523D02*
X156734838Y-104781428D01*
X156734838Y-104781428D02*
X156925314Y-104781428D01*
X156925314Y-104781428D02*
X157001504Y-104819523D01*
X157001504Y-104819523D02*
X157039600Y-104857618D01*
X157039600Y-104857618D02*
X157077695Y-104933809D01*
X157077695Y-104933809D02*
X157077695Y-105124285D01*
X157077695Y-105124285D02*
X157039600Y-105200475D01*
X157039600Y-105200475D02*
X157001504Y-105238571D01*
X133978667Y-92485504D02*
X133940571Y-92523600D01*
X133940571Y-92523600D02*
X133826286Y-92561695D01*
X133826286Y-92561695D02*
X133750095Y-92561695D01*
X133750095Y-92561695D02*
X133635809Y-92523600D01*
X133635809Y-92523600D02*
X133559619Y-92447409D01*
X133559619Y-92447409D02*
X133521524Y-92371219D01*
X133521524Y-92371219D02*
X133483428Y-92218838D01*
X133483428Y-92218838D02*
X133483428Y-92104552D01*
X133483428Y-92104552D02*
X133521524Y-91952171D01*
X133521524Y-91952171D02*
X133559619Y-91875980D01*
X133559619Y-91875980D02*
X133635809Y-91799790D01*
X133635809Y-91799790D02*
X133750095Y-91761695D01*
X133750095Y-91761695D02*
X133826286Y-91761695D01*
X133826286Y-91761695D02*
X133940571Y-91799790D01*
X133940571Y-91799790D02*
X133978667Y-91837885D01*
X134435809Y-92104552D02*
X134359619Y-92066457D01*
X134359619Y-92066457D02*
X134321524Y-92028361D01*
X134321524Y-92028361D02*
X134283428Y-91952171D01*
X134283428Y-91952171D02*
X134283428Y-91914076D01*
X134283428Y-91914076D02*
X134321524Y-91837885D01*
X134321524Y-91837885D02*
X134359619Y-91799790D01*
X134359619Y-91799790D02*
X134435809Y-91761695D01*
X134435809Y-91761695D02*
X134588190Y-91761695D01*
X134588190Y-91761695D02*
X134664381Y-91799790D01*
X134664381Y-91799790D02*
X134702476Y-91837885D01*
X134702476Y-91837885D02*
X134740571Y-91914076D01*
X134740571Y-91914076D02*
X134740571Y-91952171D01*
X134740571Y-91952171D02*
X134702476Y-92028361D01*
X134702476Y-92028361D02*
X134664381Y-92066457D01*
X134664381Y-92066457D02*
X134588190Y-92104552D01*
X134588190Y-92104552D02*
X134435809Y-92104552D01*
X134435809Y-92104552D02*
X134359619Y-92142647D01*
X134359619Y-92142647D02*
X134321524Y-92180742D01*
X134321524Y-92180742D02*
X134283428Y-92256933D01*
X134283428Y-92256933D02*
X134283428Y-92409314D01*
X134283428Y-92409314D02*
X134321524Y-92485504D01*
X134321524Y-92485504D02*
X134359619Y-92523600D01*
X134359619Y-92523600D02*
X134435809Y-92561695D01*
X134435809Y-92561695D02*
X134588190Y-92561695D01*
X134588190Y-92561695D02*
X134664381Y-92523600D01*
X134664381Y-92523600D02*
X134702476Y-92485504D01*
X134702476Y-92485504D02*
X134740571Y-92409314D01*
X134740571Y-92409314D02*
X134740571Y-92256933D01*
X134740571Y-92256933D02*
X134702476Y-92180742D01*
X134702476Y-92180742D02*
X134664381Y-92142647D01*
X134664381Y-92142647D02*
X134588190Y-92104552D01*
X146932667Y-108817695D02*
X146666000Y-108436742D01*
X146475524Y-108817695D02*
X146475524Y-108017695D01*
X146475524Y-108017695D02*
X146780286Y-108017695D01*
X146780286Y-108017695D02*
X146856476Y-108055790D01*
X146856476Y-108055790D02*
X146894571Y-108093885D01*
X146894571Y-108093885D02*
X146932667Y-108170076D01*
X146932667Y-108170076D02*
X146932667Y-108284361D01*
X146932667Y-108284361D02*
X146894571Y-108360552D01*
X146894571Y-108360552D02*
X146856476Y-108398647D01*
X146856476Y-108398647D02*
X146780286Y-108436742D01*
X146780286Y-108436742D02*
X146475524Y-108436742D01*
X147694571Y-108817695D02*
X147237428Y-108817695D01*
X147466000Y-108817695D02*
X147466000Y-108017695D01*
X147466000Y-108017695D02*
X147389809Y-108131980D01*
X147389809Y-108131980D02*
X147313619Y-108208171D01*
X147313619Y-108208171D02*
X147237428Y-108246266D01*
X136518667Y-92993504D02*
X136480571Y-93031600D01*
X136480571Y-93031600D02*
X136366286Y-93069695D01*
X136366286Y-93069695D02*
X136290095Y-93069695D01*
X136290095Y-93069695D02*
X136175809Y-93031600D01*
X136175809Y-93031600D02*
X136099619Y-92955409D01*
X136099619Y-92955409D02*
X136061524Y-92879219D01*
X136061524Y-92879219D02*
X136023428Y-92726838D01*
X136023428Y-92726838D02*
X136023428Y-92612552D01*
X136023428Y-92612552D02*
X136061524Y-92460171D01*
X136061524Y-92460171D02*
X136099619Y-92383980D01*
X136099619Y-92383980D02*
X136175809Y-92307790D01*
X136175809Y-92307790D02*
X136290095Y-92269695D01*
X136290095Y-92269695D02*
X136366286Y-92269695D01*
X136366286Y-92269695D02*
X136480571Y-92307790D01*
X136480571Y-92307790D02*
X136518667Y-92345885D01*
X136785333Y-92269695D02*
X137318667Y-92269695D01*
X137318667Y-92269695D02*
X136975809Y-93069695D01*
X146409695Y-105543332D02*
X146028742Y-105809999D01*
X146409695Y-106000475D02*
X145609695Y-106000475D01*
X145609695Y-106000475D02*
X145609695Y-105695713D01*
X145609695Y-105695713D02*
X145647790Y-105619523D01*
X145647790Y-105619523D02*
X145685885Y-105581428D01*
X145685885Y-105581428D02*
X145762076Y-105543332D01*
X145762076Y-105543332D02*
X145876361Y-105543332D01*
X145876361Y-105543332D02*
X145952552Y-105581428D01*
X145952552Y-105581428D02*
X145990647Y-105619523D01*
X145990647Y-105619523D02*
X146028742Y-105695713D01*
X146028742Y-105695713D02*
X146028742Y-106000475D01*
X145609695Y-104857618D02*
X145609695Y-105009999D01*
X145609695Y-105009999D02*
X145647790Y-105086190D01*
X145647790Y-105086190D02*
X145685885Y-105124285D01*
X145685885Y-105124285D02*
X145800171Y-105200475D01*
X145800171Y-105200475D02*
X145952552Y-105238571D01*
X145952552Y-105238571D02*
X146257314Y-105238571D01*
X146257314Y-105238571D02*
X146333504Y-105200475D01*
X146333504Y-105200475D02*
X146371600Y-105162380D01*
X146371600Y-105162380D02*
X146409695Y-105086190D01*
X146409695Y-105086190D02*
X146409695Y-104933809D01*
X146409695Y-104933809D02*
X146371600Y-104857618D01*
X146371600Y-104857618D02*
X146333504Y-104819523D01*
X146333504Y-104819523D02*
X146257314Y-104781428D01*
X146257314Y-104781428D02*
X146066838Y-104781428D01*
X146066838Y-104781428D02*
X145990647Y-104819523D01*
X145990647Y-104819523D02*
X145952552Y-104857618D01*
X145952552Y-104857618D02*
X145914457Y-104933809D01*
X145914457Y-104933809D02*
X145914457Y-105086190D01*
X145914457Y-105086190D02*
X145952552Y-105162380D01*
X145952552Y-105162380D02*
X145990647Y-105200475D01*
X145990647Y-105200475D02*
X146066838Y-105238571D01*
X133379504Y-90176285D02*
X133417600Y-90214381D01*
X133417600Y-90214381D02*
X133455695Y-90328666D01*
X133455695Y-90328666D02*
X133455695Y-90404857D01*
X133455695Y-90404857D02*
X133417600Y-90519143D01*
X133417600Y-90519143D02*
X133341409Y-90595333D01*
X133341409Y-90595333D02*
X133265219Y-90633428D01*
X133265219Y-90633428D02*
X133112838Y-90671524D01*
X133112838Y-90671524D02*
X132998552Y-90671524D01*
X132998552Y-90671524D02*
X132846171Y-90633428D01*
X132846171Y-90633428D02*
X132769980Y-90595333D01*
X132769980Y-90595333D02*
X132693790Y-90519143D01*
X132693790Y-90519143D02*
X132655695Y-90404857D01*
X132655695Y-90404857D02*
X132655695Y-90328666D01*
X132655695Y-90328666D02*
X132693790Y-90214381D01*
X132693790Y-90214381D02*
X132731885Y-90176285D01*
X133455695Y-89414381D02*
X133455695Y-89871524D01*
X133455695Y-89642952D02*
X132655695Y-89642952D01*
X132655695Y-89642952D02*
X132769980Y-89719143D01*
X132769980Y-89719143D02*
X132846171Y-89795333D01*
X132846171Y-89795333D02*
X132884266Y-89871524D01*
X132655695Y-88919142D02*
X132655695Y-88842952D01*
X132655695Y-88842952D02*
X132693790Y-88766761D01*
X132693790Y-88766761D02*
X132731885Y-88728666D01*
X132731885Y-88728666D02*
X132808076Y-88690571D01*
X132808076Y-88690571D02*
X132960457Y-88652476D01*
X132960457Y-88652476D02*
X133150933Y-88652476D01*
X133150933Y-88652476D02*
X133303314Y-88690571D01*
X133303314Y-88690571D02*
X133379504Y-88728666D01*
X133379504Y-88728666D02*
X133417600Y-88766761D01*
X133417600Y-88766761D02*
X133455695Y-88842952D01*
X133455695Y-88842952D02*
X133455695Y-88919142D01*
X133455695Y-88919142D02*
X133417600Y-88995333D01*
X133417600Y-88995333D02*
X133379504Y-89033428D01*
X133379504Y-89033428D02*
X133303314Y-89071523D01*
X133303314Y-89071523D02*
X133150933Y-89109619D01*
X133150933Y-89109619D02*
X132960457Y-89109619D01*
X132960457Y-89109619D02*
X132808076Y-89071523D01*
X132808076Y-89071523D02*
X132731885Y-89033428D01*
X132731885Y-89033428D02*
X132693790Y-88995333D01*
X132693790Y-88995333D02*
X132655695Y-88919142D01*
X153282667Y-102899504D02*
X153244571Y-102937600D01*
X153244571Y-102937600D02*
X153130286Y-102975695D01*
X153130286Y-102975695D02*
X153054095Y-102975695D01*
X153054095Y-102975695D02*
X152939809Y-102937600D01*
X152939809Y-102937600D02*
X152863619Y-102861409D01*
X152863619Y-102861409D02*
X152825524Y-102785219D01*
X152825524Y-102785219D02*
X152787428Y-102632838D01*
X152787428Y-102632838D02*
X152787428Y-102518552D01*
X152787428Y-102518552D02*
X152825524Y-102366171D01*
X152825524Y-102366171D02*
X152863619Y-102289980D01*
X152863619Y-102289980D02*
X152939809Y-102213790D01*
X152939809Y-102213790D02*
X153054095Y-102175695D01*
X153054095Y-102175695D02*
X153130286Y-102175695D01*
X153130286Y-102175695D02*
X153244571Y-102213790D01*
X153244571Y-102213790D02*
X153282667Y-102251885D01*
X154006476Y-102175695D02*
X153625524Y-102175695D01*
X153625524Y-102175695D02*
X153587428Y-102556647D01*
X153587428Y-102556647D02*
X153625524Y-102518552D01*
X153625524Y-102518552D02*
X153701714Y-102480457D01*
X153701714Y-102480457D02*
X153892190Y-102480457D01*
X153892190Y-102480457D02*
X153968381Y-102518552D01*
X153968381Y-102518552D02*
X154006476Y-102556647D01*
X154006476Y-102556647D02*
X154044571Y-102632838D01*
X154044571Y-102632838D02*
X154044571Y-102823314D01*
X154044571Y-102823314D02*
X154006476Y-102899504D01*
X154006476Y-102899504D02*
X153968381Y-102937600D01*
X153968381Y-102937600D02*
X153892190Y-102975695D01*
X153892190Y-102975695D02*
X153701714Y-102975695D01*
X153701714Y-102975695D02*
X153625524Y-102937600D01*
X153625524Y-102937600D02*
X153587428Y-102899504D01*
X133597714Y-104931504D02*
X133559618Y-104969600D01*
X133559618Y-104969600D02*
X133445333Y-105007695D01*
X133445333Y-105007695D02*
X133369142Y-105007695D01*
X133369142Y-105007695D02*
X133254856Y-104969600D01*
X133254856Y-104969600D02*
X133178666Y-104893409D01*
X133178666Y-104893409D02*
X133140571Y-104817219D01*
X133140571Y-104817219D02*
X133102475Y-104664838D01*
X133102475Y-104664838D02*
X133102475Y-104550552D01*
X133102475Y-104550552D02*
X133140571Y-104398171D01*
X133140571Y-104398171D02*
X133178666Y-104321980D01*
X133178666Y-104321980D02*
X133254856Y-104245790D01*
X133254856Y-104245790D02*
X133369142Y-104207695D01*
X133369142Y-104207695D02*
X133445333Y-104207695D01*
X133445333Y-104207695D02*
X133559618Y-104245790D01*
X133559618Y-104245790D02*
X133597714Y-104283885D01*
X134359618Y-105007695D02*
X133902475Y-105007695D01*
X134131047Y-105007695D02*
X134131047Y-104207695D01*
X134131047Y-104207695D02*
X134054856Y-104321980D01*
X134054856Y-104321980D02*
X133978666Y-104398171D01*
X133978666Y-104398171D02*
X133902475Y-104436266D01*
X135121523Y-105007695D02*
X134664380Y-105007695D01*
X134892952Y-105007695D02*
X134892952Y-104207695D01*
X134892952Y-104207695D02*
X134816761Y-104321980D01*
X134816761Y-104321980D02*
X134740571Y-104398171D01*
X134740571Y-104398171D02*
X134664380Y-104436266D01*
X143439667Y-104931504D02*
X143401571Y-104969600D01*
X143401571Y-104969600D02*
X143287286Y-105007695D01*
X143287286Y-105007695D02*
X143211095Y-105007695D01*
X143211095Y-105007695D02*
X143096809Y-104969600D01*
X143096809Y-104969600D02*
X143020619Y-104893409D01*
X143020619Y-104893409D02*
X142982524Y-104817219D01*
X142982524Y-104817219D02*
X142944428Y-104664838D01*
X142944428Y-104664838D02*
X142944428Y-104550552D01*
X142944428Y-104550552D02*
X142982524Y-104398171D01*
X142982524Y-104398171D02*
X143020619Y-104321980D01*
X143020619Y-104321980D02*
X143096809Y-104245790D01*
X143096809Y-104245790D02*
X143211095Y-104207695D01*
X143211095Y-104207695D02*
X143287286Y-104207695D01*
X143287286Y-104207695D02*
X143401571Y-104245790D01*
X143401571Y-104245790D02*
X143439667Y-104283885D01*
X143706333Y-104207695D02*
X144201571Y-104207695D01*
X144201571Y-104207695D02*
X143934905Y-104512457D01*
X143934905Y-104512457D02*
X144049190Y-104512457D01*
X144049190Y-104512457D02*
X144125381Y-104550552D01*
X144125381Y-104550552D02*
X144163476Y-104588647D01*
X144163476Y-104588647D02*
X144201571Y-104664838D01*
X144201571Y-104664838D02*
X144201571Y-104855314D01*
X144201571Y-104855314D02*
X144163476Y-104931504D01*
X144163476Y-104931504D02*
X144125381Y-104969600D01*
X144125381Y-104969600D02*
X144049190Y-105007695D01*
X144049190Y-105007695D02*
X143820619Y-105007695D01*
X143820619Y-105007695D02*
X143744428Y-104969600D01*
X143744428Y-104969600D02*
X143706333Y-104931504D01*
X129309695Y-112280666D02*
X129881123Y-112280666D01*
X129881123Y-112280666D02*
X129995409Y-112318761D01*
X129995409Y-112318761D02*
X130071600Y-112394952D01*
X130071600Y-112394952D02*
X130109695Y-112509237D01*
X130109695Y-112509237D02*
X130109695Y-112585428D01*
X130109695Y-111480666D02*
X130109695Y-111937809D01*
X130109695Y-111709237D02*
X129309695Y-111709237D01*
X129309695Y-111709237D02*
X129423980Y-111785428D01*
X129423980Y-111785428D02*
X129500171Y-111861618D01*
X129500171Y-111861618D02*
X129538266Y-111937809D01*
X150303504Y-97669332D02*
X150341600Y-97707428D01*
X150341600Y-97707428D02*
X150379695Y-97821713D01*
X150379695Y-97821713D02*
X150379695Y-97897904D01*
X150379695Y-97897904D02*
X150341600Y-98012190D01*
X150341600Y-98012190D02*
X150265409Y-98088380D01*
X150265409Y-98088380D02*
X150189219Y-98126475D01*
X150189219Y-98126475D02*
X150036838Y-98164571D01*
X150036838Y-98164571D02*
X149922552Y-98164571D01*
X149922552Y-98164571D02*
X149770171Y-98126475D01*
X149770171Y-98126475D02*
X149693980Y-98088380D01*
X149693980Y-98088380D02*
X149617790Y-98012190D01*
X149617790Y-98012190D02*
X149579695Y-97897904D01*
X149579695Y-97897904D02*
X149579695Y-97821713D01*
X149579695Y-97821713D02*
X149617790Y-97707428D01*
X149617790Y-97707428D02*
X149655885Y-97669332D01*
X149579695Y-96983618D02*
X149579695Y-97135999D01*
X149579695Y-97135999D02*
X149617790Y-97212190D01*
X149617790Y-97212190D02*
X149655885Y-97250285D01*
X149655885Y-97250285D02*
X149770171Y-97326475D01*
X149770171Y-97326475D02*
X149922552Y-97364571D01*
X149922552Y-97364571D02*
X150227314Y-97364571D01*
X150227314Y-97364571D02*
X150303504Y-97326475D01*
X150303504Y-97326475D02*
X150341600Y-97288380D01*
X150341600Y-97288380D02*
X150379695Y-97212190D01*
X150379695Y-97212190D02*
X150379695Y-97059809D01*
X150379695Y-97059809D02*
X150341600Y-96983618D01*
X150341600Y-96983618D02*
X150303504Y-96945523D01*
X150303504Y-96945523D02*
X150227314Y-96907428D01*
X150227314Y-96907428D02*
X150036838Y-96907428D01*
X150036838Y-96907428D02*
X149960647Y-96945523D01*
X149960647Y-96945523D02*
X149922552Y-96983618D01*
X149922552Y-96983618D02*
X149884457Y-97059809D01*
X149884457Y-97059809D02*
X149884457Y-97212190D01*
X149884457Y-97212190D02*
X149922552Y-97288380D01*
X149922552Y-97288380D02*
X149960647Y-97326475D01*
X149960647Y-97326475D02*
X150036838Y-97364571D01*
X149479048Y-93196742D02*
X149479048Y-93577695D01*
X149212381Y-92777695D02*
X149479048Y-93196742D01*
X149479048Y-93196742D02*
X149745714Y-92777695D01*
X150431428Y-93577695D02*
X149974285Y-93577695D01*
X150202857Y-93577695D02*
X150202857Y-92777695D01*
X150202857Y-92777695D02*
X150126666Y-92891980D01*
X150126666Y-92891980D02*
X150050476Y-92968171D01*
X150050476Y-92968171D02*
X149974285Y-93006266D01*
X145662667Y-107547695D02*
X145396000Y-107166742D01*
X145205524Y-107547695D02*
X145205524Y-106747695D01*
X145205524Y-106747695D02*
X145510286Y-106747695D01*
X145510286Y-106747695D02*
X145586476Y-106785790D01*
X145586476Y-106785790D02*
X145624571Y-106823885D01*
X145624571Y-106823885D02*
X145662667Y-106900076D01*
X145662667Y-106900076D02*
X145662667Y-107014361D01*
X145662667Y-107014361D02*
X145624571Y-107090552D01*
X145624571Y-107090552D02*
X145586476Y-107128647D01*
X145586476Y-107128647D02*
X145510286Y-107166742D01*
X145510286Y-107166742D02*
X145205524Y-107166742D01*
X145929333Y-106747695D02*
X146424571Y-106747695D01*
X146424571Y-106747695D02*
X146157905Y-107052457D01*
X146157905Y-107052457D02*
X146272190Y-107052457D01*
X146272190Y-107052457D02*
X146348381Y-107090552D01*
X146348381Y-107090552D02*
X146386476Y-107128647D01*
X146386476Y-107128647D02*
X146424571Y-107204838D01*
X146424571Y-107204838D02*
X146424571Y-107395314D01*
X146424571Y-107395314D02*
X146386476Y-107471504D01*
X146386476Y-107471504D02*
X146348381Y-107509600D01*
X146348381Y-107509600D02*
X146272190Y-107547695D01*
X146272190Y-107547695D02*
X146043619Y-107547695D01*
X146043619Y-107547695D02*
X145967428Y-107509600D01*
X145967428Y-107509600D02*
X145929333Y-107471504D01*
X135482647Y-98710666D02*
X135482647Y-98977332D01*
X135901695Y-98977332D02*
X135101695Y-98977332D01*
X135101695Y-98977332D02*
X135101695Y-98596380D01*
X135482647Y-98024952D02*
X135520742Y-97910666D01*
X135520742Y-97910666D02*
X135558838Y-97872571D01*
X135558838Y-97872571D02*
X135635028Y-97834475D01*
X135635028Y-97834475D02*
X135749314Y-97834475D01*
X135749314Y-97834475D02*
X135825504Y-97872571D01*
X135825504Y-97872571D02*
X135863600Y-97910666D01*
X135863600Y-97910666D02*
X135901695Y-97986856D01*
X135901695Y-97986856D02*
X135901695Y-98291618D01*
X135901695Y-98291618D02*
X135101695Y-98291618D01*
X135101695Y-98291618D02*
X135101695Y-98024952D01*
X135101695Y-98024952D02*
X135139790Y-97948761D01*
X135139790Y-97948761D02*
X135177885Y-97910666D01*
X135177885Y-97910666D02*
X135254076Y-97872571D01*
X135254076Y-97872571D02*
X135330266Y-97872571D01*
X135330266Y-97872571D02*
X135406457Y-97910666D01*
X135406457Y-97910666D02*
X135444552Y-97948761D01*
X135444552Y-97948761D02*
X135482647Y-98024952D01*
X135482647Y-98024952D02*
X135482647Y-98291618D01*
X135901695Y-97072571D02*
X135901695Y-97529714D01*
X135901695Y-97301142D02*
X135101695Y-97301142D01*
X135101695Y-97301142D02*
X135215980Y-97377333D01*
X135215980Y-97377333D02*
X135292171Y-97453523D01*
X135292171Y-97453523D02*
X135330266Y-97529714D01*
X155731504Y-105543332D02*
X155769600Y-105581428D01*
X155769600Y-105581428D02*
X155807695Y-105695713D01*
X155807695Y-105695713D02*
X155807695Y-105771904D01*
X155807695Y-105771904D02*
X155769600Y-105886190D01*
X155769600Y-105886190D02*
X155693409Y-105962380D01*
X155693409Y-105962380D02*
X155617219Y-106000475D01*
X155617219Y-106000475D02*
X155464838Y-106038571D01*
X155464838Y-106038571D02*
X155350552Y-106038571D01*
X155350552Y-106038571D02*
X155198171Y-106000475D01*
X155198171Y-106000475D02*
X155121980Y-105962380D01*
X155121980Y-105962380D02*
X155045790Y-105886190D01*
X155045790Y-105886190D02*
X155007695Y-105771904D01*
X155007695Y-105771904D02*
X155007695Y-105695713D01*
X155007695Y-105695713D02*
X155045790Y-105581428D01*
X155045790Y-105581428D02*
X155083885Y-105543332D01*
X155807695Y-104781428D02*
X155807695Y-105238571D01*
X155807695Y-105009999D02*
X155007695Y-105009999D01*
X155007695Y-105009999D02*
X155121980Y-105086190D01*
X155121980Y-105086190D02*
X155198171Y-105162380D01*
X155198171Y-105162380D02*
X155236266Y-105238571D01*
X147603504Y-105543332D02*
X147641600Y-105581428D01*
X147641600Y-105581428D02*
X147679695Y-105695713D01*
X147679695Y-105695713D02*
X147679695Y-105771904D01*
X147679695Y-105771904D02*
X147641600Y-105886190D01*
X147641600Y-105886190D02*
X147565409Y-105962380D01*
X147565409Y-105962380D02*
X147489219Y-106000475D01*
X147489219Y-106000475D02*
X147336838Y-106038571D01*
X147336838Y-106038571D02*
X147222552Y-106038571D01*
X147222552Y-106038571D02*
X147070171Y-106000475D01*
X147070171Y-106000475D02*
X146993980Y-105962380D01*
X146993980Y-105962380D02*
X146917790Y-105886190D01*
X146917790Y-105886190D02*
X146879695Y-105771904D01*
X146879695Y-105771904D02*
X146879695Y-105695713D01*
X146879695Y-105695713D02*
X146917790Y-105581428D01*
X146917790Y-105581428D02*
X146955885Y-105543332D01*
X146955885Y-105238571D02*
X146917790Y-105200475D01*
X146917790Y-105200475D02*
X146879695Y-105124285D01*
X146879695Y-105124285D02*
X146879695Y-104933809D01*
X146879695Y-104933809D02*
X146917790Y-104857618D01*
X146917790Y-104857618D02*
X146955885Y-104819523D01*
X146955885Y-104819523D02*
X147032076Y-104781428D01*
X147032076Y-104781428D02*
X147108266Y-104781428D01*
X147108266Y-104781428D02*
X147222552Y-104819523D01*
X147222552Y-104819523D02*
X147679695Y-105276666D01*
X147679695Y-105276666D02*
X147679695Y-104781428D01*
X132942647Y-98710666D02*
X132942647Y-98977332D01*
X133361695Y-98977332D02*
X132561695Y-98977332D01*
X132561695Y-98977332D02*
X132561695Y-98596380D01*
X132942647Y-98024952D02*
X132980742Y-97910666D01*
X132980742Y-97910666D02*
X133018838Y-97872571D01*
X133018838Y-97872571D02*
X133095028Y-97834475D01*
X133095028Y-97834475D02*
X133209314Y-97834475D01*
X133209314Y-97834475D02*
X133285504Y-97872571D01*
X133285504Y-97872571D02*
X133323600Y-97910666D01*
X133323600Y-97910666D02*
X133361695Y-97986856D01*
X133361695Y-97986856D02*
X133361695Y-98291618D01*
X133361695Y-98291618D02*
X132561695Y-98291618D01*
X132561695Y-98291618D02*
X132561695Y-98024952D01*
X132561695Y-98024952D02*
X132599790Y-97948761D01*
X132599790Y-97948761D02*
X132637885Y-97910666D01*
X132637885Y-97910666D02*
X132714076Y-97872571D01*
X132714076Y-97872571D02*
X132790266Y-97872571D01*
X132790266Y-97872571D02*
X132866457Y-97910666D01*
X132866457Y-97910666D02*
X132904552Y-97948761D01*
X132904552Y-97948761D02*
X132942647Y-98024952D01*
X132942647Y-98024952D02*
X132942647Y-98291618D01*
X132637885Y-97529714D02*
X132599790Y-97491618D01*
X132599790Y-97491618D02*
X132561695Y-97415428D01*
X132561695Y-97415428D02*
X132561695Y-97224952D01*
X132561695Y-97224952D02*
X132599790Y-97148761D01*
X132599790Y-97148761D02*
X132637885Y-97110666D01*
X132637885Y-97110666D02*
X132714076Y-97072571D01*
X132714076Y-97072571D02*
X132790266Y-97072571D01*
X132790266Y-97072571D02*
X132904552Y-97110666D01*
X132904552Y-97110666D02*
X133361695Y-97567809D01*
X133361695Y-97567809D02*
X133361695Y-97072571D01*
X140137667Y-104931504D02*
X140099571Y-104969600D01*
X140099571Y-104969600D02*
X139985286Y-105007695D01*
X139985286Y-105007695D02*
X139909095Y-105007695D01*
X139909095Y-105007695D02*
X139794809Y-104969600D01*
X139794809Y-104969600D02*
X139718619Y-104893409D01*
X139718619Y-104893409D02*
X139680524Y-104817219D01*
X139680524Y-104817219D02*
X139642428Y-104664838D01*
X139642428Y-104664838D02*
X139642428Y-104550552D01*
X139642428Y-104550552D02*
X139680524Y-104398171D01*
X139680524Y-104398171D02*
X139718619Y-104321980D01*
X139718619Y-104321980D02*
X139794809Y-104245790D01*
X139794809Y-104245790D02*
X139909095Y-104207695D01*
X139909095Y-104207695D02*
X139985286Y-104207695D01*
X139985286Y-104207695D02*
X140099571Y-104245790D01*
X140099571Y-104245790D02*
X140137667Y-104283885D01*
X140823381Y-104474361D02*
X140823381Y-105007695D01*
X140632905Y-104169600D02*
X140442428Y-104741028D01*
X140442428Y-104741028D02*
X140937667Y-104741028D01*
X137311695Y-100431523D02*
X137959314Y-100431523D01*
X137959314Y-100431523D02*
X138035504Y-100393428D01*
X138035504Y-100393428D02*
X138073600Y-100355333D01*
X138073600Y-100355333D02*
X138111695Y-100279142D01*
X138111695Y-100279142D02*
X138111695Y-100126761D01*
X138111695Y-100126761D02*
X138073600Y-100050571D01*
X138073600Y-100050571D02*
X138035504Y-100012476D01*
X138035504Y-100012476D02*
X137959314Y-99974380D01*
X137959314Y-99974380D02*
X137311695Y-99974380D01*
X138111695Y-99174381D02*
X138111695Y-99631524D01*
X138111695Y-99402952D02*
X137311695Y-99402952D01*
X137311695Y-99402952D02*
X137425980Y-99479143D01*
X137425980Y-99479143D02*
X137502171Y-99555333D01*
X137502171Y-99555333D02*
X137540266Y-99631524D01*
X136137714Y-104169504D02*
X136099618Y-104207600D01*
X136099618Y-104207600D02*
X135985333Y-104245695D01*
X135985333Y-104245695D02*
X135909142Y-104245695D01*
X135909142Y-104245695D02*
X135794856Y-104207600D01*
X135794856Y-104207600D02*
X135718666Y-104131409D01*
X135718666Y-104131409D02*
X135680571Y-104055219D01*
X135680571Y-104055219D02*
X135642475Y-103902838D01*
X135642475Y-103902838D02*
X135642475Y-103788552D01*
X135642475Y-103788552D02*
X135680571Y-103636171D01*
X135680571Y-103636171D02*
X135718666Y-103559980D01*
X135718666Y-103559980D02*
X135794856Y-103483790D01*
X135794856Y-103483790D02*
X135909142Y-103445695D01*
X135909142Y-103445695D02*
X135985333Y-103445695D01*
X135985333Y-103445695D02*
X136099618Y-103483790D01*
X136099618Y-103483790D02*
X136137714Y-103521885D01*
X136899618Y-104245695D02*
X136442475Y-104245695D01*
X136671047Y-104245695D02*
X136671047Y-103445695D01*
X136671047Y-103445695D02*
X136594856Y-103559980D01*
X136594856Y-103559980D02*
X136518666Y-103636171D01*
X136518666Y-103636171D02*
X136442475Y-103674266D01*
X137204380Y-103521885D02*
X137242476Y-103483790D01*
X137242476Y-103483790D02*
X137318666Y-103445695D01*
X137318666Y-103445695D02*
X137509142Y-103445695D01*
X137509142Y-103445695D02*
X137585333Y-103483790D01*
X137585333Y-103483790D02*
X137623428Y-103521885D01*
X137623428Y-103521885D02*
X137661523Y-103598076D01*
X137661523Y-103598076D02*
X137661523Y-103674266D01*
X137661523Y-103674266D02*
X137623428Y-103788552D01*
X137623428Y-103788552D02*
X137166285Y-104245695D01*
X137166285Y-104245695D02*
X137661523Y-104245695D01*
X155314667Y-108817695D02*
X155048000Y-108436742D01*
X154857524Y-108817695D02*
X154857524Y-108017695D01*
X154857524Y-108017695D02*
X155162286Y-108017695D01*
X155162286Y-108017695D02*
X155238476Y-108055790D01*
X155238476Y-108055790D02*
X155276571Y-108093885D01*
X155276571Y-108093885D02*
X155314667Y-108170076D01*
X155314667Y-108170076D02*
X155314667Y-108284361D01*
X155314667Y-108284361D02*
X155276571Y-108360552D01*
X155276571Y-108360552D02*
X155238476Y-108398647D01*
X155238476Y-108398647D02*
X155162286Y-108436742D01*
X155162286Y-108436742D02*
X154857524Y-108436742D01*
X155619428Y-108093885D02*
X155657524Y-108055790D01*
X155657524Y-108055790D02*
X155733714Y-108017695D01*
X155733714Y-108017695D02*
X155924190Y-108017695D01*
X155924190Y-108017695D02*
X156000381Y-108055790D01*
X156000381Y-108055790D02*
X156038476Y-108093885D01*
X156038476Y-108093885D02*
X156076571Y-108170076D01*
X156076571Y-108170076D02*
X156076571Y-108246266D01*
X156076571Y-108246266D02*
X156038476Y-108360552D01*
X156038476Y-108360552D02*
X155581333Y-108817695D01*
X155581333Y-108817695D02*
X156076571Y-108817695D01*
D12*
%TO.C,C9*%
X152402000Y-89521420D02*
X152402000Y-89802580D01*
X151382000Y-89521420D02*
X151382000Y-89802580D01*
%TO.C,R4*%
X140508258Y-108218500D02*
X140033742Y-108218500D01*
X140508258Y-107173500D02*
X140033742Y-107173500D01*
%TO.C,R5*%
X153401500Y-105647258D02*
X153401500Y-105172742D01*
X154446500Y-105647258D02*
X154446500Y-105172742D01*
%TO.C,C8*%
X134847000Y-94226748D02*
X134847000Y-94749252D01*
X133377000Y-94226748D02*
X133377000Y-94749252D01*
%TO.C,R1*%
X149114742Y-107935500D02*
X149589258Y-107935500D01*
X149114742Y-108980500D02*
X149589258Y-108980500D01*
%TO.C,C7*%
X137162000Y-94601420D02*
X137162000Y-94882580D01*
X136142000Y-94601420D02*
X136142000Y-94882580D01*
%TO.C,R6*%
X148067500Y-105647258D02*
X148067500Y-105172742D01*
X149112500Y-105647258D02*
X149112500Y-105172742D01*
%TO.C,C10*%
X135130000Y-89521420D02*
X135130000Y-89802580D01*
X134110000Y-89521420D02*
X134110000Y-89802580D01*
%TO.C,C5*%
X151270580Y-103126000D02*
X150989420Y-103126000D01*
X151270580Y-102106000D02*
X150989420Y-102106000D01*
%TO.C,C11*%
X134847000Y-101338748D02*
X134847000Y-101861252D01*
X133377000Y-101338748D02*
X133377000Y-101861252D01*
%TO.C,C3*%
X143713580Y-106428000D02*
X143432420Y-106428000D01*
X143713580Y-105408000D02*
X143432420Y-105408000D01*
%TO.C,J1*%
X130750000Y-113344000D02*
X130750000Y-112014000D01*
X132080000Y-113344000D02*
X130750000Y-113344000D01*
X133350000Y-113344000D02*
X156270000Y-113344000D01*
X133350000Y-113344000D02*
X133350000Y-110684000D01*
X156270000Y-113344000D02*
X156270000Y-110684000D01*
X133350000Y-110684000D02*
X156270000Y-110684000D01*
%TO.C,C6*%
X149100000Y-97395420D02*
X149100000Y-97676580D01*
X148080000Y-97395420D02*
X148080000Y-97676580D01*
%TO.C,Y1*%
X149956000Y-91958000D02*
X149956000Y-86858000D01*
X149956000Y-86858000D02*
X137356000Y-86858000D01*
X137356000Y-91958000D02*
X149956000Y-91958000D01*
%TO.C,R3*%
X143335742Y-107173500D02*
X143810258Y-107173500D01*
X143335742Y-108218500D02*
X143810258Y-108218500D01*
%TO.C,FB1*%
X134622000Y-97881221D02*
X134622000Y-98206779D01*
X133602000Y-97881221D02*
X133602000Y-98206779D01*
%TO.C,C1*%
X152656000Y-105269420D02*
X152656000Y-105550580D01*
X151636000Y-105269420D02*
X151636000Y-105550580D01*
%TO.C,C2*%
X149858000Y-105550580D02*
X149858000Y-105269420D01*
X150878000Y-105550580D02*
X150878000Y-105269420D01*
%TO.C,FB2*%
X132082000Y-97881221D02*
X132082000Y-98206779D01*
X131062000Y-97881221D02*
X131062000Y-98206779D01*
%TO.C,C4*%
X140411580Y-106428000D02*
X140130420Y-106428000D01*
X140411580Y-105408000D02*
X140130420Y-105408000D01*
D10*
%TO.C,U1*%
X138677000Y-100665000D02*
X138902000Y-100665000D01*
X138677000Y-100665000D02*
X138677000Y-94915000D01*
X138902000Y-100665000D02*
X138902000Y-102265000D01*
X147327000Y-100665000D02*
X147027000Y-100665000D01*
X147327000Y-100665000D02*
X147327000Y-94915000D01*
X138677000Y-94915000D02*
X138977000Y-94915000D01*
X147327000Y-94915000D02*
X147027000Y-94915000D01*
D12*
%TO.C,C12*%
X137162000Y-101205420D02*
X137162000Y-101486580D01*
X136142000Y-101205420D02*
X136142000Y-101486580D01*
%TO.C,R2*%
X152924742Y-107935500D02*
X153399258Y-107935500D01*
X152924742Y-108980500D02*
X153399258Y-108980500D01*
%TD*%
M02*
